M48
; DRILL file {KiCad (5.1.4)-1} date 9/22/2019 9:20:11 PM
; FORMAT={-:-/ absolute / inch / decimal}
; #@! TF.CreationDate,2019-09-22T21:20:11-07:00
; #@! TF.GenerationSoftware,Kicad,Pcbnew,(5.1.4)-1
; #@! TF.FileFunction,NonPlated,1,2,NPTH
FMAT,2
INCH
T1C0.0764
T2C0.0866
T3C0.1575
%
G90
G05
T1
X6.7634Y-3.3802
X4.9484Y-3.3752
X5.3484Y-3.3752
X6.6934Y-4.4702
X5.7134Y-5.1602
X6.1134Y-5.1602
X4.6934Y-4.4602
X5.0934Y-4.4602
X6.3634Y-3.3802
X7.0934Y-4.4702
X5.6984Y-4.2002
X6.0984Y-4.2002
T2
X7.2085Y-3.9725
X6.355Y-5.2765
X5.4555Y-2.8185
X4.584Y-3.9725
X6.352Y-2.8185
X5.461Y-5.2765
T3
X4.8934Y-4.4602
X6.5634Y-3.3802
X6.8934Y-4.4702
X5.8984Y-4.2002
X5.9134Y-5.1602
X5.1484Y-3.3752
T0
M30
