M48
; DRILL file {KiCad (5.1.4)-1} date 9/16/2019 10:37:03 PM
; FORMAT={-:-/ absolute / inch / decimal}
; #@! TF.CreationDate,2019-09-16T22:37:03-07:00
; #@! TF.GenerationSoftware,Kicad,Pcbnew,(5.1.4)-1
; #@! TF.FileFunction,Plated,1,2,PTH
FMAT,2
INCH
T1C0.0390
T2C0.0394
T3C0.0433
T4C0.0591
%
G90
G05
T1
X6.2Y-3.95
X6.2Y-4.25
X6.85Y-3.15
X6.85Y-3.45
X6.57Y-4.25
X6.57Y-4.55
X5.45Y-3.15
X5.45Y-3.45
X5.23Y-4.255
X5.23Y-4.555
X6.235Y-4.95
X6.235Y-5.25
T2
X6.4681Y-3.01
X6.5666Y-3.01
X6.665Y-3.5809
X6.6654Y-3.01
X5.8031Y-3.83
X5.9016Y-3.83
X6.0Y-4.4009
X6.0004Y-3.83
X5.0531Y-3.005
X5.1516Y-3.005
X5.25Y-3.5759
X5.2504Y-3.005
X6.7981Y-4.1
X6.8966Y-4.1
X6.995Y-4.6709
X6.9954Y-4.1
X5.8181Y-4.79
X5.9166Y-4.79
X6.015Y-5.3609
X6.0154Y-4.79
X4.7981Y-4.09
X4.8966Y-4.09
X4.995Y-4.6609
X4.9954Y-4.09
T3
X5.6Y-2.75
X5.6Y-2.85
X5.6Y-2.95
X5.6Y-3.05
X5.6Y-3.15
X5.6Y-3.25
X5.6Y-3.35
X5.6Y-3.45
X5.6Y-3.55
X5.6Y-3.65
X5.6Y-3.75
X5.6Y-3.85
X6.2Y-2.75
X6.2Y-2.85
X6.2Y-2.95
X6.2Y-3.05
X6.2Y-3.15
X6.2Y-3.25
X6.2Y-3.35
X6.2Y-3.45
X6.2Y-3.55
X6.2Y-3.65
X6.2Y-3.75
X6.2Y-3.85
T4
X4.7934Y-4.6602
X6.7134Y-3.4802
X6.0484Y-4.3002
X5.8134Y-5.3602
X6.0634Y-5.2602
X5.0434Y-4.5602
X6.4634Y-3.5802
X5.7984Y-4.4002
X5.0484Y-3.5752
X5.2984Y-3.4752
X6.7934Y-4.6702
X7.0434Y-4.5702
T0
M30
