G04 #@! TF.GenerationSoftware,KiCad,Pcbnew,(5.1.4)-1*
G04 #@! TF.CreationDate,2019-09-22T21:20:08-07:00*
G04 #@! TF.ProjectId,macropad,6d616372-6f70-4616-942e-6b696361645f,rev?*
G04 #@! TF.SameCoordinates,Original*
G04 #@! TF.FileFunction,Copper,L1,Top*
G04 #@! TF.FilePolarity,Positive*
%FSLAX46Y46*%
G04 Gerber Fmt 4.6, Leading zero omitted, Abs format (unit mm)*
G04 Created by KiCad (PCBNEW (5.1.4)-1) date 2019-09-22 21:20:08*
%MOMM*%
%LPD*%
G04 APERTURE LIST*
%ADD10C,0.100000*%
%ADD11C,2.000000*%
%ADD12C,2.800000*%
%ADD13C,1.950000*%
%ADD14R,1.651000X1.651000*%
%ADD15C,1.651000*%
%ADD16C,1.600000*%
%ADD17R,1.600000X1.600000*%
%ADD18C,0.250000*%
G04 APERTURE END LIST*
D10*
G36*
X177546000Y-115951000D02*
G01*
X176784000Y-118618000D01*
X177800000Y-117856000D01*
X178562000Y-118745000D01*
X179959000Y-116840000D01*
X178562000Y-117094000D01*
X177927000Y-116332000D01*
X177546000Y-115951000D01*
G37*
X177546000Y-115951000D02*
X176784000Y-118618000D01*
X177800000Y-117856000D01*
X178562000Y-118745000D01*
X179959000Y-116840000D01*
X178562000Y-117094000D01*
X177927000Y-116332000D01*
X177546000Y-115951000D01*
G36*
X152654000Y-133477000D02*
G01*
X151892000Y-136144000D01*
X152908000Y-135382000D01*
X153670000Y-136271000D01*
X155067000Y-134366000D01*
X153670000Y-134620000D01*
X153035000Y-133858000D01*
X152654000Y-133477000D01*
G37*
X152654000Y-133477000D02*
X151892000Y-136144000D01*
X152908000Y-135382000D01*
X153670000Y-136271000D01*
X155067000Y-134366000D01*
X153670000Y-134620000D01*
X153035000Y-133858000D01*
X152654000Y-133477000D01*
G36*
X152273000Y-109093000D02*
G01*
X151511000Y-111760000D01*
X152527000Y-110998000D01*
X153289000Y-111887000D01*
X154686000Y-109982000D01*
X153289000Y-110236000D01*
X152654000Y-109474000D01*
X152273000Y-109093000D01*
G37*
X152273000Y-109093000D02*
X151511000Y-111760000D01*
X152527000Y-110998000D01*
X153289000Y-111887000D01*
X154686000Y-109982000D01*
X153289000Y-110236000D01*
X152654000Y-109474000D01*
X152273000Y-109093000D01*
G36*
X126746000Y-115697000D02*
G01*
X125984000Y-118364000D01*
X127000000Y-117602000D01*
X127762000Y-118491000D01*
X129159000Y-116586000D01*
X127762000Y-116840000D01*
X127127000Y-116078000D01*
X126746000Y-115697000D01*
G37*
X126746000Y-115697000D02*
X125984000Y-118364000D01*
X127000000Y-117602000D01*
X127762000Y-118491000D01*
X129159000Y-116586000D01*
X127762000Y-116840000D01*
X127127000Y-116078000D01*
X126746000Y-115697000D01*
G36*
X169164000Y-88265000D02*
G01*
X168402000Y-90932000D01*
X169418000Y-90170000D01*
X170180000Y-91059000D01*
X171577000Y-89154000D01*
X170180000Y-89408000D01*
X169545000Y-88646000D01*
X169164000Y-88265000D01*
G37*
X169164000Y-88265000D02*
X168402000Y-90932000D01*
X169418000Y-90170000D01*
X170180000Y-91059000D01*
X171577000Y-89154000D01*
X170180000Y-89408000D01*
X169545000Y-88646000D01*
X169164000Y-88265000D01*
G36*
X133223000Y-88138000D02*
G01*
X132461000Y-90805000D01*
X133477000Y-90043000D01*
X134239000Y-90932000D01*
X135636000Y-89027000D01*
X134239000Y-89281000D01*
X133604000Y-88519000D01*
X133223000Y-88138000D01*
G37*
X133223000Y-88138000D02*
X132461000Y-90805000D01*
X133477000Y-90043000D01*
X134239000Y-90932000D01*
X135636000Y-89027000D01*
X134239000Y-89281000D01*
X133604000Y-88519000D01*
X133223000Y-88138000D01*
D11*
X177683160Y-104140000D03*
D12*
X172552360Y-118623080D03*
D13*
X170012360Y-113543080D03*
X180172360Y-113543080D03*
D12*
X178902360Y-116083080D03*
D11*
X175173000Y-104140000D03*
X172673000Y-104140000D03*
X177673000Y-118640000D03*
X152791160Y-121666000D03*
D12*
X147660360Y-136149080D03*
D13*
X145120360Y-131069080D03*
X155280360Y-131069080D03*
D12*
X154010360Y-133609080D03*
D11*
X150281000Y-121666000D03*
X147781000Y-121666000D03*
X152781000Y-136166000D03*
X152410160Y-97282000D03*
D12*
X147279360Y-111765080D03*
D13*
X144739360Y-106685080D03*
X154899360Y-106685080D03*
D12*
X153629360Y-109225080D03*
D11*
X149900000Y-97282000D03*
X147400000Y-97282000D03*
X152400000Y-111782000D03*
X126883160Y-103886000D03*
D12*
X121752360Y-118369080D03*
D13*
X119212360Y-113289080D03*
X129372360Y-113289080D03*
D12*
X128102360Y-115829080D03*
D11*
X124373000Y-103886000D03*
X121873000Y-103886000D03*
X126873000Y-118386000D03*
X169301160Y-76454000D03*
D12*
X164170360Y-90937080D03*
D13*
X161630360Y-85857080D03*
X171790360Y-85857080D03*
D12*
X170520360Y-88397080D03*
D11*
X166791000Y-76454000D03*
X164291000Y-76454000D03*
X169291000Y-90954000D03*
X133360160Y-76327000D03*
D12*
X128229360Y-90810080D03*
D13*
X125689360Y-85730080D03*
X135849360Y-85730080D03*
D12*
X134579360Y-88270080D03*
D11*
X130850000Y-76327000D03*
X128350000Y-76327000D03*
X133350000Y-90827000D03*
D14*
X166878000Y-115570000D03*
D15*
X166878000Y-107950000D03*
D14*
X173990000Y-87630000D03*
D15*
X173990000Y-80010000D03*
D14*
X158369000Y-133350000D03*
D15*
X158369000Y-125730000D03*
D16*
X157480000Y-69850000D03*
X157480000Y-72390000D03*
X157480000Y-74930000D03*
X157480000Y-77470000D03*
X157480000Y-80010000D03*
X157480000Y-82550000D03*
X157480000Y-85090000D03*
X157480000Y-87630000D03*
X157480000Y-90170000D03*
X157480000Y-92710000D03*
X157480000Y-95250000D03*
X157480000Y-97790000D03*
X142240000Y-97790000D03*
X142240000Y-95250000D03*
X142240000Y-92710000D03*
X142240000Y-90170000D03*
X142240000Y-87630000D03*
X142240000Y-85090000D03*
X142240000Y-82550000D03*
X142240000Y-80010000D03*
X142240000Y-77470000D03*
X142240000Y-74930000D03*
X142240000Y-72390000D03*
D17*
X142240000Y-69850000D03*
D14*
X157480000Y-107950000D03*
D15*
X157480000Y-100330000D03*
D14*
X138430000Y-87630000D03*
D15*
X138430000Y-80010000D03*
D14*
X132842000Y-115697000D03*
D15*
X132842000Y-108077000D03*
D18*
X132882000Y-115657000D02*
X132842000Y-115697000D01*
X156312567Y-100330000D02*
X154178000Y-98195433D01*
X157480000Y-100330000D02*
X156312567Y-100330000D01*
X143371370Y-87630000D02*
X142240000Y-87630000D01*
X145935002Y-87630000D02*
X143371370Y-87630000D01*
X154178000Y-95872998D02*
X145935002Y-87630000D01*
X154178000Y-98195433D02*
X154178000Y-95872998D01*
X143039999Y-90969999D02*
X142240000Y-90170000D01*
X143365001Y-91295001D02*
X143039999Y-90969999D01*
X143365001Y-96071003D02*
X143365001Y-91295001D01*
X152679077Y-105385079D02*
X143365001Y-96071003D01*
X164313079Y-105385079D02*
X152679077Y-105385079D01*
X166878000Y-107950000D02*
X164313079Y-105385079D01*
X173990000Y-88705500D02*
X173990000Y-87630000D01*
X171875500Y-90820000D02*
X173990000Y-88705500D01*
X168870000Y-90820000D02*
X171875500Y-90820000D01*
X156680001Y-91910001D02*
X157480000Y-92710000D01*
X156354999Y-91584999D02*
X156680001Y-91910001D01*
X156354999Y-89629999D02*
X156354999Y-91584999D01*
X157065007Y-88919991D02*
X156354999Y-89629999D01*
X162697931Y-87619069D02*
X161397009Y-88919991D01*
X164930761Y-87619069D02*
X162697931Y-87619069D01*
X178464009Y-102696599D02*
X166344205Y-90576795D01*
X172720000Y-104140000D02*
X174498000Y-105918000D01*
X166344205Y-89032513D02*
X164930761Y-87619069D01*
X174498000Y-105918000D02*
X178814002Y-105918000D01*
X178814002Y-105918000D02*
X179339001Y-105393001D01*
X179339001Y-105393001D02*
X179339001Y-102872999D01*
X166344205Y-90576795D02*
X166344205Y-89032513D01*
X179339001Y-102872999D02*
X179162601Y-102696599D01*
X161397009Y-88919991D02*
X157065007Y-88919991D01*
X179162601Y-102696599D02*
X178464009Y-102696599D01*
X158279999Y-89370001D02*
X157480000Y-90170000D01*
X161708999Y-89370001D02*
X158279999Y-89370001D01*
X178014000Y-104133000D02*
X178014000Y-102883000D01*
X178014000Y-102883000D02*
X165894196Y-90763196D01*
X165894196Y-90763196D02*
X165894196Y-89218914D01*
X165894196Y-89218914D02*
X164744361Y-88069079D01*
X164744361Y-88069079D02*
X163009921Y-88069079D01*
X163009921Y-88069079D02*
X161708999Y-89370001D01*
X147360000Y-109725787D02*
X147360000Y-111140000D01*
X147360000Y-101244998D02*
X147360000Y-109725787D01*
X142240000Y-96124998D02*
X147360000Y-101244998D01*
X142240000Y-95250000D02*
X142240000Y-96124998D01*
X172014001Y-119632999D02*
X173014000Y-118633000D01*
X168281999Y-123365001D02*
X172014001Y-119632999D01*
X146723999Y-123365001D02*
X168281999Y-123365001D01*
X146034999Y-122676001D02*
X146723999Y-123365001D01*
X146034999Y-112465001D02*
X146034999Y-122676001D01*
X147360000Y-111140000D02*
X146034999Y-112465001D01*
X172014001Y-117633001D02*
X173014000Y-118633000D01*
X168588999Y-114207999D02*
X172014001Y-117633001D01*
X168588999Y-95538999D02*
X168588999Y-114207999D01*
X163870000Y-90820000D02*
X168588999Y-95538999D01*
X156680001Y-86830001D02*
X157480000Y-87630000D01*
X156354999Y-86504999D02*
X156680001Y-86830001D01*
X156354999Y-76929999D02*
X156354999Y-86504999D01*
X156964998Y-76320000D02*
X156354999Y-76929999D01*
X163870000Y-76320000D02*
X156964998Y-76320000D01*
X169037000Y-76561000D02*
X163175000Y-82423000D01*
X169037000Y-75311000D02*
X169037000Y-76561000D01*
X160147000Y-82423000D02*
X157480000Y-85090000D01*
X163175000Y-82423000D02*
X160147000Y-82423000D01*
X136203401Y-99256009D02*
X140030511Y-95428899D01*
X130713990Y-99256010D02*
X136203401Y-99256009D01*
X126960000Y-104260000D02*
X126960000Y-103010000D01*
X126960000Y-103010000D02*
X130713990Y-99256010D01*
X140030511Y-84759489D02*
X142240000Y-82550000D01*
X140030511Y-95428899D02*
X140030511Y-84759489D01*
X121960000Y-104260000D02*
X127414000Y-98806000D01*
X127414000Y-98806000D02*
X136017000Y-98806000D01*
X141440001Y-80809999D02*
X142240000Y-80010000D01*
X139580501Y-82669499D02*
X141440001Y-80809999D01*
X139580501Y-95242499D02*
X139580501Y-82669499D01*
X136017000Y-98806000D02*
X139580501Y-95242499D01*
M02*
