G04 #@! TF.GenerationSoftware,KiCad,Pcbnew,(5.1.4)-1*
G04 #@! TF.CreationDate,2019-09-22T21:20:08-07:00*
G04 #@! TF.ProjectId,macropad,6d616372-6f70-4616-942e-6b696361645f,rev?*
G04 #@! TF.SameCoordinates,Original*
G04 #@! TF.FileFunction,Legend,Top*
G04 #@! TF.FilePolarity,Positive*
%FSLAX46Y46*%
G04 Gerber Fmt 4.6, Leading zero omitted, Abs format (unit mm)*
G04 Created by KiCad (PCBNEW (5.1.4)-1) date 2019-09-22 21:20:08*
%MOMM*%
%LPD*%
G04 APERTURE LIST*
%ADD10C,0.120000*%
%ADD11C,0.203200*%
%ADD12C,0.150000*%
G04 APERTURE END LIST*
D10*
X178173000Y-111640000D02*
G75*
G03X178173000Y-111640000I-3000000J0D01*
G01*
X181073000Y-113640000D02*
X181073000Y-117740000D01*
X169273000Y-117740000D02*
X169273000Y-113640000D01*
X169273000Y-113640000D02*
X169273000Y-105540000D01*
X181073000Y-113640000D02*
X181073000Y-105540000D01*
X181073000Y-105540000D02*
X169273000Y-105540000D01*
X178973000Y-104140000D02*
X179273000Y-103840000D01*
X179273000Y-103840000D02*
X179273000Y-104440000D01*
X179273000Y-104440000D02*
X178973000Y-104140000D01*
X181073000Y-117740000D02*
X178673000Y-117740000D01*
X176473000Y-117740000D02*
X173873000Y-117740000D01*
X171236640Y-117749320D02*
X169273000Y-117740000D01*
X175673000Y-111640000D02*
X174673000Y-111640000D01*
X175173000Y-111140000D02*
X175173000Y-112140000D01*
X153281000Y-129166000D02*
G75*
G03X153281000Y-129166000I-3000000J0D01*
G01*
X156181000Y-131166000D02*
X156181000Y-135266000D01*
X144381000Y-135266000D02*
X144381000Y-131166000D01*
X144381000Y-131166000D02*
X144381000Y-123066000D01*
X156181000Y-131166000D02*
X156181000Y-123066000D01*
X156181000Y-123066000D02*
X144381000Y-123066000D01*
X154081000Y-121666000D02*
X154381000Y-121366000D01*
X154381000Y-121366000D02*
X154381000Y-121966000D01*
X154381000Y-121966000D02*
X154081000Y-121666000D01*
X156181000Y-135266000D02*
X153781000Y-135266000D01*
X151581000Y-135266000D02*
X148981000Y-135266000D01*
X146344640Y-135275320D02*
X144381000Y-135266000D01*
X150781000Y-129166000D02*
X149781000Y-129166000D01*
X150281000Y-128666000D02*
X150281000Y-129666000D01*
X152900000Y-104782000D02*
G75*
G03X152900000Y-104782000I-3000000J0D01*
G01*
X155800000Y-106782000D02*
X155800000Y-110882000D01*
X144000000Y-110882000D02*
X144000000Y-106782000D01*
X144000000Y-106782000D02*
X144000000Y-98682000D01*
X155800000Y-106782000D02*
X155800000Y-98682000D01*
X155800000Y-98682000D02*
X144000000Y-98682000D01*
X153700000Y-97282000D02*
X154000000Y-96982000D01*
X154000000Y-96982000D02*
X154000000Y-97582000D01*
X154000000Y-97582000D02*
X153700000Y-97282000D01*
X155800000Y-110882000D02*
X153400000Y-110882000D01*
X151200000Y-110882000D02*
X148600000Y-110882000D01*
X145963640Y-110891320D02*
X144000000Y-110882000D01*
X150400000Y-104782000D02*
X149400000Y-104782000D01*
X149900000Y-104282000D02*
X149900000Y-105282000D01*
X127373000Y-111386000D02*
G75*
G03X127373000Y-111386000I-3000000J0D01*
G01*
X130273000Y-113386000D02*
X130273000Y-117486000D01*
X118473000Y-117486000D02*
X118473000Y-113386000D01*
X118473000Y-113386000D02*
X118473000Y-105286000D01*
X130273000Y-113386000D02*
X130273000Y-105286000D01*
X130273000Y-105286000D02*
X118473000Y-105286000D01*
X128173000Y-103886000D02*
X128473000Y-103586000D01*
X128473000Y-103586000D02*
X128473000Y-104186000D01*
X128473000Y-104186000D02*
X128173000Y-103886000D01*
X130273000Y-117486000D02*
X127873000Y-117486000D01*
X125673000Y-117486000D02*
X123073000Y-117486000D01*
X120436640Y-117495320D02*
X118473000Y-117486000D01*
X124873000Y-111386000D02*
X123873000Y-111386000D01*
X124373000Y-110886000D02*
X124373000Y-111886000D01*
X169791000Y-83954000D02*
G75*
G03X169791000Y-83954000I-3000000J0D01*
G01*
X172691000Y-85954000D02*
X172691000Y-90054000D01*
X160891000Y-90054000D02*
X160891000Y-85954000D01*
X160891000Y-85954000D02*
X160891000Y-77854000D01*
X172691000Y-85954000D02*
X172691000Y-77854000D01*
X172691000Y-77854000D02*
X160891000Y-77854000D01*
X170591000Y-76454000D02*
X170891000Y-76154000D01*
X170891000Y-76154000D02*
X170891000Y-76754000D01*
X170891000Y-76754000D02*
X170591000Y-76454000D01*
X172691000Y-90054000D02*
X170291000Y-90054000D01*
X168091000Y-90054000D02*
X165491000Y-90054000D01*
X162854640Y-90063320D02*
X160891000Y-90054000D01*
X167291000Y-83954000D02*
X166291000Y-83954000D01*
X166791000Y-83454000D02*
X166791000Y-84454000D01*
X133850000Y-83827000D02*
G75*
G03X133850000Y-83827000I-3000000J0D01*
G01*
X136750000Y-85827000D02*
X136750000Y-89927000D01*
X124950000Y-89927000D02*
X124950000Y-85827000D01*
X124950000Y-85827000D02*
X124950000Y-77727000D01*
X136750000Y-85827000D02*
X136750000Y-77727000D01*
X136750000Y-77727000D02*
X124950000Y-77727000D01*
X134650000Y-76327000D02*
X134950000Y-76027000D01*
X134950000Y-76027000D02*
X134950000Y-76627000D01*
X134950000Y-76627000D02*
X134650000Y-76327000D01*
X136750000Y-89927000D02*
X134350000Y-89927000D01*
X132150000Y-89927000D02*
X129550000Y-89927000D01*
X126913640Y-89936320D02*
X124950000Y-89927000D01*
X131350000Y-83827000D02*
X130350000Y-83827000D01*
X130850000Y-83327000D02*
X130850000Y-84327000D01*
D11*
X165735000Y-110236000D02*
X168021000Y-110236000D01*
X165735000Y-113284000D02*
X165735000Y-110236000D01*
X168021000Y-113284000D02*
X165735000Y-113284000D01*
X168021000Y-110236000D02*
X168021000Y-113284000D01*
D12*
X165778000Y-113060000D02*
X167878000Y-113060000D01*
X167978000Y-113060000D02*
X167878000Y-113060000D01*
X167878000Y-113060000D02*
X167978000Y-113060000D01*
X167978000Y-112860000D02*
X165778000Y-112860000D01*
X165778000Y-112660000D02*
X167978000Y-112660000D01*
D11*
X172847000Y-82296000D02*
X175133000Y-82296000D01*
X172847000Y-85344000D02*
X172847000Y-82296000D01*
X175133000Y-85344000D02*
X172847000Y-85344000D01*
X175133000Y-82296000D02*
X175133000Y-85344000D01*
D12*
X172890000Y-85120000D02*
X174990000Y-85120000D01*
X175090000Y-85120000D02*
X174990000Y-85120000D01*
X174990000Y-85120000D02*
X175090000Y-85120000D01*
X175090000Y-84920000D02*
X172890000Y-84920000D01*
X172890000Y-84720000D02*
X175090000Y-84720000D01*
D11*
X157226000Y-128016000D02*
X159512000Y-128016000D01*
X157226000Y-131064000D02*
X157226000Y-128016000D01*
X159512000Y-131064000D02*
X157226000Y-131064000D01*
X159512000Y-128016000D02*
X159512000Y-131064000D01*
D12*
X157269000Y-130840000D02*
X159369000Y-130840000D01*
X159469000Y-130840000D02*
X159369000Y-130840000D01*
X159369000Y-130840000D02*
X159469000Y-130840000D01*
X159469000Y-130640000D02*
X157269000Y-130640000D01*
X157269000Y-130440000D02*
X159469000Y-130440000D01*
X158750000Y-99060000D02*
X140970000Y-99060000D01*
X158750000Y-68580000D02*
X158750000Y-99060000D01*
X153670000Y-68580000D02*
X158750000Y-68580000D01*
X153670000Y-66040000D02*
X153670000Y-68580000D01*
X146050000Y-66040000D02*
X153670000Y-66040000D01*
X146050000Y-68580000D02*
X146050000Y-66040000D01*
X140970000Y-68580000D02*
X146050000Y-68580000D01*
X140970000Y-68580000D02*
X140970000Y-99060000D01*
D11*
X156337000Y-102616000D02*
X158623000Y-102616000D01*
X156337000Y-105664000D02*
X156337000Y-102616000D01*
X158623000Y-105664000D02*
X156337000Y-105664000D01*
X158623000Y-102616000D02*
X158623000Y-105664000D01*
D12*
X156380000Y-105440000D02*
X158480000Y-105440000D01*
X158580000Y-105440000D02*
X158480000Y-105440000D01*
X158480000Y-105440000D02*
X158580000Y-105440000D01*
X158580000Y-105240000D02*
X156380000Y-105240000D01*
X156380000Y-105040000D02*
X158580000Y-105040000D01*
D11*
X137287000Y-82296000D02*
X139573000Y-82296000D01*
X137287000Y-85344000D02*
X137287000Y-82296000D01*
X139573000Y-85344000D02*
X137287000Y-85344000D01*
X139573000Y-82296000D02*
X139573000Y-85344000D01*
D12*
X137330000Y-85120000D02*
X139430000Y-85120000D01*
X139530000Y-85120000D02*
X139430000Y-85120000D01*
X139430000Y-85120000D02*
X139530000Y-85120000D01*
X139530000Y-84920000D02*
X137330000Y-84920000D01*
X137330000Y-84720000D02*
X139530000Y-84720000D01*
D11*
X131699000Y-110363000D02*
X133985000Y-110363000D01*
X131699000Y-113411000D02*
X131699000Y-110363000D01*
X133985000Y-113411000D02*
X131699000Y-113411000D01*
X133985000Y-110363000D02*
X133985000Y-113411000D01*
D12*
X131742000Y-113187000D02*
X133842000Y-113187000D01*
X133942000Y-113187000D02*
X133842000Y-113187000D01*
X133842000Y-113187000D02*
X133942000Y-113187000D01*
X133942000Y-112987000D02*
X131742000Y-112987000D01*
X131742000Y-112787000D02*
X133942000Y-112787000D01*
X182777761Y-108273333D02*
X182825380Y-108130476D01*
X182825380Y-107892380D01*
X182777761Y-107797142D01*
X182730142Y-107749523D01*
X182634904Y-107701904D01*
X182539666Y-107701904D01*
X182444428Y-107749523D01*
X182396809Y-107797142D01*
X182349190Y-107892380D01*
X182301571Y-108082857D01*
X182253952Y-108178095D01*
X182206333Y-108225714D01*
X182111095Y-108273333D01*
X182015857Y-108273333D01*
X181920619Y-108225714D01*
X181873000Y-108178095D01*
X181825380Y-108082857D01*
X181825380Y-107844761D01*
X181873000Y-107701904D01*
X181825380Y-107368571D02*
X182825380Y-107130476D01*
X182111095Y-106940000D01*
X182825380Y-106749523D01*
X181825380Y-106511428D01*
X181825380Y-105701904D02*
X181825380Y-105892380D01*
X181873000Y-105987619D01*
X181920619Y-106035238D01*
X182063476Y-106130476D01*
X182253952Y-106178095D01*
X182634904Y-106178095D01*
X182730142Y-106130476D01*
X182777761Y-106082857D01*
X182825380Y-105987619D01*
X182825380Y-105797142D01*
X182777761Y-105701904D01*
X182730142Y-105654285D01*
X182634904Y-105606666D01*
X182396809Y-105606666D01*
X182301571Y-105654285D01*
X182253952Y-105701904D01*
X182206333Y-105797142D01*
X182206333Y-105987619D01*
X182253952Y-106082857D01*
X182301571Y-106130476D01*
X182396809Y-106178095D01*
X157885761Y-125799333D02*
X157933380Y-125656476D01*
X157933380Y-125418380D01*
X157885761Y-125323142D01*
X157838142Y-125275523D01*
X157742904Y-125227904D01*
X157647666Y-125227904D01*
X157552428Y-125275523D01*
X157504809Y-125323142D01*
X157457190Y-125418380D01*
X157409571Y-125608857D01*
X157361952Y-125704095D01*
X157314333Y-125751714D01*
X157219095Y-125799333D01*
X157123857Y-125799333D01*
X157028619Y-125751714D01*
X156981000Y-125704095D01*
X156933380Y-125608857D01*
X156933380Y-125370761D01*
X156981000Y-125227904D01*
X156933380Y-124894571D02*
X157933380Y-124656476D01*
X157219095Y-124466000D01*
X157933380Y-124275523D01*
X156933380Y-124037428D01*
X156933380Y-123180285D02*
X156933380Y-123656476D01*
X157409571Y-123704095D01*
X157361952Y-123656476D01*
X157314333Y-123561238D01*
X157314333Y-123323142D01*
X157361952Y-123227904D01*
X157409571Y-123180285D01*
X157504809Y-123132666D01*
X157742904Y-123132666D01*
X157838142Y-123180285D01*
X157885761Y-123227904D01*
X157933380Y-123323142D01*
X157933380Y-123561238D01*
X157885761Y-123656476D01*
X157838142Y-123704095D01*
X157504761Y-101415333D02*
X157552380Y-101272476D01*
X157552380Y-101034380D01*
X157504761Y-100939142D01*
X157457142Y-100891523D01*
X157361904Y-100843904D01*
X157266666Y-100843904D01*
X157171428Y-100891523D01*
X157123809Y-100939142D01*
X157076190Y-101034380D01*
X157028571Y-101224857D01*
X156980952Y-101320095D01*
X156933333Y-101367714D01*
X156838095Y-101415333D01*
X156742857Y-101415333D01*
X156647619Y-101367714D01*
X156600000Y-101320095D01*
X156552380Y-101224857D01*
X156552380Y-100986761D01*
X156600000Y-100843904D01*
X156552380Y-100510571D02*
X157552380Y-100272476D01*
X156838095Y-100082000D01*
X157552380Y-99891523D01*
X156552380Y-99653428D01*
X156885714Y-98843904D02*
X157552380Y-98843904D01*
X156504761Y-99082000D02*
X157219047Y-99320095D01*
X157219047Y-98701047D01*
X131977761Y-108019333D02*
X132025380Y-107876476D01*
X132025380Y-107638380D01*
X131977761Y-107543142D01*
X131930142Y-107495523D01*
X131834904Y-107447904D01*
X131739666Y-107447904D01*
X131644428Y-107495523D01*
X131596809Y-107543142D01*
X131549190Y-107638380D01*
X131501571Y-107828857D01*
X131453952Y-107924095D01*
X131406333Y-107971714D01*
X131311095Y-108019333D01*
X131215857Y-108019333D01*
X131120619Y-107971714D01*
X131073000Y-107924095D01*
X131025380Y-107828857D01*
X131025380Y-107590761D01*
X131073000Y-107447904D01*
X131025380Y-107114571D02*
X132025380Y-106876476D01*
X131311095Y-106686000D01*
X132025380Y-106495523D01*
X131025380Y-106257428D01*
X131025380Y-105971714D02*
X131025380Y-105352666D01*
X131406333Y-105686000D01*
X131406333Y-105543142D01*
X131453952Y-105447904D01*
X131501571Y-105400285D01*
X131596809Y-105352666D01*
X131834904Y-105352666D01*
X131930142Y-105400285D01*
X131977761Y-105447904D01*
X132025380Y-105543142D01*
X132025380Y-105828857D01*
X131977761Y-105924095D01*
X131930142Y-105971714D01*
X174395761Y-80587333D02*
X174443380Y-80444476D01*
X174443380Y-80206380D01*
X174395761Y-80111142D01*
X174348142Y-80063523D01*
X174252904Y-80015904D01*
X174157666Y-80015904D01*
X174062428Y-80063523D01*
X174014809Y-80111142D01*
X173967190Y-80206380D01*
X173919571Y-80396857D01*
X173871952Y-80492095D01*
X173824333Y-80539714D01*
X173729095Y-80587333D01*
X173633857Y-80587333D01*
X173538619Y-80539714D01*
X173491000Y-80492095D01*
X173443380Y-80396857D01*
X173443380Y-80158761D01*
X173491000Y-80015904D01*
X173443380Y-79682571D02*
X174443380Y-79444476D01*
X173729095Y-79254000D01*
X174443380Y-79063523D01*
X173443380Y-78825428D01*
X173538619Y-78492095D02*
X173491000Y-78444476D01*
X173443380Y-78349238D01*
X173443380Y-78111142D01*
X173491000Y-78015904D01*
X173538619Y-77968285D01*
X173633857Y-77920666D01*
X173729095Y-77920666D01*
X173871952Y-77968285D01*
X174443380Y-78539714D01*
X174443380Y-77920666D01*
X138454761Y-80460333D02*
X138502380Y-80317476D01*
X138502380Y-80079380D01*
X138454761Y-79984142D01*
X138407142Y-79936523D01*
X138311904Y-79888904D01*
X138216666Y-79888904D01*
X138121428Y-79936523D01*
X138073809Y-79984142D01*
X138026190Y-80079380D01*
X137978571Y-80269857D01*
X137930952Y-80365095D01*
X137883333Y-80412714D01*
X137788095Y-80460333D01*
X137692857Y-80460333D01*
X137597619Y-80412714D01*
X137550000Y-80365095D01*
X137502380Y-80269857D01*
X137502380Y-80031761D01*
X137550000Y-79888904D01*
X137502380Y-79555571D02*
X138502380Y-79317476D01*
X137788095Y-79127000D01*
X138502380Y-78936523D01*
X137502380Y-78698428D01*
X138502380Y-77793666D02*
X138502380Y-78365095D01*
X138502380Y-78079380D02*
X137502380Y-78079380D01*
X137645238Y-78174619D01*
X137740476Y-78269857D01*
X137788095Y-78365095D01*
D11*
X167452523Y-112884857D02*
X166182523Y-112884857D01*
X166182523Y-112522000D01*
X166243000Y-112304285D01*
X166363952Y-112159142D01*
X166484904Y-112086571D01*
X166726809Y-112014000D01*
X166908238Y-112014000D01*
X167150142Y-112086571D01*
X167271095Y-112159142D01*
X167392047Y-112304285D01*
X167452523Y-112522000D01*
X167452523Y-112884857D01*
X166182523Y-110707714D02*
X166182523Y-110998000D01*
X166243000Y-111143142D01*
X166303476Y-111215714D01*
X166484904Y-111360857D01*
X166726809Y-111433428D01*
X167210619Y-111433428D01*
X167331571Y-111360857D01*
X167392047Y-111288285D01*
X167452523Y-111143142D01*
X167452523Y-110852857D01*
X167392047Y-110707714D01*
X167331571Y-110635142D01*
X167210619Y-110562571D01*
X166908238Y-110562571D01*
X166787285Y-110635142D01*
X166726809Y-110707714D01*
X166666333Y-110852857D01*
X166666333Y-111143142D01*
X166726809Y-111288285D01*
X166787285Y-111360857D01*
X166908238Y-111433428D01*
X174564523Y-84944857D02*
X173294523Y-84944857D01*
X173294523Y-84582000D01*
X173355000Y-84364285D01*
X173475952Y-84219142D01*
X173596904Y-84146571D01*
X173838809Y-84074000D01*
X174020238Y-84074000D01*
X174262142Y-84146571D01*
X174383095Y-84219142D01*
X174504047Y-84364285D01*
X174564523Y-84582000D01*
X174564523Y-84944857D01*
X173717857Y-82767714D02*
X174564523Y-82767714D01*
X173234047Y-83130571D02*
X174141190Y-83493428D01*
X174141190Y-82550000D01*
X158943523Y-130664857D02*
X157673523Y-130664857D01*
X157673523Y-130302000D01*
X157734000Y-130084285D01*
X157854952Y-129939142D01*
X157975904Y-129866571D01*
X158217809Y-129794000D01*
X158399238Y-129794000D01*
X158641142Y-129866571D01*
X158762095Y-129939142D01*
X158883047Y-130084285D01*
X158943523Y-130302000D01*
X158943523Y-130664857D01*
X157794476Y-129213428D02*
X157734000Y-129140857D01*
X157673523Y-128995714D01*
X157673523Y-128632857D01*
X157734000Y-128487714D01*
X157794476Y-128415142D01*
X157915428Y-128342571D01*
X158036380Y-128342571D01*
X158217809Y-128415142D01*
X158943523Y-129286000D01*
X158943523Y-128342571D01*
X158054523Y-105264857D02*
X156784523Y-105264857D01*
X156784523Y-104902000D01*
X156845000Y-104684285D01*
X156965952Y-104539142D01*
X157086904Y-104466571D01*
X157328809Y-104394000D01*
X157510238Y-104394000D01*
X157752142Y-104466571D01*
X157873095Y-104539142D01*
X157994047Y-104684285D01*
X158054523Y-104902000D01*
X158054523Y-105264857D01*
X156784523Y-103015142D02*
X156784523Y-103740857D01*
X157389285Y-103813428D01*
X157328809Y-103740857D01*
X157268333Y-103595714D01*
X157268333Y-103232857D01*
X157328809Y-103087714D01*
X157389285Y-103015142D01*
X157510238Y-102942571D01*
X157812619Y-102942571D01*
X157933571Y-103015142D01*
X157994047Y-103087714D01*
X158054523Y-103232857D01*
X158054523Y-103595714D01*
X157994047Y-103740857D01*
X157933571Y-103813428D01*
X139004523Y-84944857D02*
X137734523Y-84944857D01*
X137734523Y-84582000D01*
X137795000Y-84364285D01*
X137915952Y-84219142D01*
X138036904Y-84146571D01*
X138278809Y-84074000D01*
X138460238Y-84074000D01*
X138702142Y-84146571D01*
X138823095Y-84219142D01*
X138944047Y-84364285D01*
X139004523Y-84582000D01*
X139004523Y-84944857D01*
X137734523Y-83566000D02*
X137734523Y-82622571D01*
X138218333Y-83130571D01*
X138218333Y-82912857D01*
X138278809Y-82767714D01*
X138339285Y-82695142D01*
X138460238Y-82622571D01*
X138762619Y-82622571D01*
X138883571Y-82695142D01*
X138944047Y-82767714D01*
X139004523Y-82912857D01*
X139004523Y-83348285D01*
X138944047Y-83493428D01*
X138883571Y-83566000D01*
X133416523Y-113011857D02*
X132146523Y-113011857D01*
X132146523Y-112649000D01*
X132207000Y-112431285D01*
X132327952Y-112286142D01*
X132448904Y-112213571D01*
X132690809Y-112141000D01*
X132872238Y-112141000D01*
X133114142Y-112213571D01*
X133235095Y-112286142D01*
X133356047Y-112431285D01*
X133416523Y-112649000D01*
X133416523Y-113011857D01*
X133416523Y-110689571D02*
X133416523Y-111560428D01*
X133416523Y-111125000D02*
X132146523Y-111125000D01*
X132327952Y-111270142D01*
X132448904Y-111415285D01*
X132509380Y-111560428D01*
M02*
