G04 #@! TF.GenerationSoftware,KiCad,Pcbnew,(5.1.4)-1*
G04 #@! TF.CreationDate,2019-09-20T01:01:40-07:00*
G04 #@! TF.ProjectId,macropad,6d616372-6f70-4616-942e-6b696361645f,rev?*
G04 #@! TF.SameCoordinates,Original*
G04 #@! TF.FileFunction,Soldermask,Top*
G04 #@! TF.FilePolarity,Negative*
%FSLAX46Y46*%
G04 Gerber Fmt 4.6, Leading zero omitted, Abs format (unit mm)*
G04 Created by KiCad (PCBNEW (5.1.4)-1) date 2019-09-20 01:01:40*
%MOMM*%
%LPD*%
G04 APERTURE LIST*
%ADD10C,0.100000*%
G04 APERTURE END LIST*
D10*
G36*
X148083601Y-134753840D02*
G01*
X148347665Y-134863219D01*
X148585318Y-135022014D01*
X148787426Y-135224122D01*
X148946221Y-135461775D01*
X149055600Y-135725839D01*
X149111360Y-136006168D01*
X149111360Y-136291992D01*
X149055600Y-136572321D01*
X148946221Y-136836385D01*
X148787426Y-137074038D01*
X148585318Y-137276146D01*
X148347665Y-137434941D01*
X148083601Y-137544320D01*
X147803272Y-137600080D01*
X147517448Y-137600080D01*
X147237119Y-137544320D01*
X146973055Y-137434941D01*
X146735402Y-137276146D01*
X146533294Y-137074038D01*
X146374499Y-136836385D01*
X146265120Y-136572321D01*
X146209360Y-136291992D01*
X146209360Y-136006168D01*
X146265120Y-135725839D01*
X146374499Y-135461775D01*
X146533294Y-135224122D01*
X146735402Y-135022014D01*
X146973055Y-134863219D01*
X147237119Y-134753840D01*
X147517448Y-134698080D01*
X147803272Y-134698080D01*
X148083601Y-134753840D01*
X148083601Y-134753840D01*
G37*
G36*
X153087564Y-135155389D02*
G01*
X153278833Y-135234615D01*
X153278835Y-135234616D01*
X153450973Y-135349635D01*
X153597365Y-135496027D01*
X153712385Y-135668167D01*
X153791611Y-135859436D01*
X153832000Y-136062484D01*
X153832000Y-136269516D01*
X153791611Y-136472564D01*
X153750290Y-136572321D01*
X153712384Y-136663835D01*
X153597365Y-136835973D01*
X153450973Y-136982365D01*
X153278835Y-137097384D01*
X153278834Y-137097385D01*
X153278833Y-137097385D01*
X153087564Y-137176611D01*
X152884516Y-137217000D01*
X152677484Y-137217000D01*
X152474436Y-137176611D01*
X152283167Y-137097385D01*
X152283166Y-137097385D01*
X152283165Y-137097384D01*
X152111027Y-136982365D01*
X151964635Y-136835973D01*
X151849616Y-136663835D01*
X151811710Y-136572321D01*
X151770389Y-136472564D01*
X151730000Y-136269516D01*
X151730000Y-136062484D01*
X151770389Y-135859436D01*
X151849615Y-135668167D01*
X151964635Y-135496027D01*
X152111027Y-135349635D01*
X152283165Y-135234616D01*
X152283167Y-135234615D01*
X152474436Y-135155389D01*
X152677484Y-135115000D01*
X152884516Y-135115000D01*
X153087564Y-135155389D01*
X153087564Y-135155389D01*
G37*
G36*
X138895927Y-132886653D02*
G01*
X139045134Y-132916332D01*
X139254603Y-133003097D01*
X139443120Y-133129060D01*
X139603440Y-133289380D01*
X139729403Y-133477897D01*
X139816168Y-133687366D01*
X139860400Y-133909736D01*
X139860400Y-134136464D01*
X139816168Y-134358834D01*
X139729403Y-134568303D01*
X139603440Y-134756820D01*
X139443120Y-134917140D01*
X139254603Y-135043103D01*
X139045134Y-135129868D01*
X138933949Y-135151984D01*
X138822765Y-135174100D01*
X138596035Y-135174100D01*
X138484851Y-135151984D01*
X138373666Y-135129868D01*
X138164197Y-135043103D01*
X137975680Y-134917140D01*
X137815360Y-134756820D01*
X137689397Y-134568303D01*
X137602632Y-134358834D01*
X137558400Y-134136464D01*
X137558400Y-133909736D01*
X137602632Y-133687366D01*
X137689397Y-133477897D01*
X137815360Y-133289380D01*
X137975680Y-133129060D01*
X138164197Y-133003097D01*
X138373666Y-132916332D01*
X138522873Y-132886653D01*
X138596035Y-132872100D01*
X138822765Y-132872100D01*
X138895927Y-132886653D01*
X138895927Y-132886653D01*
G37*
G36*
X161603527Y-132886653D02*
G01*
X161752734Y-132916332D01*
X161962203Y-133003097D01*
X162150720Y-133129060D01*
X162311040Y-133289380D01*
X162437003Y-133477897D01*
X162523768Y-133687366D01*
X162568000Y-133909736D01*
X162568000Y-134136464D01*
X162523768Y-134358834D01*
X162437003Y-134568303D01*
X162311040Y-134756820D01*
X162150720Y-134917140D01*
X161962203Y-135043103D01*
X161752734Y-135129868D01*
X161641549Y-135151984D01*
X161530365Y-135174100D01*
X161303635Y-135174100D01*
X161192451Y-135151984D01*
X161081266Y-135129868D01*
X160871797Y-135043103D01*
X160683280Y-134917140D01*
X160522960Y-134756820D01*
X160396997Y-134568303D01*
X160310232Y-134358834D01*
X160266000Y-134136464D01*
X160266000Y-133909736D01*
X160310232Y-133687366D01*
X160396997Y-133477897D01*
X160522960Y-133289380D01*
X160683280Y-133129060D01*
X160871797Y-133003097D01*
X161081266Y-132916332D01*
X161230473Y-132886653D01*
X161303635Y-132872100D01*
X161530365Y-132872100D01*
X161603527Y-132886653D01*
X161603527Y-132886653D01*
G37*
G36*
X154433601Y-132213840D02*
G01*
X154697665Y-132323219D01*
X154935318Y-132482014D01*
X155137426Y-132684122D01*
X155296221Y-132921775D01*
X155405600Y-133185839D01*
X155461360Y-133466168D01*
X155461360Y-133751992D01*
X155405600Y-134032321D01*
X155296221Y-134296385D01*
X155137426Y-134534038D01*
X154935318Y-134736146D01*
X154697665Y-134894941D01*
X154433601Y-135004320D01*
X154153272Y-135060080D01*
X153867448Y-135060080D01*
X153587119Y-135004320D01*
X153323055Y-134894941D01*
X153085402Y-134736146D01*
X152883294Y-134534038D01*
X152724499Y-134296385D01*
X152615120Y-134032321D01*
X152559360Y-133751992D01*
X152559360Y-133466168D01*
X152615120Y-133185839D01*
X152724499Y-132921775D01*
X152883294Y-132684122D01*
X153085402Y-132482014D01*
X153323055Y-132323219D01*
X153587119Y-132213840D01*
X153867448Y-132158080D01*
X154153272Y-132158080D01*
X154433601Y-132213840D01*
X154433601Y-132213840D01*
G37*
G36*
X159245500Y-134226500D02*
G01*
X157492500Y-134226500D01*
X157492500Y-132473500D01*
X159245500Y-132473500D01*
X159245500Y-134226500D01*
X159245500Y-134226500D01*
G37*
G36*
X150798614Y-129096898D02*
G01*
X151171871Y-129251506D01*
X151171873Y-129251507D01*
X151507796Y-129475964D01*
X151793476Y-129761644D01*
X152007872Y-130082509D01*
X152017934Y-130097569D01*
X152172542Y-130470826D01*
X152251360Y-130867073D01*
X152251360Y-131271087D01*
X152172542Y-131667334D01*
X152017934Y-132040591D01*
X152017933Y-132040593D01*
X151793476Y-132376516D01*
X151507796Y-132662196D01*
X151171873Y-132886653D01*
X151171872Y-132886654D01*
X151171871Y-132886654D01*
X150798614Y-133041262D01*
X150402367Y-133120080D01*
X149998353Y-133120080D01*
X149602106Y-133041262D01*
X149228849Y-132886654D01*
X149228848Y-132886654D01*
X149228847Y-132886653D01*
X148892924Y-132662196D01*
X148607244Y-132376516D01*
X148382787Y-132040593D01*
X148382786Y-132040591D01*
X148228178Y-131667334D01*
X148149360Y-131271087D01*
X148149360Y-130867073D01*
X148228178Y-130470826D01*
X148382786Y-130097569D01*
X148392849Y-130082509D01*
X148607244Y-129761644D01*
X148892924Y-129475964D01*
X149228847Y-129251507D01*
X149228849Y-129251506D01*
X149602106Y-129096898D01*
X149998353Y-129018080D01*
X150402367Y-129018080D01*
X150798614Y-129096898D01*
X150798614Y-129096898D01*
G37*
G36*
X155579632Y-130082508D02*
G01*
X155766351Y-130159850D01*
X155766353Y-130159851D01*
X155934397Y-130272134D01*
X156077306Y-130415043D01*
X156189589Y-130583087D01*
X156189590Y-130583089D01*
X156266932Y-130769808D01*
X156306360Y-130968027D01*
X156306360Y-131170133D01*
X156266932Y-131368352D01*
X156189590Y-131555071D01*
X156189589Y-131555073D01*
X156077306Y-131723117D01*
X155934397Y-131866026D01*
X155766353Y-131978309D01*
X155766352Y-131978310D01*
X155766351Y-131978310D01*
X155579632Y-132055652D01*
X155381413Y-132095080D01*
X155179307Y-132095080D01*
X154981088Y-132055652D01*
X154794369Y-131978310D01*
X154794368Y-131978310D01*
X154794367Y-131978309D01*
X154626323Y-131866026D01*
X154483414Y-131723117D01*
X154371131Y-131555073D01*
X154371130Y-131555071D01*
X154293788Y-131368352D01*
X154254360Y-131170133D01*
X154254360Y-130968027D01*
X154293788Y-130769808D01*
X154371130Y-130583089D01*
X154371131Y-130583087D01*
X154483414Y-130415043D01*
X154626323Y-130272134D01*
X154794367Y-130159851D01*
X154794369Y-130159850D01*
X154981088Y-130082508D01*
X155179307Y-130043080D01*
X155381413Y-130043080D01*
X155579632Y-130082508D01*
X155579632Y-130082508D01*
G37*
G36*
X145419632Y-130082508D02*
G01*
X145606351Y-130159850D01*
X145606353Y-130159851D01*
X145774397Y-130272134D01*
X145917306Y-130415043D01*
X146029589Y-130583087D01*
X146029590Y-130583089D01*
X146106932Y-130769808D01*
X146146360Y-130968027D01*
X146146360Y-131170133D01*
X146106932Y-131368352D01*
X146029590Y-131555071D01*
X146029589Y-131555073D01*
X145917306Y-131723117D01*
X145774397Y-131866026D01*
X145606353Y-131978309D01*
X145606352Y-131978310D01*
X145606351Y-131978310D01*
X145419632Y-132055652D01*
X145221413Y-132095080D01*
X145019307Y-132095080D01*
X144821088Y-132055652D01*
X144634369Y-131978310D01*
X144634368Y-131978310D01*
X144634367Y-131978309D01*
X144466323Y-131866026D01*
X144323414Y-131723117D01*
X144211131Y-131555073D01*
X144211130Y-131555071D01*
X144133788Y-131368352D01*
X144094360Y-131170133D01*
X144094360Y-130968027D01*
X144133788Y-130769808D01*
X144211130Y-130583089D01*
X144211131Y-130583087D01*
X144323414Y-130415043D01*
X144466323Y-130272134D01*
X144634367Y-130159851D01*
X144634369Y-130159850D01*
X144821088Y-130082508D01*
X145019307Y-130043080D01*
X145221413Y-130043080D01*
X145419632Y-130082508D01*
X145419632Y-130082508D01*
G37*
G36*
X158539997Y-124870342D02*
G01*
X158624666Y-124887183D01*
X158690738Y-124914551D01*
X158784177Y-124953255D01*
X158927736Y-125049178D01*
X159049822Y-125171264D01*
X159145745Y-125314823D01*
X159211817Y-125474335D01*
X159245500Y-125643671D01*
X159245500Y-125816329D01*
X159211817Y-125985665D01*
X159145745Y-126145177D01*
X159049822Y-126288736D01*
X158927736Y-126410822D01*
X158784177Y-126506745D01*
X158690738Y-126545449D01*
X158624666Y-126572817D01*
X158539997Y-126589659D01*
X158455329Y-126606500D01*
X158282671Y-126606500D01*
X158198003Y-126589659D01*
X158113334Y-126572817D01*
X158047262Y-126545449D01*
X157953823Y-126506745D01*
X157810264Y-126410822D01*
X157688178Y-126288736D01*
X157592255Y-126145177D01*
X157526183Y-125985665D01*
X157492500Y-125816329D01*
X157492500Y-125643671D01*
X157526183Y-125474335D01*
X157592255Y-125314823D01*
X157688178Y-125171264D01*
X157810264Y-125049178D01*
X157953823Y-124953255D01*
X158047262Y-124914551D01*
X158113334Y-124887183D01*
X158198003Y-124870342D01*
X158282671Y-124853500D01*
X158455329Y-124853500D01*
X158539997Y-124870342D01*
X158539997Y-124870342D01*
G37*
G36*
X148087564Y-120655389D02*
G01*
X148278833Y-120734615D01*
X148278835Y-120734616D01*
X148450973Y-120849635D01*
X148597365Y-120996027D01*
X148712385Y-121168167D01*
X148791611Y-121359436D01*
X148832000Y-121562484D01*
X148832000Y-121769516D01*
X148791611Y-121972564D01*
X148712385Y-122163833D01*
X148712384Y-122163835D01*
X148597365Y-122335973D01*
X148450973Y-122482365D01*
X148278835Y-122597384D01*
X148278834Y-122597385D01*
X148278833Y-122597385D01*
X148087564Y-122676611D01*
X147884516Y-122717000D01*
X147677484Y-122717000D01*
X147474436Y-122676611D01*
X147283167Y-122597385D01*
X147283166Y-122597385D01*
X147283165Y-122597384D01*
X147111027Y-122482365D01*
X146964635Y-122335973D01*
X146849616Y-122163835D01*
X146849615Y-122163833D01*
X146770389Y-121972564D01*
X146730000Y-121769516D01*
X146730000Y-121562484D01*
X146770389Y-121359436D01*
X146849615Y-121168167D01*
X146964635Y-120996027D01*
X147111027Y-120849635D01*
X147283165Y-120734616D01*
X147283167Y-120734615D01*
X147474436Y-120655389D01*
X147677484Y-120615000D01*
X147884516Y-120615000D01*
X148087564Y-120655389D01*
X148087564Y-120655389D01*
G37*
G36*
X153097724Y-120655389D02*
G01*
X153288993Y-120734615D01*
X153288995Y-120734616D01*
X153461133Y-120849635D01*
X153607525Y-120996027D01*
X153722545Y-121168167D01*
X153801771Y-121359436D01*
X153842160Y-121562484D01*
X153842160Y-121769516D01*
X153801771Y-121972564D01*
X153722545Y-122163833D01*
X153722544Y-122163835D01*
X153607525Y-122335973D01*
X153461133Y-122482365D01*
X153288995Y-122597384D01*
X153288994Y-122597385D01*
X153288993Y-122597385D01*
X153097724Y-122676611D01*
X152894676Y-122717000D01*
X152687644Y-122717000D01*
X152484596Y-122676611D01*
X152293327Y-122597385D01*
X152293326Y-122597385D01*
X152293325Y-122597384D01*
X152121187Y-122482365D01*
X151974795Y-122335973D01*
X151859776Y-122163835D01*
X151859775Y-122163833D01*
X151780549Y-121972564D01*
X151740160Y-121769516D01*
X151740160Y-121562484D01*
X151780549Y-121359436D01*
X151859775Y-121168167D01*
X151974795Y-120996027D01*
X152121187Y-120849635D01*
X152293325Y-120734616D01*
X152293327Y-120734615D01*
X152484596Y-120655389D01*
X152687644Y-120615000D01*
X152894676Y-120615000D01*
X153097724Y-120655389D01*
X153097724Y-120655389D01*
G37*
G36*
X150587564Y-120655389D02*
G01*
X150778833Y-120734615D01*
X150778835Y-120734616D01*
X150950973Y-120849635D01*
X151097365Y-120996027D01*
X151212385Y-121168167D01*
X151291611Y-121359436D01*
X151332000Y-121562484D01*
X151332000Y-121769516D01*
X151291611Y-121972564D01*
X151212385Y-122163833D01*
X151212384Y-122163835D01*
X151097365Y-122335973D01*
X150950973Y-122482365D01*
X150778835Y-122597384D01*
X150778834Y-122597385D01*
X150778833Y-122597385D01*
X150587564Y-122676611D01*
X150384516Y-122717000D01*
X150177484Y-122717000D01*
X149974436Y-122676611D01*
X149783167Y-122597385D01*
X149783166Y-122597385D01*
X149783165Y-122597384D01*
X149611027Y-122482365D01*
X149464635Y-122335973D01*
X149349616Y-122163835D01*
X149349615Y-122163833D01*
X149270389Y-121972564D01*
X149230000Y-121769516D01*
X149230000Y-121562484D01*
X149270389Y-121359436D01*
X149349615Y-121168167D01*
X149464635Y-120996027D01*
X149611027Y-120849635D01*
X149783165Y-120734616D01*
X149783167Y-120734615D01*
X149974436Y-120655389D01*
X150177484Y-120615000D01*
X150384516Y-120615000D01*
X150587564Y-120655389D01*
X150587564Y-120655389D01*
G37*
G36*
X172975601Y-117227840D02*
G01*
X173239665Y-117337219D01*
X173477318Y-117496014D01*
X173679426Y-117698122D01*
X173838221Y-117935775D01*
X173947600Y-118199839D01*
X174003360Y-118480168D01*
X174003360Y-118765992D01*
X173947600Y-119046321D01*
X173838221Y-119310385D01*
X173679426Y-119548038D01*
X173477318Y-119750146D01*
X173239665Y-119908941D01*
X172975601Y-120018320D01*
X172695272Y-120074080D01*
X172409448Y-120074080D01*
X172129119Y-120018320D01*
X171865055Y-119908941D01*
X171627402Y-119750146D01*
X171425294Y-119548038D01*
X171266499Y-119310385D01*
X171157120Y-119046321D01*
X171101360Y-118765992D01*
X171101360Y-118480168D01*
X171157120Y-118199839D01*
X171266499Y-117935775D01*
X171425294Y-117698122D01*
X171627402Y-117496014D01*
X171865055Y-117337219D01*
X172129119Y-117227840D01*
X172409448Y-117172080D01*
X172695272Y-117172080D01*
X172975601Y-117227840D01*
X172975601Y-117227840D01*
G37*
G36*
X122175601Y-116973840D02*
G01*
X122439665Y-117083219D01*
X122677318Y-117242014D01*
X122879426Y-117444122D01*
X123038221Y-117681775D01*
X123147600Y-117945839D01*
X123203360Y-118226168D01*
X123203360Y-118511992D01*
X123147600Y-118792321D01*
X123038221Y-119056385D01*
X122879426Y-119294038D01*
X122677318Y-119496146D01*
X122439665Y-119654941D01*
X122175601Y-119764320D01*
X121895272Y-119820080D01*
X121609448Y-119820080D01*
X121329119Y-119764320D01*
X121065055Y-119654941D01*
X120827402Y-119496146D01*
X120625294Y-119294038D01*
X120466499Y-119056385D01*
X120357120Y-118792321D01*
X120301360Y-118511992D01*
X120301360Y-118226168D01*
X120357120Y-117945839D01*
X120466499Y-117681775D01*
X120625294Y-117444122D01*
X120827402Y-117242014D01*
X121065055Y-117083219D01*
X121329119Y-116973840D01*
X121609448Y-116918080D01*
X121895272Y-116918080D01*
X122175601Y-116973840D01*
X122175601Y-116973840D01*
G37*
G36*
X177979564Y-117629389D02*
G01*
X178170833Y-117708615D01*
X178170835Y-117708616D01*
X178181926Y-117716027D01*
X178342973Y-117823635D01*
X178489365Y-117970027D01*
X178604385Y-118142167D01*
X178683611Y-118333436D01*
X178724000Y-118536484D01*
X178724000Y-118743516D01*
X178683611Y-118946564D01*
X178638121Y-119056386D01*
X178604384Y-119137835D01*
X178489365Y-119309973D01*
X178342973Y-119456365D01*
X178170835Y-119571384D01*
X178170834Y-119571385D01*
X178170833Y-119571385D01*
X177979564Y-119650611D01*
X177776516Y-119691000D01*
X177569484Y-119691000D01*
X177366436Y-119650611D01*
X177175167Y-119571385D01*
X177175166Y-119571385D01*
X177175165Y-119571384D01*
X177003027Y-119456365D01*
X176856635Y-119309973D01*
X176741616Y-119137835D01*
X176707879Y-119056386D01*
X176662389Y-118946564D01*
X176622000Y-118743516D01*
X176622000Y-118536484D01*
X176662389Y-118333436D01*
X176741615Y-118142167D01*
X176856635Y-117970027D01*
X177003027Y-117823635D01*
X177164074Y-117716027D01*
X177175165Y-117708616D01*
X177175167Y-117708615D01*
X177366436Y-117629389D01*
X177569484Y-117589000D01*
X177776516Y-117589000D01*
X177979564Y-117629389D01*
X177979564Y-117629389D01*
G37*
G36*
X127179564Y-117375389D02*
G01*
X127370833Y-117454615D01*
X127370835Y-117454616D01*
X127432791Y-117496014D01*
X127542973Y-117569635D01*
X127689365Y-117716027D01*
X127804385Y-117888167D01*
X127883611Y-118079436D01*
X127924000Y-118282484D01*
X127924000Y-118489516D01*
X127883611Y-118692564D01*
X127853196Y-118765992D01*
X127804384Y-118883835D01*
X127689365Y-119055973D01*
X127542973Y-119202365D01*
X127370835Y-119317384D01*
X127370834Y-119317385D01*
X127370833Y-119317385D01*
X127179564Y-119396611D01*
X126976516Y-119437000D01*
X126769484Y-119437000D01*
X126566436Y-119396611D01*
X126375167Y-119317385D01*
X126375166Y-119317385D01*
X126375165Y-119317384D01*
X126203027Y-119202365D01*
X126056635Y-119055973D01*
X125941616Y-118883835D01*
X125892804Y-118765992D01*
X125862389Y-118692564D01*
X125822000Y-118489516D01*
X125822000Y-118282484D01*
X125862389Y-118079436D01*
X125941615Y-117888167D01*
X126056635Y-117716027D01*
X126203027Y-117569635D01*
X126313209Y-117496014D01*
X126375165Y-117454616D01*
X126375167Y-117454615D01*
X126566436Y-117375389D01*
X126769484Y-117335000D01*
X126976516Y-117335000D01*
X127179564Y-117375389D01*
X127179564Y-117375389D01*
G37*
G36*
X179325601Y-114687840D02*
G01*
X179589665Y-114797219D01*
X179827318Y-114956014D01*
X180029426Y-115158122D01*
X180188221Y-115395775D01*
X180297600Y-115659839D01*
X180353360Y-115940168D01*
X180353360Y-116225992D01*
X180297600Y-116506321D01*
X180188221Y-116770385D01*
X180029426Y-117008038D01*
X179827318Y-117210146D01*
X179589665Y-117368941D01*
X179325601Y-117478320D01*
X179045272Y-117534080D01*
X178759448Y-117534080D01*
X178479119Y-117478320D01*
X178215055Y-117368941D01*
X177977402Y-117210146D01*
X177775294Y-117008038D01*
X177616499Y-116770385D01*
X177507120Y-116506321D01*
X177451360Y-116225992D01*
X177451360Y-115940168D01*
X177507120Y-115659839D01*
X177616499Y-115395775D01*
X177775294Y-115158122D01*
X177977402Y-114956014D01*
X178215055Y-114797219D01*
X178479119Y-114687840D01*
X178759448Y-114632080D01*
X179045272Y-114632080D01*
X179325601Y-114687840D01*
X179325601Y-114687840D01*
G37*
G36*
X128525601Y-114433840D02*
G01*
X128789665Y-114543219D01*
X129027318Y-114702014D01*
X129229426Y-114904122D01*
X129388221Y-115141775D01*
X129497600Y-115405839D01*
X129553360Y-115686168D01*
X129553360Y-115971992D01*
X129497600Y-116252321D01*
X129388221Y-116516385D01*
X129229426Y-116754038D01*
X129027318Y-116956146D01*
X128789665Y-117114941D01*
X128525601Y-117224320D01*
X128245272Y-117280080D01*
X127959448Y-117280080D01*
X127679119Y-117224320D01*
X127415055Y-117114941D01*
X127177402Y-116956146D01*
X126975294Y-116754038D01*
X126816499Y-116516385D01*
X126707120Y-116252321D01*
X126651360Y-115971992D01*
X126651360Y-115686168D01*
X126707120Y-115405839D01*
X126816499Y-115141775D01*
X126975294Y-114904122D01*
X127177402Y-114702014D01*
X127415055Y-114543219D01*
X127679119Y-114433840D01*
X127959448Y-114378080D01*
X128245272Y-114378080D01*
X128525601Y-114433840D01*
X128525601Y-114433840D01*
G37*
G36*
X133718500Y-116573500D02*
G01*
X131965500Y-116573500D01*
X131965500Y-114820500D01*
X133718500Y-114820500D01*
X133718500Y-116573500D01*
X133718500Y-116573500D01*
G37*
G36*
X167754500Y-116446500D02*
G01*
X166001500Y-116446500D01*
X166001500Y-114693500D01*
X167754500Y-114693500D01*
X167754500Y-116446500D01*
X167754500Y-116446500D01*
G37*
G36*
X175690614Y-111570898D02*
G01*
X175992550Y-111695964D01*
X176063873Y-111725507D01*
X176399796Y-111949964D01*
X176685476Y-112235644D01*
X176899872Y-112556509D01*
X176909934Y-112571569D01*
X177064542Y-112944826D01*
X177143360Y-113341073D01*
X177143360Y-113745087D01*
X177064542Y-114141334D01*
X176909934Y-114514591D01*
X176909933Y-114514593D01*
X176685476Y-114850516D01*
X176399796Y-115136196D01*
X176063873Y-115360653D01*
X176063872Y-115360654D01*
X176063871Y-115360654D01*
X175690614Y-115515262D01*
X175294367Y-115594080D01*
X174890353Y-115594080D01*
X174494106Y-115515262D01*
X174120849Y-115360654D01*
X174120848Y-115360654D01*
X174120847Y-115360653D01*
X173784924Y-115136196D01*
X173499244Y-114850516D01*
X173274787Y-114514593D01*
X173274786Y-114514591D01*
X173120178Y-114141334D01*
X173041360Y-113745087D01*
X173041360Y-113341073D01*
X173120178Y-112944826D01*
X173274786Y-112571569D01*
X173284849Y-112556509D01*
X173499244Y-112235644D01*
X173784924Y-111949964D01*
X174120847Y-111725507D01*
X174192170Y-111695964D01*
X174494106Y-111570898D01*
X174890353Y-111492080D01*
X175294367Y-111492080D01*
X175690614Y-111570898D01*
X175690614Y-111570898D01*
G37*
G36*
X124890614Y-111316898D02*
G01*
X125263871Y-111471506D01*
X125263873Y-111471507D01*
X125599796Y-111695964D01*
X125885476Y-111981644D01*
X126099872Y-112302509D01*
X126109934Y-112317569D01*
X126264542Y-112690826D01*
X126343360Y-113087073D01*
X126343360Y-113491087D01*
X126264542Y-113887334D01*
X126109934Y-114260591D01*
X126109933Y-114260593D01*
X125885476Y-114596516D01*
X125599796Y-114882196D01*
X125263873Y-115106653D01*
X125263872Y-115106654D01*
X125263871Y-115106654D01*
X124890614Y-115261262D01*
X124494367Y-115340080D01*
X124090353Y-115340080D01*
X123694106Y-115261262D01*
X123320849Y-115106654D01*
X123320848Y-115106654D01*
X123320847Y-115106653D01*
X122984924Y-114882196D01*
X122699244Y-114596516D01*
X122474787Y-114260593D01*
X122474786Y-114260591D01*
X122320178Y-113887334D01*
X122241360Y-113491087D01*
X122241360Y-113087073D01*
X122320178Y-112690826D01*
X122474786Y-112317569D01*
X122484849Y-112302509D01*
X122699244Y-111981644D01*
X122984924Y-111695964D01*
X123320847Y-111471507D01*
X123320849Y-111471506D01*
X123694106Y-111316898D01*
X124090353Y-111238080D01*
X124494367Y-111238080D01*
X124890614Y-111316898D01*
X124890614Y-111316898D01*
G37*
G36*
X180471632Y-112556508D02*
G01*
X180658351Y-112633850D01*
X180658353Y-112633851D01*
X180826397Y-112746134D01*
X180969306Y-112889043D01*
X181077482Y-113050941D01*
X181081590Y-113057089D01*
X181158932Y-113243808D01*
X181198360Y-113442027D01*
X181198360Y-113644133D01*
X181158932Y-113842352D01*
X181081590Y-114029071D01*
X181081589Y-114029073D01*
X180969306Y-114197117D01*
X180826397Y-114340026D01*
X180658353Y-114452309D01*
X180658352Y-114452310D01*
X180658351Y-114452310D01*
X180471632Y-114529652D01*
X180273413Y-114569080D01*
X180071307Y-114569080D01*
X179873088Y-114529652D01*
X179686369Y-114452310D01*
X179686368Y-114452310D01*
X179686367Y-114452309D01*
X179518323Y-114340026D01*
X179375414Y-114197117D01*
X179263131Y-114029073D01*
X179263130Y-114029071D01*
X179185788Y-113842352D01*
X179146360Y-113644133D01*
X179146360Y-113442027D01*
X179185788Y-113243808D01*
X179263130Y-113057089D01*
X179267238Y-113050941D01*
X179375414Y-112889043D01*
X179518323Y-112746134D01*
X179686367Y-112633851D01*
X179686369Y-112633850D01*
X179873088Y-112556508D01*
X180071307Y-112517080D01*
X180273413Y-112517080D01*
X180471632Y-112556508D01*
X180471632Y-112556508D01*
G37*
G36*
X170311632Y-112556508D02*
G01*
X170498351Y-112633850D01*
X170498353Y-112633851D01*
X170666397Y-112746134D01*
X170809306Y-112889043D01*
X170917482Y-113050941D01*
X170921590Y-113057089D01*
X170998932Y-113243808D01*
X171038360Y-113442027D01*
X171038360Y-113644133D01*
X170998932Y-113842352D01*
X170921590Y-114029071D01*
X170921589Y-114029073D01*
X170809306Y-114197117D01*
X170666397Y-114340026D01*
X170498353Y-114452309D01*
X170498352Y-114452310D01*
X170498351Y-114452310D01*
X170311632Y-114529652D01*
X170113413Y-114569080D01*
X169911307Y-114569080D01*
X169713088Y-114529652D01*
X169526369Y-114452310D01*
X169526368Y-114452310D01*
X169526367Y-114452309D01*
X169358323Y-114340026D01*
X169215414Y-114197117D01*
X169103131Y-114029073D01*
X169103130Y-114029071D01*
X169025788Y-113842352D01*
X168986360Y-113644133D01*
X168986360Y-113442027D01*
X169025788Y-113243808D01*
X169103130Y-113057089D01*
X169107238Y-113050941D01*
X169215414Y-112889043D01*
X169358323Y-112746134D01*
X169526367Y-112633851D01*
X169526369Y-112633850D01*
X169713088Y-112556508D01*
X169911307Y-112517080D01*
X170113413Y-112517080D01*
X170311632Y-112556508D01*
X170311632Y-112556508D01*
G37*
G36*
X129671632Y-112302508D02*
G01*
X129858351Y-112379850D01*
X129858353Y-112379851D01*
X130026397Y-112492134D01*
X130169306Y-112635043D01*
X130274589Y-112792611D01*
X130281590Y-112803089D01*
X130358932Y-112989808D01*
X130398360Y-113188027D01*
X130398360Y-113390133D01*
X130358932Y-113588352D01*
X130294010Y-113745086D01*
X130281589Y-113775073D01*
X130169306Y-113943117D01*
X130026397Y-114086026D01*
X129858353Y-114198309D01*
X129858352Y-114198310D01*
X129858351Y-114198310D01*
X129671632Y-114275652D01*
X129473413Y-114315080D01*
X129271307Y-114315080D01*
X129073088Y-114275652D01*
X128886369Y-114198310D01*
X128886368Y-114198310D01*
X128886367Y-114198309D01*
X128718323Y-114086026D01*
X128575414Y-113943117D01*
X128463131Y-113775073D01*
X128450710Y-113745086D01*
X128385788Y-113588352D01*
X128346360Y-113390133D01*
X128346360Y-113188027D01*
X128385788Y-112989808D01*
X128463130Y-112803089D01*
X128470131Y-112792611D01*
X128575414Y-112635043D01*
X128718323Y-112492134D01*
X128886367Y-112379851D01*
X128886369Y-112379850D01*
X129073088Y-112302508D01*
X129271307Y-112263080D01*
X129473413Y-112263080D01*
X129671632Y-112302508D01*
X129671632Y-112302508D01*
G37*
G36*
X119511632Y-112302508D02*
G01*
X119698351Y-112379850D01*
X119698353Y-112379851D01*
X119866397Y-112492134D01*
X120009306Y-112635043D01*
X120114589Y-112792611D01*
X120121590Y-112803089D01*
X120198932Y-112989808D01*
X120238360Y-113188027D01*
X120238360Y-113390133D01*
X120198932Y-113588352D01*
X120134010Y-113745086D01*
X120121589Y-113775073D01*
X120009306Y-113943117D01*
X119866397Y-114086026D01*
X119698353Y-114198309D01*
X119698352Y-114198310D01*
X119698351Y-114198310D01*
X119511632Y-114275652D01*
X119313413Y-114315080D01*
X119111307Y-114315080D01*
X118913088Y-114275652D01*
X118726369Y-114198310D01*
X118726368Y-114198310D01*
X118726367Y-114198309D01*
X118558323Y-114086026D01*
X118415414Y-113943117D01*
X118303131Y-113775073D01*
X118290710Y-113745086D01*
X118225788Y-113588352D01*
X118186360Y-113390133D01*
X118186360Y-113188027D01*
X118225788Y-112989808D01*
X118303130Y-112803089D01*
X118310131Y-112792611D01*
X118415414Y-112635043D01*
X118558323Y-112492134D01*
X118726367Y-112379851D01*
X118726369Y-112379850D01*
X118913088Y-112302508D01*
X119111307Y-112263080D01*
X119313413Y-112263080D01*
X119511632Y-112302508D01*
X119511632Y-112302508D01*
G37*
G36*
X147702601Y-110369840D02*
G01*
X147966665Y-110479219D01*
X148204318Y-110638014D01*
X148406426Y-110840122D01*
X148565221Y-111077775D01*
X148674600Y-111341839D01*
X148730360Y-111622168D01*
X148730360Y-111907992D01*
X148674600Y-112188321D01*
X148565221Y-112452385D01*
X148406426Y-112690038D01*
X148204318Y-112892146D01*
X147966665Y-113050941D01*
X147702601Y-113160320D01*
X147422272Y-113216080D01*
X147136448Y-113216080D01*
X146856119Y-113160320D01*
X146592055Y-113050941D01*
X146354402Y-112892146D01*
X146152294Y-112690038D01*
X145993499Y-112452385D01*
X145884120Y-112188321D01*
X145828360Y-111907992D01*
X145828360Y-111622168D01*
X145884120Y-111341839D01*
X145993499Y-111077775D01*
X146152294Y-110840122D01*
X146354402Y-110638014D01*
X146592055Y-110479219D01*
X146856119Y-110369840D01*
X147136448Y-110314080D01*
X147422272Y-110314080D01*
X147702601Y-110369840D01*
X147702601Y-110369840D01*
G37*
G36*
X152706564Y-110771389D02*
G01*
X152897833Y-110850615D01*
X152897835Y-110850616D01*
X153069973Y-110965635D01*
X153216365Y-111112027D01*
X153331385Y-111284167D01*
X153410611Y-111475436D01*
X153451000Y-111678484D01*
X153451000Y-111885516D01*
X153410611Y-112088564D01*
X153338324Y-112263080D01*
X153331384Y-112279835D01*
X153216365Y-112451973D01*
X153069973Y-112598365D01*
X152897835Y-112713384D01*
X152897834Y-112713385D01*
X152897833Y-112713385D01*
X152706564Y-112792611D01*
X152503516Y-112833000D01*
X152296484Y-112833000D01*
X152093436Y-112792611D01*
X151902167Y-112713385D01*
X151902166Y-112713385D01*
X151902165Y-112713384D01*
X151730027Y-112598365D01*
X151583635Y-112451973D01*
X151468616Y-112279835D01*
X151461676Y-112263080D01*
X151389389Y-112088564D01*
X151349000Y-111885516D01*
X151349000Y-111678484D01*
X151389389Y-111475436D01*
X151468615Y-111284167D01*
X151583635Y-111112027D01*
X151730027Y-110965635D01*
X151902165Y-110850616D01*
X151902167Y-110850615D01*
X152093436Y-110771389D01*
X152296484Y-110731000D01*
X152503516Y-110731000D01*
X152706564Y-110771389D01*
X152706564Y-110771389D01*
G37*
G36*
X154052601Y-107829840D02*
G01*
X154316665Y-107939219D01*
X154554318Y-108098014D01*
X154756426Y-108300122D01*
X154915221Y-108537775D01*
X155024600Y-108801839D01*
X155080360Y-109082168D01*
X155080360Y-109367992D01*
X155024600Y-109648321D01*
X154915221Y-109912385D01*
X154756426Y-110150038D01*
X154554318Y-110352146D01*
X154316665Y-110510941D01*
X154052601Y-110620320D01*
X153772272Y-110676080D01*
X153486448Y-110676080D01*
X153206119Y-110620320D01*
X152942055Y-110510941D01*
X152704402Y-110352146D01*
X152502294Y-110150038D01*
X152343499Y-109912385D01*
X152234120Y-109648321D01*
X152178360Y-109367992D01*
X152178360Y-109082168D01*
X152234120Y-108801839D01*
X152343499Y-108537775D01*
X152502294Y-108300122D01*
X152704402Y-108098014D01*
X152942055Y-107939219D01*
X153206119Y-107829840D01*
X153486448Y-107774080D01*
X153772272Y-107774080D01*
X154052601Y-107829840D01*
X154052601Y-107829840D01*
G37*
G36*
X133012997Y-107217341D02*
G01*
X133097666Y-107234183D01*
X133163738Y-107261551D01*
X133257177Y-107300255D01*
X133400736Y-107396178D01*
X133522822Y-107518264D01*
X133618745Y-107661823D01*
X133684817Y-107821335D01*
X133708266Y-107939219D01*
X133718500Y-107990672D01*
X133718500Y-108163328D01*
X133691291Y-108300121D01*
X133684817Y-108332665D01*
X133618745Y-108492177D01*
X133522822Y-108635736D01*
X133400736Y-108757822D01*
X133257177Y-108853745D01*
X133163738Y-108892449D01*
X133097666Y-108919817D01*
X133012997Y-108936658D01*
X132928329Y-108953500D01*
X132755671Y-108953500D01*
X132671003Y-108936658D01*
X132586334Y-108919817D01*
X132520262Y-108892449D01*
X132426823Y-108853745D01*
X132283264Y-108757822D01*
X132161178Y-108635736D01*
X132065255Y-108492177D01*
X131999183Y-108332665D01*
X131992710Y-108300121D01*
X131965500Y-108163328D01*
X131965500Y-107990672D01*
X131975735Y-107939219D01*
X131999183Y-107821335D01*
X132065255Y-107661823D01*
X132161178Y-107518264D01*
X132283264Y-107396178D01*
X132426823Y-107300255D01*
X132520262Y-107261551D01*
X132586334Y-107234183D01*
X132671003Y-107217341D01*
X132755671Y-107200500D01*
X132928329Y-107200500D01*
X133012997Y-107217341D01*
X133012997Y-107217341D01*
G37*
G36*
X167048997Y-107090342D02*
G01*
X167133666Y-107107183D01*
X167199738Y-107134551D01*
X167293177Y-107173255D01*
X167436736Y-107269178D01*
X167558822Y-107391264D01*
X167654745Y-107534823D01*
X167679385Y-107594309D01*
X167711422Y-107671652D01*
X167720817Y-107694335D01*
X167754500Y-107863671D01*
X167754500Y-108036329D01*
X167720817Y-108205665D01*
X167654745Y-108365177D01*
X167558822Y-108508736D01*
X167436736Y-108630822D01*
X167293177Y-108726745D01*
X167218150Y-108757822D01*
X167133666Y-108792817D01*
X167048997Y-108809658D01*
X166964329Y-108826500D01*
X166791671Y-108826500D01*
X166707003Y-108809658D01*
X166622334Y-108792817D01*
X166537850Y-108757822D01*
X166462823Y-108726745D01*
X166319264Y-108630822D01*
X166197178Y-108508736D01*
X166101255Y-108365177D01*
X166035183Y-108205665D01*
X166001500Y-108036329D01*
X166001500Y-107863671D01*
X166035183Y-107694335D01*
X166044579Y-107671652D01*
X166076615Y-107594309D01*
X166101255Y-107534823D01*
X166197178Y-107391264D01*
X166319264Y-107269178D01*
X166462823Y-107173255D01*
X166556262Y-107134551D01*
X166622334Y-107107183D01*
X166707003Y-107090342D01*
X166791671Y-107073500D01*
X166964329Y-107073500D01*
X167048997Y-107090342D01*
X167048997Y-107090342D01*
G37*
G36*
X158356500Y-108826500D02*
G01*
X156603500Y-108826500D01*
X156603500Y-107073500D01*
X158356500Y-107073500D01*
X158356500Y-108826500D01*
X158356500Y-108826500D01*
G37*
G36*
X150417614Y-104712898D02*
G01*
X150790871Y-104867506D01*
X150790873Y-104867507D01*
X151126796Y-105091964D01*
X151412476Y-105377644D01*
X151626872Y-105698509D01*
X151636934Y-105713569D01*
X151791542Y-106086826D01*
X151870360Y-106483073D01*
X151870360Y-106887087D01*
X151791542Y-107283334D01*
X151636934Y-107656591D01*
X151636933Y-107656593D01*
X151412476Y-107992516D01*
X151126796Y-108278196D01*
X150790873Y-108502653D01*
X150790872Y-108502654D01*
X150790871Y-108502654D01*
X150417614Y-108657262D01*
X150021367Y-108736080D01*
X149617353Y-108736080D01*
X149221106Y-108657262D01*
X148847849Y-108502654D01*
X148847848Y-108502654D01*
X148847847Y-108502653D01*
X148511924Y-108278196D01*
X148226244Y-107992516D01*
X148001787Y-107656593D01*
X148001786Y-107656591D01*
X147847178Y-107283334D01*
X147768360Y-106887087D01*
X147768360Y-106483073D01*
X147847178Y-106086826D01*
X148001786Y-105713569D01*
X148011849Y-105698509D01*
X148226244Y-105377644D01*
X148511924Y-105091964D01*
X148847847Y-104867507D01*
X148847849Y-104867506D01*
X149221106Y-104712898D01*
X149617353Y-104634080D01*
X150021367Y-104634080D01*
X150417614Y-104712898D01*
X150417614Y-104712898D01*
G37*
G36*
X155198632Y-105698508D02*
G01*
X155385351Y-105775850D01*
X155385353Y-105775851D01*
X155553397Y-105888134D01*
X155696306Y-106031043D01*
X155808589Y-106199087D01*
X155808590Y-106199089D01*
X155885932Y-106385808D01*
X155925360Y-106584027D01*
X155925360Y-106786133D01*
X155885932Y-106984352D01*
X155849005Y-107073500D01*
X155808589Y-107171073D01*
X155696306Y-107339117D01*
X155553397Y-107482026D01*
X155385353Y-107594309D01*
X155385352Y-107594310D01*
X155385351Y-107594310D01*
X155198632Y-107671652D01*
X155000413Y-107711080D01*
X154798307Y-107711080D01*
X154600088Y-107671652D01*
X154413369Y-107594310D01*
X154413368Y-107594310D01*
X154413367Y-107594309D01*
X154245323Y-107482026D01*
X154102414Y-107339117D01*
X153990131Y-107171073D01*
X153949715Y-107073500D01*
X153912788Y-106984352D01*
X153873360Y-106786133D01*
X153873360Y-106584027D01*
X153912788Y-106385808D01*
X153990130Y-106199089D01*
X153990131Y-106199087D01*
X154102414Y-106031043D01*
X154245323Y-105888134D01*
X154413367Y-105775851D01*
X154413369Y-105775850D01*
X154600088Y-105698508D01*
X154798307Y-105659080D01*
X155000413Y-105659080D01*
X155198632Y-105698508D01*
X155198632Y-105698508D01*
G37*
G36*
X145038632Y-105698508D02*
G01*
X145225351Y-105775850D01*
X145225353Y-105775851D01*
X145393397Y-105888134D01*
X145536306Y-106031043D01*
X145648589Y-106199087D01*
X145648590Y-106199089D01*
X145725932Y-106385808D01*
X145765360Y-106584027D01*
X145765360Y-106786133D01*
X145725932Y-106984352D01*
X145689005Y-107073500D01*
X145648589Y-107171073D01*
X145536306Y-107339117D01*
X145393397Y-107482026D01*
X145225353Y-107594309D01*
X145225352Y-107594310D01*
X145225351Y-107594310D01*
X145038632Y-107671652D01*
X144840413Y-107711080D01*
X144638307Y-107711080D01*
X144440088Y-107671652D01*
X144253369Y-107594310D01*
X144253368Y-107594310D01*
X144253367Y-107594309D01*
X144085323Y-107482026D01*
X143942414Y-107339117D01*
X143830131Y-107171073D01*
X143789715Y-107073500D01*
X143752788Y-106984352D01*
X143713360Y-106786133D01*
X143713360Y-106584027D01*
X143752788Y-106385808D01*
X143830130Y-106199089D01*
X143830131Y-106199087D01*
X143942414Y-106031043D01*
X144085323Y-105888134D01*
X144253367Y-105775851D01*
X144253369Y-105775850D01*
X144440088Y-105698508D01*
X144638307Y-105659080D01*
X144840413Y-105659080D01*
X145038632Y-105698508D01*
X145038632Y-105698508D01*
G37*
G36*
X175479564Y-103129389D02*
G01*
X175670833Y-103208615D01*
X175670835Y-103208616D01*
X175681926Y-103216027D01*
X175842973Y-103323635D01*
X175989365Y-103470027D01*
X176104385Y-103642167D01*
X176183611Y-103833436D01*
X176224000Y-104036484D01*
X176224000Y-104243516D01*
X176183611Y-104446564D01*
X176104385Y-104637833D01*
X176104384Y-104637835D01*
X175989365Y-104809973D01*
X175842973Y-104956365D01*
X175670835Y-105071384D01*
X175670834Y-105071385D01*
X175670833Y-105071385D01*
X175479564Y-105150611D01*
X175276516Y-105191000D01*
X175069484Y-105191000D01*
X174866436Y-105150611D01*
X174675167Y-105071385D01*
X174675166Y-105071385D01*
X174675165Y-105071384D01*
X174503027Y-104956365D01*
X174356635Y-104809973D01*
X174241616Y-104637835D01*
X174241615Y-104637833D01*
X174162389Y-104446564D01*
X174122000Y-104243516D01*
X174122000Y-104036484D01*
X174162389Y-103833436D01*
X174241615Y-103642167D01*
X174356635Y-103470027D01*
X174503027Y-103323635D01*
X174664074Y-103216027D01*
X174675165Y-103208616D01*
X174675167Y-103208615D01*
X174866436Y-103129389D01*
X175069484Y-103089000D01*
X175276516Y-103089000D01*
X175479564Y-103129389D01*
X175479564Y-103129389D01*
G37*
G36*
X172979564Y-103129389D02*
G01*
X173170833Y-103208615D01*
X173170835Y-103208616D01*
X173181926Y-103216027D01*
X173342973Y-103323635D01*
X173489365Y-103470027D01*
X173604385Y-103642167D01*
X173683611Y-103833436D01*
X173724000Y-104036484D01*
X173724000Y-104243516D01*
X173683611Y-104446564D01*
X173604385Y-104637833D01*
X173604384Y-104637835D01*
X173489365Y-104809973D01*
X173342973Y-104956365D01*
X173170835Y-105071384D01*
X173170834Y-105071385D01*
X173170833Y-105071385D01*
X172979564Y-105150611D01*
X172776516Y-105191000D01*
X172569484Y-105191000D01*
X172366436Y-105150611D01*
X172175167Y-105071385D01*
X172175166Y-105071385D01*
X172175165Y-105071384D01*
X172003027Y-104956365D01*
X171856635Y-104809973D01*
X171741616Y-104637835D01*
X171741615Y-104637833D01*
X171662389Y-104446564D01*
X171622000Y-104243516D01*
X171622000Y-104036484D01*
X171662389Y-103833436D01*
X171741615Y-103642167D01*
X171856635Y-103470027D01*
X172003027Y-103323635D01*
X172164074Y-103216027D01*
X172175165Y-103208616D01*
X172175167Y-103208615D01*
X172366436Y-103129389D01*
X172569484Y-103089000D01*
X172776516Y-103089000D01*
X172979564Y-103129389D01*
X172979564Y-103129389D01*
G37*
G36*
X177989724Y-103129389D02*
G01*
X178180993Y-103208615D01*
X178180995Y-103208616D01*
X178192086Y-103216027D01*
X178353133Y-103323635D01*
X178499525Y-103470027D01*
X178614545Y-103642167D01*
X178693771Y-103833436D01*
X178734160Y-104036484D01*
X178734160Y-104243516D01*
X178693771Y-104446564D01*
X178614545Y-104637833D01*
X178614544Y-104637835D01*
X178499525Y-104809973D01*
X178353133Y-104956365D01*
X178180995Y-105071384D01*
X178180994Y-105071385D01*
X178180993Y-105071385D01*
X177989724Y-105150611D01*
X177786676Y-105191000D01*
X177579644Y-105191000D01*
X177376596Y-105150611D01*
X177185327Y-105071385D01*
X177185326Y-105071385D01*
X177185325Y-105071384D01*
X177013187Y-104956365D01*
X176866795Y-104809973D01*
X176751776Y-104637835D01*
X176751775Y-104637833D01*
X176672549Y-104446564D01*
X176632160Y-104243516D01*
X176632160Y-104036484D01*
X176672549Y-103833436D01*
X176751775Y-103642167D01*
X176866795Y-103470027D01*
X177013187Y-103323635D01*
X177174234Y-103216027D01*
X177185325Y-103208616D01*
X177185327Y-103208615D01*
X177376596Y-103129389D01*
X177579644Y-103089000D01*
X177786676Y-103089000D01*
X177989724Y-103129389D01*
X177989724Y-103129389D01*
G37*
G36*
X127189724Y-102875389D02*
G01*
X127380993Y-102954615D01*
X127380995Y-102954616D01*
X127553133Y-103069635D01*
X127699525Y-103216027D01*
X127814545Y-103388167D01*
X127893771Y-103579436D01*
X127934160Y-103782484D01*
X127934160Y-103989516D01*
X127893771Y-104192564D01*
X127872666Y-104243516D01*
X127814544Y-104383835D01*
X127699525Y-104555973D01*
X127553133Y-104702365D01*
X127380995Y-104817384D01*
X127380994Y-104817385D01*
X127380993Y-104817385D01*
X127189724Y-104896611D01*
X126986676Y-104937000D01*
X126779644Y-104937000D01*
X126576596Y-104896611D01*
X126385327Y-104817385D01*
X126385326Y-104817385D01*
X126385325Y-104817384D01*
X126213187Y-104702365D01*
X126066795Y-104555973D01*
X125951776Y-104383835D01*
X125893654Y-104243516D01*
X125872549Y-104192564D01*
X125832160Y-103989516D01*
X125832160Y-103782484D01*
X125872549Y-103579436D01*
X125951775Y-103388167D01*
X126066795Y-103216027D01*
X126213187Y-103069635D01*
X126385325Y-102954616D01*
X126385327Y-102954615D01*
X126576596Y-102875389D01*
X126779644Y-102835000D01*
X126986676Y-102835000D01*
X127189724Y-102875389D01*
X127189724Y-102875389D01*
G37*
G36*
X122179564Y-102875389D02*
G01*
X122370833Y-102954615D01*
X122370835Y-102954616D01*
X122542973Y-103069635D01*
X122689365Y-103216027D01*
X122804385Y-103388167D01*
X122883611Y-103579436D01*
X122924000Y-103782484D01*
X122924000Y-103989516D01*
X122883611Y-104192564D01*
X122862506Y-104243516D01*
X122804384Y-104383835D01*
X122689365Y-104555973D01*
X122542973Y-104702365D01*
X122370835Y-104817384D01*
X122370834Y-104817385D01*
X122370833Y-104817385D01*
X122179564Y-104896611D01*
X121976516Y-104937000D01*
X121769484Y-104937000D01*
X121566436Y-104896611D01*
X121375167Y-104817385D01*
X121375166Y-104817385D01*
X121375165Y-104817384D01*
X121203027Y-104702365D01*
X121056635Y-104555973D01*
X120941616Y-104383835D01*
X120883494Y-104243516D01*
X120862389Y-104192564D01*
X120822000Y-103989516D01*
X120822000Y-103782484D01*
X120862389Y-103579436D01*
X120941615Y-103388167D01*
X121056635Y-103216027D01*
X121203027Y-103069635D01*
X121375165Y-102954616D01*
X121375167Y-102954615D01*
X121566436Y-102875389D01*
X121769484Y-102835000D01*
X121976516Y-102835000D01*
X122179564Y-102875389D01*
X122179564Y-102875389D01*
G37*
G36*
X124679564Y-102875389D02*
G01*
X124870833Y-102954615D01*
X124870835Y-102954616D01*
X125042973Y-103069635D01*
X125189365Y-103216027D01*
X125304385Y-103388167D01*
X125383611Y-103579436D01*
X125424000Y-103782484D01*
X125424000Y-103989516D01*
X125383611Y-104192564D01*
X125362506Y-104243516D01*
X125304384Y-104383835D01*
X125189365Y-104555973D01*
X125042973Y-104702365D01*
X124870835Y-104817384D01*
X124870834Y-104817385D01*
X124870833Y-104817385D01*
X124679564Y-104896611D01*
X124476516Y-104937000D01*
X124269484Y-104937000D01*
X124066436Y-104896611D01*
X123875167Y-104817385D01*
X123875166Y-104817385D01*
X123875165Y-104817384D01*
X123703027Y-104702365D01*
X123556635Y-104555973D01*
X123441616Y-104383835D01*
X123383494Y-104243516D01*
X123362389Y-104192564D01*
X123322000Y-103989516D01*
X123322000Y-103782484D01*
X123362389Y-103579436D01*
X123441615Y-103388167D01*
X123556635Y-103216027D01*
X123703027Y-103069635D01*
X123875165Y-102954616D01*
X123875167Y-102954615D01*
X124066436Y-102875389D01*
X124269484Y-102835000D01*
X124476516Y-102835000D01*
X124679564Y-102875389D01*
X124679564Y-102875389D01*
G37*
G36*
X183313652Y-99771264D02*
G01*
X183431634Y-99794732D01*
X183641103Y-99881497D01*
X183829620Y-100007460D01*
X183989940Y-100167780D01*
X184115903Y-100356297D01*
X184202668Y-100565766D01*
X184246900Y-100788136D01*
X184246900Y-101014864D01*
X184202668Y-101237234D01*
X184115903Y-101446703D01*
X183989940Y-101635220D01*
X183829620Y-101795540D01*
X183641103Y-101921503D01*
X183431634Y-102008268D01*
X183320449Y-102030384D01*
X183209265Y-102052500D01*
X182982535Y-102052500D01*
X182871351Y-102030384D01*
X182760166Y-102008268D01*
X182550697Y-101921503D01*
X182362180Y-101795540D01*
X182201860Y-101635220D01*
X182075897Y-101446703D01*
X181989132Y-101237234D01*
X181944900Y-101014864D01*
X181944900Y-100788136D01*
X181989132Y-100565766D01*
X182075897Y-100356297D01*
X182201860Y-100167780D01*
X182362180Y-100007460D01*
X182550697Y-99881497D01*
X182760166Y-99794732D01*
X182878148Y-99771264D01*
X182982535Y-99750500D01*
X183209265Y-99750500D01*
X183313652Y-99771264D01*
X183313652Y-99771264D01*
G37*
G36*
X116651352Y-99771264D02*
G01*
X116769334Y-99794732D01*
X116978803Y-99881497D01*
X117167320Y-100007460D01*
X117327640Y-100167780D01*
X117453603Y-100356297D01*
X117540368Y-100565766D01*
X117584600Y-100788136D01*
X117584600Y-101014864D01*
X117540368Y-101237234D01*
X117453603Y-101446703D01*
X117327640Y-101635220D01*
X117167320Y-101795540D01*
X116978803Y-101921503D01*
X116769334Y-102008268D01*
X116658149Y-102030384D01*
X116546965Y-102052500D01*
X116320235Y-102052500D01*
X116209051Y-102030384D01*
X116097866Y-102008268D01*
X115888397Y-101921503D01*
X115699880Y-101795540D01*
X115539560Y-101635220D01*
X115413597Y-101446703D01*
X115326832Y-101237234D01*
X115282600Y-101014864D01*
X115282600Y-100788136D01*
X115326832Y-100565766D01*
X115413597Y-100356297D01*
X115539560Y-100167780D01*
X115699880Y-100007460D01*
X115888397Y-99881497D01*
X116097866Y-99794732D01*
X116215848Y-99771264D01*
X116320235Y-99750500D01*
X116546965Y-99750500D01*
X116651352Y-99771264D01*
X116651352Y-99771264D01*
G37*
G36*
X157650997Y-99470342D02*
G01*
X157735666Y-99487183D01*
X157801738Y-99514551D01*
X157895177Y-99553255D01*
X158038736Y-99649178D01*
X158160822Y-99771264D01*
X158256745Y-99914823D01*
X158322817Y-100074335D01*
X158356500Y-100243671D01*
X158356500Y-100416329D01*
X158322817Y-100585665D01*
X158256745Y-100745177D01*
X158160822Y-100888736D01*
X158038736Y-101010822D01*
X157895177Y-101106745D01*
X157801738Y-101145449D01*
X157735666Y-101172817D01*
X157650997Y-101189659D01*
X157566329Y-101206500D01*
X157393671Y-101206500D01*
X157309003Y-101189659D01*
X157224334Y-101172817D01*
X157158262Y-101145449D01*
X157064823Y-101106745D01*
X156921264Y-101010822D01*
X156799178Y-100888736D01*
X156703255Y-100745177D01*
X156637183Y-100585665D01*
X156603500Y-100416329D01*
X156603500Y-100243671D01*
X156637183Y-100074335D01*
X156703255Y-99914823D01*
X156799178Y-99771264D01*
X156921264Y-99649178D01*
X157064823Y-99553255D01*
X157158262Y-99514551D01*
X157224334Y-99487183D01*
X157309003Y-99470341D01*
X157393671Y-99453500D01*
X157566329Y-99453500D01*
X157650997Y-99470342D01*
X157650997Y-99470342D01*
G37*
G36*
X157728228Y-96971703D02*
G01*
X157883100Y-97035853D01*
X158022481Y-97128985D01*
X158141015Y-97247519D01*
X158234147Y-97386900D01*
X158298297Y-97541772D01*
X158331000Y-97706184D01*
X158331000Y-97873816D01*
X158298297Y-98038228D01*
X158234147Y-98193100D01*
X158141015Y-98332481D01*
X158022481Y-98451015D01*
X157883100Y-98544147D01*
X157728228Y-98608297D01*
X157563816Y-98641000D01*
X157396184Y-98641000D01*
X157231772Y-98608297D01*
X157076900Y-98544147D01*
X156937519Y-98451015D01*
X156818985Y-98332481D01*
X156725853Y-98193100D01*
X156661703Y-98038228D01*
X156629000Y-97873816D01*
X156629000Y-97706184D01*
X156661703Y-97541772D01*
X156725853Y-97386900D01*
X156818985Y-97247519D01*
X156937519Y-97128985D01*
X157076900Y-97035853D01*
X157231772Y-96971703D01*
X157396184Y-96939000D01*
X157563816Y-96939000D01*
X157728228Y-96971703D01*
X157728228Y-96971703D01*
G37*
G36*
X142488228Y-96971703D02*
G01*
X142643100Y-97035853D01*
X142782481Y-97128985D01*
X142901015Y-97247519D01*
X142994147Y-97386900D01*
X143058297Y-97541772D01*
X143091000Y-97706184D01*
X143091000Y-97873816D01*
X143058297Y-98038228D01*
X142994147Y-98193100D01*
X142901015Y-98332481D01*
X142782481Y-98451015D01*
X142643100Y-98544147D01*
X142488228Y-98608297D01*
X142323816Y-98641000D01*
X142156184Y-98641000D01*
X141991772Y-98608297D01*
X141836900Y-98544147D01*
X141697519Y-98451015D01*
X141578985Y-98332481D01*
X141485853Y-98193100D01*
X141421703Y-98038228D01*
X141389000Y-97873816D01*
X141389000Y-97706184D01*
X141421703Y-97541772D01*
X141485853Y-97386900D01*
X141578985Y-97247519D01*
X141697519Y-97128985D01*
X141836900Y-97035853D01*
X141991772Y-96971703D01*
X142156184Y-96939000D01*
X142323816Y-96939000D01*
X142488228Y-96971703D01*
X142488228Y-96971703D01*
G37*
G36*
X147706564Y-96271389D02*
G01*
X147897833Y-96350615D01*
X147897835Y-96350616D01*
X148069973Y-96465635D01*
X148216365Y-96612027D01*
X148331385Y-96784167D01*
X148410611Y-96975436D01*
X148451000Y-97178484D01*
X148451000Y-97385516D01*
X148410611Y-97588564D01*
X148361891Y-97706184D01*
X148331384Y-97779835D01*
X148216365Y-97951973D01*
X148069973Y-98098365D01*
X147897835Y-98213384D01*
X147897834Y-98213385D01*
X147897833Y-98213385D01*
X147706564Y-98292611D01*
X147503516Y-98333000D01*
X147296484Y-98333000D01*
X147093436Y-98292611D01*
X146902167Y-98213385D01*
X146902166Y-98213385D01*
X146902165Y-98213384D01*
X146730027Y-98098365D01*
X146583635Y-97951973D01*
X146468616Y-97779835D01*
X146438109Y-97706184D01*
X146389389Y-97588564D01*
X146349000Y-97385516D01*
X146349000Y-97178484D01*
X146389389Y-96975436D01*
X146468615Y-96784167D01*
X146583635Y-96612027D01*
X146730027Y-96465635D01*
X146902165Y-96350616D01*
X146902167Y-96350615D01*
X147093436Y-96271389D01*
X147296484Y-96231000D01*
X147503516Y-96231000D01*
X147706564Y-96271389D01*
X147706564Y-96271389D01*
G37*
G36*
X150206564Y-96271389D02*
G01*
X150397833Y-96350615D01*
X150397835Y-96350616D01*
X150569973Y-96465635D01*
X150716365Y-96612027D01*
X150831385Y-96784167D01*
X150910611Y-96975436D01*
X150951000Y-97178484D01*
X150951000Y-97385516D01*
X150910611Y-97588564D01*
X150861891Y-97706184D01*
X150831384Y-97779835D01*
X150716365Y-97951973D01*
X150569973Y-98098365D01*
X150397835Y-98213384D01*
X150397834Y-98213385D01*
X150397833Y-98213385D01*
X150206564Y-98292611D01*
X150003516Y-98333000D01*
X149796484Y-98333000D01*
X149593436Y-98292611D01*
X149402167Y-98213385D01*
X149402166Y-98213385D01*
X149402165Y-98213384D01*
X149230027Y-98098365D01*
X149083635Y-97951973D01*
X148968616Y-97779835D01*
X148938109Y-97706184D01*
X148889389Y-97588564D01*
X148849000Y-97385516D01*
X148849000Y-97178484D01*
X148889389Y-96975436D01*
X148968615Y-96784167D01*
X149083635Y-96612027D01*
X149230027Y-96465635D01*
X149402165Y-96350616D01*
X149402167Y-96350615D01*
X149593436Y-96271389D01*
X149796484Y-96231000D01*
X150003516Y-96231000D01*
X150206564Y-96271389D01*
X150206564Y-96271389D01*
G37*
G36*
X152716724Y-96271389D02*
G01*
X152907993Y-96350615D01*
X152907995Y-96350616D01*
X153080133Y-96465635D01*
X153226525Y-96612027D01*
X153341545Y-96784167D01*
X153420771Y-96975436D01*
X153461160Y-97178484D01*
X153461160Y-97385516D01*
X153420771Y-97588564D01*
X153372051Y-97706184D01*
X153341544Y-97779835D01*
X153226525Y-97951973D01*
X153080133Y-98098365D01*
X152907995Y-98213384D01*
X152907994Y-98213385D01*
X152907993Y-98213385D01*
X152716724Y-98292611D01*
X152513676Y-98333000D01*
X152306644Y-98333000D01*
X152103596Y-98292611D01*
X151912327Y-98213385D01*
X151912326Y-98213385D01*
X151912325Y-98213384D01*
X151740187Y-98098365D01*
X151593795Y-97951973D01*
X151478776Y-97779835D01*
X151448269Y-97706184D01*
X151399549Y-97588564D01*
X151359160Y-97385516D01*
X151359160Y-97178484D01*
X151399549Y-96975436D01*
X151478775Y-96784167D01*
X151593795Y-96612027D01*
X151740187Y-96465635D01*
X151912325Y-96350616D01*
X151912327Y-96350615D01*
X152103596Y-96271389D01*
X152306644Y-96231000D01*
X152513676Y-96231000D01*
X152716724Y-96271389D01*
X152716724Y-96271389D01*
G37*
G36*
X157728228Y-94431703D02*
G01*
X157883100Y-94495853D01*
X158022481Y-94588985D01*
X158141015Y-94707519D01*
X158234147Y-94846900D01*
X158298297Y-95001772D01*
X158331000Y-95166184D01*
X158331000Y-95333816D01*
X158298297Y-95498228D01*
X158234147Y-95653100D01*
X158141015Y-95792481D01*
X158022481Y-95911015D01*
X157883100Y-96004147D01*
X157728228Y-96068297D01*
X157563816Y-96101000D01*
X157396184Y-96101000D01*
X157231772Y-96068297D01*
X157076900Y-96004147D01*
X156937519Y-95911015D01*
X156818985Y-95792481D01*
X156725853Y-95653100D01*
X156661703Y-95498228D01*
X156629000Y-95333816D01*
X156629000Y-95166184D01*
X156661703Y-95001772D01*
X156725853Y-94846900D01*
X156818985Y-94707519D01*
X156937519Y-94588985D01*
X157076900Y-94495853D01*
X157231772Y-94431703D01*
X157396184Y-94399000D01*
X157563816Y-94399000D01*
X157728228Y-94431703D01*
X157728228Y-94431703D01*
G37*
G36*
X142488228Y-94431703D02*
G01*
X142643100Y-94495853D01*
X142782481Y-94588985D01*
X142901015Y-94707519D01*
X142994147Y-94846900D01*
X143058297Y-95001772D01*
X143091000Y-95166184D01*
X143091000Y-95333816D01*
X143058297Y-95498228D01*
X142994147Y-95653100D01*
X142901015Y-95792481D01*
X142782481Y-95911015D01*
X142643100Y-96004147D01*
X142488228Y-96068297D01*
X142323816Y-96101000D01*
X142156184Y-96101000D01*
X141991772Y-96068297D01*
X141836900Y-96004147D01*
X141697519Y-95911015D01*
X141578985Y-95792481D01*
X141485853Y-95653100D01*
X141421703Y-95498228D01*
X141389000Y-95333816D01*
X141389000Y-95166184D01*
X141421703Y-95001772D01*
X141485853Y-94846900D01*
X141578985Y-94707519D01*
X141697519Y-94588985D01*
X141836900Y-94495853D01*
X141991772Y-94431703D01*
X142156184Y-94399000D01*
X142323816Y-94399000D01*
X142488228Y-94431703D01*
X142488228Y-94431703D01*
G37*
G36*
X142488228Y-91891703D02*
G01*
X142643100Y-91955853D01*
X142782481Y-92048985D01*
X142901015Y-92167519D01*
X142994147Y-92306900D01*
X143058297Y-92461772D01*
X143091000Y-92626184D01*
X143091000Y-92793816D01*
X143058297Y-92958228D01*
X142994147Y-93113100D01*
X142901015Y-93252481D01*
X142782481Y-93371015D01*
X142643100Y-93464147D01*
X142488228Y-93528297D01*
X142323816Y-93561000D01*
X142156184Y-93561000D01*
X141991772Y-93528297D01*
X141836900Y-93464147D01*
X141697519Y-93371015D01*
X141578985Y-93252481D01*
X141485853Y-93113100D01*
X141421703Y-92958228D01*
X141389000Y-92793816D01*
X141389000Y-92626184D01*
X141421703Y-92461772D01*
X141485853Y-92306900D01*
X141578985Y-92167519D01*
X141697519Y-92048985D01*
X141836900Y-91955853D01*
X141991772Y-91891703D01*
X142156184Y-91859000D01*
X142323816Y-91859000D01*
X142488228Y-91891703D01*
X142488228Y-91891703D01*
G37*
G36*
X157728228Y-91891703D02*
G01*
X157883100Y-91955853D01*
X158022481Y-92048985D01*
X158141015Y-92167519D01*
X158234147Y-92306900D01*
X158298297Y-92461772D01*
X158331000Y-92626184D01*
X158331000Y-92793816D01*
X158298297Y-92958228D01*
X158234147Y-93113100D01*
X158141015Y-93252481D01*
X158022481Y-93371015D01*
X157883100Y-93464147D01*
X157728228Y-93528297D01*
X157563816Y-93561000D01*
X157396184Y-93561000D01*
X157231772Y-93528297D01*
X157076900Y-93464147D01*
X156937519Y-93371015D01*
X156818985Y-93252481D01*
X156725853Y-93113100D01*
X156661703Y-92958228D01*
X156629000Y-92793816D01*
X156629000Y-92626184D01*
X156661703Y-92461772D01*
X156725853Y-92306900D01*
X156818985Y-92167519D01*
X156937519Y-92048985D01*
X157076900Y-91955853D01*
X157231772Y-91891703D01*
X157396184Y-91859000D01*
X157563816Y-91859000D01*
X157728228Y-91891703D01*
X157728228Y-91891703D01*
G37*
G36*
X164593601Y-89541840D02*
G01*
X164857665Y-89651219D01*
X165095318Y-89810014D01*
X165297426Y-90012122D01*
X165456221Y-90249775D01*
X165565600Y-90513839D01*
X165621360Y-90794168D01*
X165621360Y-91079992D01*
X165565600Y-91360321D01*
X165456221Y-91624385D01*
X165297426Y-91862038D01*
X165095318Y-92064146D01*
X164857665Y-92222941D01*
X164593601Y-92332320D01*
X164313272Y-92388080D01*
X164027448Y-92388080D01*
X163747119Y-92332320D01*
X163483055Y-92222941D01*
X163245402Y-92064146D01*
X163043294Y-91862038D01*
X162884499Y-91624385D01*
X162775120Y-91360321D01*
X162719360Y-91079992D01*
X162719360Y-90794168D01*
X162775120Y-90513839D01*
X162884499Y-90249775D01*
X163043294Y-90012122D01*
X163245402Y-89810014D01*
X163483055Y-89651219D01*
X163747119Y-89541840D01*
X164027448Y-89486080D01*
X164313272Y-89486080D01*
X164593601Y-89541840D01*
X164593601Y-89541840D01*
G37*
G36*
X128652601Y-89414840D02*
G01*
X128916665Y-89524219D01*
X129154318Y-89683014D01*
X129356426Y-89885122D01*
X129515221Y-90122775D01*
X129624600Y-90386839D01*
X129680360Y-90667168D01*
X129680360Y-90952992D01*
X129624600Y-91233321D01*
X129515221Y-91497385D01*
X129356426Y-91735038D01*
X129154318Y-91937146D01*
X128916665Y-92095941D01*
X128652601Y-92205320D01*
X128372272Y-92261080D01*
X128086448Y-92261080D01*
X127806119Y-92205320D01*
X127542055Y-92095941D01*
X127304402Y-91937146D01*
X127102294Y-91735038D01*
X126943499Y-91497385D01*
X126834120Y-91233321D01*
X126778360Y-90952992D01*
X126778360Y-90667168D01*
X126834120Y-90386839D01*
X126943499Y-90122775D01*
X127102294Y-89885122D01*
X127304402Y-89683014D01*
X127542055Y-89524219D01*
X127806119Y-89414840D01*
X128086448Y-89359080D01*
X128372272Y-89359080D01*
X128652601Y-89414840D01*
X128652601Y-89414840D01*
G37*
G36*
X169597564Y-89943389D02*
G01*
X169788833Y-90022615D01*
X169788835Y-90022616D01*
X169938732Y-90122774D01*
X169960973Y-90137635D01*
X170107365Y-90284027D01*
X170222385Y-90456167D01*
X170301611Y-90647436D01*
X170342000Y-90850484D01*
X170342000Y-91057516D01*
X170301611Y-91260564D01*
X170274990Y-91324833D01*
X170222384Y-91451835D01*
X170107365Y-91623973D01*
X169960973Y-91770365D01*
X169788835Y-91885384D01*
X169788834Y-91885385D01*
X169788833Y-91885385D01*
X169597564Y-91964611D01*
X169394516Y-92005000D01*
X169187484Y-92005000D01*
X168984436Y-91964611D01*
X168793167Y-91885385D01*
X168793166Y-91885385D01*
X168793165Y-91885384D01*
X168621027Y-91770365D01*
X168474635Y-91623973D01*
X168359616Y-91451835D01*
X168307010Y-91324833D01*
X168280389Y-91260564D01*
X168240000Y-91057516D01*
X168240000Y-90850484D01*
X168280389Y-90647436D01*
X168359615Y-90456167D01*
X168474635Y-90284027D01*
X168621027Y-90137635D01*
X168643268Y-90122774D01*
X168793165Y-90022616D01*
X168793167Y-90022615D01*
X168984436Y-89943389D01*
X169187484Y-89903000D01*
X169394516Y-89903000D01*
X169597564Y-89943389D01*
X169597564Y-89943389D01*
G37*
G36*
X133656564Y-89816389D02*
G01*
X133847833Y-89895615D01*
X133847835Y-89895616D01*
X134019973Y-90010635D01*
X134166365Y-90157027D01*
X134251224Y-90284027D01*
X134281385Y-90329167D01*
X134360611Y-90520436D01*
X134401000Y-90723484D01*
X134401000Y-90930516D01*
X134360611Y-91133564D01*
X134281385Y-91324833D01*
X134281384Y-91324835D01*
X134166365Y-91496973D01*
X134019973Y-91643365D01*
X133847835Y-91758384D01*
X133847834Y-91758385D01*
X133847833Y-91758385D01*
X133656564Y-91837611D01*
X133453516Y-91878000D01*
X133246484Y-91878000D01*
X133043436Y-91837611D01*
X132852167Y-91758385D01*
X132852166Y-91758385D01*
X132852165Y-91758384D01*
X132680027Y-91643365D01*
X132533635Y-91496973D01*
X132418616Y-91324835D01*
X132418615Y-91324833D01*
X132339389Y-91133564D01*
X132299000Y-90930516D01*
X132299000Y-90723484D01*
X132339389Y-90520436D01*
X132418615Y-90329167D01*
X132448777Y-90284027D01*
X132533635Y-90157027D01*
X132680027Y-90010635D01*
X132852165Y-89895616D01*
X132852167Y-89895615D01*
X133043436Y-89816389D01*
X133246484Y-89776000D01*
X133453516Y-89776000D01*
X133656564Y-89816389D01*
X133656564Y-89816389D01*
G37*
G36*
X157728228Y-89351703D02*
G01*
X157883100Y-89415853D01*
X158022481Y-89508985D01*
X158141015Y-89627519D01*
X158234147Y-89766900D01*
X158298297Y-89921772D01*
X158331000Y-90086184D01*
X158331000Y-90253816D01*
X158298297Y-90418228D01*
X158234147Y-90573100D01*
X158141015Y-90712481D01*
X158022481Y-90831015D01*
X157883100Y-90924147D01*
X157728228Y-90988297D01*
X157563816Y-91021000D01*
X157396184Y-91021000D01*
X157231772Y-90988297D01*
X157076900Y-90924147D01*
X156937519Y-90831015D01*
X156818985Y-90712481D01*
X156725853Y-90573100D01*
X156661703Y-90418228D01*
X156629000Y-90253816D01*
X156629000Y-90086184D01*
X156661703Y-89921772D01*
X156725853Y-89766900D01*
X156818985Y-89627519D01*
X156937519Y-89508985D01*
X157076900Y-89415853D01*
X157231772Y-89351703D01*
X157396184Y-89319000D01*
X157563816Y-89319000D01*
X157728228Y-89351703D01*
X157728228Y-89351703D01*
G37*
G36*
X142488228Y-89351703D02*
G01*
X142643100Y-89415853D01*
X142782481Y-89508985D01*
X142901015Y-89627519D01*
X142994147Y-89766900D01*
X143058297Y-89921772D01*
X143091000Y-90086184D01*
X143091000Y-90253816D01*
X143058297Y-90418228D01*
X142994147Y-90573100D01*
X142901015Y-90712481D01*
X142782481Y-90831015D01*
X142643100Y-90924147D01*
X142488228Y-90988297D01*
X142323816Y-91021000D01*
X142156184Y-91021000D01*
X141991772Y-90988297D01*
X141836900Y-90924147D01*
X141697519Y-90831015D01*
X141578985Y-90712481D01*
X141485853Y-90573100D01*
X141421703Y-90418228D01*
X141389000Y-90253816D01*
X141389000Y-90086184D01*
X141421703Y-89921772D01*
X141485853Y-89766900D01*
X141578985Y-89627519D01*
X141697519Y-89508985D01*
X141836900Y-89415853D01*
X141991772Y-89351703D01*
X142156184Y-89319000D01*
X142323816Y-89319000D01*
X142488228Y-89351703D01*
X142488228Y-89351703D01*
G37*
G36*
X170943601Y-87001840D02*
G01*
X171207665Y-87111219D01*
X171445318Y-87270014D01*
X171647426Y-87472122D01*
X171806221Y-87709775D01*
X171915600Y-87973839D01*
X171971360Y-88254168D01*
X171971360Y-88539992D01*
X171915600Y-88820321D01*
X171806221Y-89084385D01*
X171647426Y-89322038D01*
X171445318Y-89524146D01*
X171207665Y-89682941D01*
X170943601Y-89792320D01*
X170663272Y-89848080D01*
X170377448Y-89848080D01*
X170097119Y-89792320D01*
X169833055Y-89682941D01*
X169595402Y-89524146D01*
X169393294Y-89322038D01*
X169234499Y-89084385D01*
X169125120Y-88820321D01*
X169069360Y-88539992D01*
X169069360Y-88254168D01*
X169125120Y-87973839D01*
X169234499Y-87709775D01*
X169393294Y-87472122D01*
X169595402Y-87270014D01*
X169833055Y-87111219D01*
X170097119Y-87001840D01*
X170377448Y-86946080D01*
X170663272Y-86946080D01*
X170943601Y-87001840D01*
X170943601Y-87001840D01*
G37*
G36*
X135002601Y-86874840D02*
G01*
X135266665Y-86984219D01*
X135504318Y-87143014D01*
X135706426Y-87345122D01*
X135865221Y-87582775D01*
X135974600Y-87846839D01*
X136030360Y-88127168D01*
X136030360Y-88412992D01*
X135974600Y-88693321D01*
X135865221Y-88957385D01*
X135706426Y-89195038D01*
X135504318Y-89397146D01*
X135266665Y-89555941D01*
X135002601Y-89665320D01*
X134722272Y-89721080D01*
X134436448Y-89721080D01*
X134156119Y-89665320D01*
X133892055Y-89555941D01*
X133654402Y-89397146D01*
X133452294Y-89195038D01*
X133293499Y-88957385D01*
X133184120Y-88693321D01*
X133128360Y-88412992D01*
X133128360Y-88127168D01*
X133184120Y-87846839D01*
X133293499Y-87582775D01*
X133452294Y-87345122D01*
X133654402Y-87143014D01*
X133892055Y-86984219D01*
X134156119Y-86874840D01*
X134436448Y-86819080D01*
X134722272Y-86819080D01*
X135002601Y-86874840D01*
X135002601Y-86874840D01*
G37*
G36*
X174866500Y-88506500D02*
G01*
X173113500Y-88506500D01*
X173113500Y-86753500D01*
X174866500Y-86753500D01*
X174866500Y-88506500D01*
X174866500Y-88506500D01*
G37*
G36*
X139306500Y-88506500D02*
G01*
X137553500Y-88506500D01*
X137553500Y-86753500D01*
X139306500Y-86753500D01*
X139306500Y-88506500D01*
X139306500Y-88506500D01*
G37*
G36*
X157728228Y-86811703D02*
G01*
X157883100Y-86875853D01*
X158022481Y-86968985D01*
X158141015Y-87087519D01*
X158234147Y-87226900D01*
X158298297Y-87381772D01*
X158331000Y-87546184D01*
X158331000Y-87713816D01*
X158298297Y-87878228D01*
X158234147Y-88033100D01*
X158141015Y-88172481D01*
X158022481Y-88291015D01*
X157883100Y-88384147D01*
X157728228Y-88448297D01*
X157563816Y-88481000D01*
X157396184Y-88481000D01*
X157231772Y-88448297D01*
X157076900Y-88384147D01*
X156937519Y-88291015D01*
X156818985Y-88172481D01*
X156725853Y-88033100D01*
X156661703Y-87878228D01*
X156629000Y-87713816D01*
X156629000Y-87546184D01*
X156661703Y-87381772D01*
X156725853Y-87226900D01*
X156818985Y-87087519D01*
X156937519Y-86968985D01*
X157076900Y-86875853D01*
X157231772Y-86811703D01*
X157396184Y-86779000D01*
X157563816Y-86779000D01*
X157728228Y-86811703D01*
X157728228Y-86811703D01*
G37*
G36*
X142488228Y-86811703D02*
G01*
X142643100Y-86875853D01*
X142782481Y-86968985D01*
X142901015Y-87087519D01*
X142994147Y-87226900D01*
X143058297Y-87381772D01*
X143091000Y-87546184D01*
X143091000Y-87713816D01*
X143058297Y-87878228D01*
X142994147Y-88033100D01*
X142901015Y-88172481D01*
X142782481Y-88291015D01*
X142643100Y-88384147D01*
X142488228Y-88448297D01*
X142323816Y-88481000D01*
X142156184Y-88481000D01*
X141991772Y-88448297D01*
X141836900Y-88384147D01*
X141697519Y-88291015D01*
X141578985Y-88172481D01*
X141485853Y-88033100D01*
X141421703Y-87878228D01*
X141389000Y-87713816D01*
X141389000Y-87546184D01*
X141421703Y-87381772D01*
X141485853Y-87226900D01*
X141578985Y-87087519D01*
X141697519Y-86968985D01*
X141836900Y-86875853D01*
X141991772Y-86811703D01*
X142156184Y-86779000D01*
X142323816Y-86779000D01*
X142488228Y-86811703D01*
X142488228Y-86811703D01*
G37*
G36*
X167308614Y-83884898D02*
G01*
X167681871Y-84039506D01*
X167681873Y-84039507D01*
X168017796Y-84263964D01*
X168303476Y-84549644D01*
X168517872Y-84870509D01*
X168527934Y-84885569D01*
X168682542Y-85258826D01*
X168761360Y-85655073D01*
X168761360Y-86059087D01*
X168682542Y-86455334D01*
X168527934Y-86828591D01*
X168527933Y-86828593D01*
X168303476Y-87164516D01*
X168017796Y-87450196D01*
X167681873Y-87674653D01*
X167681872Y-87674654D01*
X167681871Y-87674654D01*
X167308614Y-87829262D01*
X166912367Y-87908080D01*
X166508353Y-87908080D01*
X166112106Y-87829262D01*
X165738849Y-87674654D01*
X165738848Y-87674654D01*
X165738847Y-87674653D01*
X165402924Y-87450196D01*
X165117244Y-87164516D01*
X164892787Y-86828593D01*
X164892786Y-86828591D01*
X164738178Y-86455334D01*
X164659360Y-86059087D01*
X164659360Y-85655073D01*
X164738178Y-85258826D01*
X164892786Y-84885569D01*
X164902849Y-84870509D01*
X165117244Y-84549644D01*
X165402924Y-84263964D01*
X165738847Y-84039507D01*
X165738849Y-84039506D01*
X166112106Y-83884898D01*
X166508353Y-83806080D01*
X166912367Y-83806080D01*
X167308614Y-83884898D01*
X167308614Y-83884898D01*
G37*
G36*
X131367614Y-83757898D02*
G01*
X131740871Y-83912506D01*
X131740873Y-83912507D01*
X132076796Y-84136964D01*
X132362476Y-84422644D01*
X132576872Y-84743509D01*
X132586934Y-84758569D01*
X132741542Y-85131826D01*
X132820360Y-85528073D01*
X132820360Y-85932087D01*
X132741542Y-86328334D01*
X132606636Y-86654026D01*
X132586933Y-86701593D01*
X132362476Y-87037516D01*
X132076796Y-87323196D01*
X131740873Y-87547653D01*
X131740872Y-87547654D01*
X131740871Y-87547654D01*
X131367614Y-87702262D01*
X130971367Y-87781080D01*
X130567353Y-87781080D01*
X130171106Y-87702262D01*
X129797849Y-87547654D01*
X129797848Y-87547654D01*
X129797847Y-87547653D01*
X129461924Y-87323196D01*
X129176244Y-87037516D01*
X128951787Y-86701593D01*
X128932084Y-86654026D01*
X128797178Y-86328334D01*
X128718360Y-85932087D01*
X128718360Y-85528073D01*
X128797178Y-85131826D01*
X128951786Y-84758569D01*
X128961849Y-84743509D01*
X129176244Y-84422644D01*
X129461924Y-84136964D01*
X129797847Y-83912507D01*
X129797849Y-83912506D01*
X130171106Y-83757898D01*
X130567353Y-83679080D01*
X130971367Y-83679080D01*
X131367614Y-83757898D01*
X131367614Y-83757898D01*
G37*
G36*
X172089632Y-84870508D02*
G01*
X172276351Y-84947850D01*
X172276353Y-84947851D01*
X172444397Y-85060134D01*
X172587306Y-85203043D01*
X172677633Y-85338228D01*
X172699590Y-85371089D01*
X172776932Y-85557808D01*
X172816360Y-85756027D01*
X172816360Y-85958133D01*
X172776932Y-86156352D01*
X172705694Y-86328334D01*
X172699589Y-86343073D01*
X172587306Y-86511117D01*
X172444397Y-86654026D01*
X172276353Y-86766309D01*
X172276352Y-86766310D01*
X172276351Y-86766310D01*
X172089632Y-86843652D01*
X171891413Y-86883080D01*
X171689307Y-86883080D01*
X171491088Y-86843652D01*
X171304369Y-86766310D01*
X171304368Y-86766310D01*
X171304367Y-86766309D01*
X171136323Y-86654026D01*
X170993414Y-86511117D01*
X170881131Y-86343073D01*
X170875026Y-86328334D01*
X170803788Y-86156352D01*
X170764360Y-85958133D01*
X170764360Y-85756027D01*
X170803788Y-85557808D01*
X170881130Y-85371089D01*
X170903087Y-85338228D01*
X170993414Y-85203043D01*
X171136323Y-85060134D01*
X171304367Y-84947851D01*
X171304369Y-84947850D01*
X171491088Y-84870508D01*
X171689307Y-84831080D01*
X171891413Y-84831080D01*
X172089632Y-84870508D01*
X172089632Y-84870508D01*
G37*
G36*
X161929632Y-84870508D02*
G01*
X162116351Y-84947850D01*
X162116353Y-84947851D01*
X162284397Y-85060134D01*
X162427306Y-85203043D01*
X162517633Y-85338228D01*
X162539590Y-85371089D01*
X162616932Y-85557808D01*
X162656360Y-85756027D01*
X162656360Y-85958133D01*
X162616932Y-86156352D01*
X162545694Y-86328334D01*
X162539589Y-86343073D01*
X162427306Y-86511117D01*
X162284397Y-86654026D01*
X162116353Y-86766309D01*
X162116352Y-86766310D01*
X162116351Y-86766310D01*
X161929632Y-86843652D01*
X161731413Y-86883080D01*
X161529307Y-86883080D01*
X161331088Y-86843652D01*
X161144369Y-86766310D01*
X161144368Y-86766310D01*
X161144367Y-86766309D01*
X160976323Y-86654026D01*
X160833414Y-86511117D01*
X160721131Y-86343073D01*
X160715026Y-86328334D01*
X160643788Y-86156352D01*
X160604360Y-85958133D01*
X160604360Y-85756027D01*
X160643788Y-85557808D01*
X160721130Y-85371089D01*
X160743087Y-85338228D01*
X160833414Y-85203043D01*
X160976323Y-85060134D01*
X161144367Y-84947851D01*
X161144369Y-84947850D01*
X161331088Y-84870508D01*
X161529307Y-84831080D01*
X161731413Y-84831080D01*
X161929632Y-84870508D01*
X161929632Y-84870508D01*
G37*
G36*
X125988632Y-84743508D02*
G01*
X126175351Y-84820850D01*
X126175353Y-84820851D01*
X126343397Y-84933134D01*
X126486306Y-85076043D01*
X126571164Y-85203043D01*
X126598590Y-85244089D01*
X126675932Y-85430808D01*
X126715360Y-85629027D01*
X126715360Y-85831133D01*
X126675932Y-86029352D01*
X126623326Y-86156353D01*
X126598589Y-86216073D01*
X126486306Y-86384117D01*
X126343397Y-86527026D01*
X126175353Y-86639309D01*
X126175352Y-86639310D01*
X126175351Y-86639310D01*
X125988632Y-86716652D01*
X125790413Y-86756080D01*
X125588307Y-86756080D01*
X125390088Y-86716652D01*
X125203369Y-86639310D01*
X125203368Y-86639310D01*
X125203367Y-86639309D01*
X125035323Y-86527026D01*
X124892414Y-86384117D01*
X124780131Y-86216073D01*
X124755394Y-86156353D01*
X124702788Y-86029352D01*
X124663360Y-85831133D01*
X124663360Y-85629027D01*
X124702788Y-85430808D01*
X124780130Y-85244089D01*
X124807556Y-85203043D01*
X124892414Y-85076043D01*
X125035323Y-84933134D01*
X125203367Y-84820851D01*
X125203369Y-84820850D01*
X125390088Y-84743508D01*
X125588307Y-84704080D01*
X125790413Y-84704080D01*
X125988632Y-84743508D01*
X125988632Y-84743508D01*
G37*
G36*
X136148632Y-84743508D02*
G01*
X136335351Y-84820850D01*
X136335353Y-84820851D01*
X136503397Y-84933134D01*
X136646306Y-85076043D01*
X136731164Y-85203043D01*
X136758590Y-85244089D01*
X136835932Y-85430808D01*
X136875360Y-85629027D01*
X136875360Y-85831133D01*
X136835932Y-86029352D01*
X136783326Y-86156353D01*
X136758589Y-86216073D01*
X136646306Y-86384117D01*
X136503397Y-86527026D01*
X136335353Y-86639309D01*
X136335352Y-86639310D01*
X136335351Y-86639310D01*
X136148632Y-86716652D01*
X135950413Y-86756080D01*
X135748307Y-86756080D01*
X135550088Y-86716652D01*
X135363369Y-86639310D01*
X135363368Y-86639310D01*
X135363367Y-86639309D01*
X135195323Y-86527026D01*
X135052414Y-86384117D01*
X134940131Y-86216073D01*
X134915394Y-86156353D01*
X134862788Y-86029352D01*
X134823360Y-85831133D01*
X134823360Y-85629027D01*
X134862788Y-85430808D01*
X134940130Y-85244089D01*
X134967556Y-85203043D01*
X135052414Y-85076043D01*
X135195323Y-84933134D01*
X135363367Y-84820851D01*
X135363369Y-84820850D01*
X135550088Y-84743508D01*
X135748307Y-84704080D01*
X135950413Y-84704080D01*
X136148632Y-84743508D01*
X136148632Y-84743508D01*
G37*
G36*
X157728228Y-84271703D02*
G01*
X157883100Y-84335853D01*
X158022481Y-84428985D01*
X158141015Y-84547519D01*
X158234147Y-84686900D01*
X158298297Y-84841772D01*
X158331000Y-85006184D01*
X158331000Y-85173816D01*
X158298297Y-85338228D01*
X158234147Y-85493100D01*
X158141015Y-85632481D01*
X158022481Y-85751015D01*
X157883100Y-85844147D01*
X157728228Y-85908297D01*
X157563816Y-85941000D01*
X157396184Y-85941000D01*
X157231772Y-85908297D01*
X157076900Y-85844147D01*
X156937519Y-85751015D01*
X156818985Y-85632481D01*
X156725853Y-85493100D01*
X156661703Y-85338228D01*
X156629000Y-85173816D01*
X156629000Y-85006184D01*
X156661703Y-84841772D01*
X156725853Y-84686900D01*
X156818985Y-84547519D01*
X156937519Y-84428985D01*
X157076900Y-84335853D01*
X157231772Y-84271703D01*
X157396184Y-84239000D01*
X157563816Y-84239000D01*
X157728228Y-84271703D01*
X157728228Y-84271703D01*
G37*
G36*
X142488228Y-84271703D02*
G01*
X142643100Y-84335853D01*
X142782481Y-84428985D01*
X142901015Y-84547519D01*
X142994147Y-84686900D01*
X143058297Y-84841772D01*
X143091000Y-85006184D01*
X143091000Y-85173816D01*
X143058297Y-85338228D01*
X142994147Y-85493100D01*
X142901015Y-85632481D01*
X142782481Y-85751015D01*
X142643100Y-85844147D01*
X142488228Y-85908297D01*
X142323816Y-85941000D01*
X142156184Y-85941000D01*
X141991772Y-85908297D01*
X141836900Y-85844147D01*
X141697519Y-85751015D01*
X141578985Y-85632481D01*
X141485853Y-85493100D01*
X141421703Y-85338228D01*
X141389000Y-85173816D01*
X141389000Y-85006184D01*
X141421703Y-84841772D01*
X141485853Y-84686900D01*
X141578985Y-84547519D01*
X141697519Y-84428985D01*
X141836900Y-84335853D01*
X141991772Y-84271703D01*
X142156184Y-84239000D01*
X142323816Y-84239000D01*
X142488228Y-84271703D01*
X142488228Y-84271703D01*
G37*
G36*
X157728228Y-81731703D02*
G01*
X157883100Y-81795853D01*
X158022481Y-81888985D01*
X158141015Y-82007519D01*
X158234147Y-82146900D01*
X158298297Y-82301772D01*
X158331000Y-82466184D01*
X158331000Y-82633816D01*
X158298297Y-82798228D01*
X158234147Y-82953100D01*
X158141015Y-83092481D01*
X158022481Y-83211015D01*
X157883100Y-83304147D01*
X157728228Y-83368297D01*
X157563816Y-83401000D01*
X157396184Y-83401000D01*
X157231772Y-83368297D01*
X157076900Y-83304147D01*
X156937519Y-83211015D01*
X156818985Y-83092481D01*
X156725853Y-82953100D01*
X156661703Y-82798228D01*
X156629000Y-82633816D01*
X156629000Y-82466184D01*
X156661703Y-82301772D01*
X156725853Y-82146900D01*
X156818985Y-82007519D01*
X156937519Y-81888985D01*
X157076900Y-81795853D01*
X157231772Y-81731703D01*
X157396184Y-81699000D01*
X157563816Y-81699000D01*
X157728228Y-81731703D01*
X157728228Y-81731703D01*
G37*
G36*
X142488228Y-81731703D02*
G01*
X142643100Y-81795853D01*
X142782481Y-81888985D01*
X142901015Y-82007519D01*
X142994147Y-82146900D01*
X143058297Y-82301772D01*
X143091000Y-82466184D01*
X143091000Y-82633816D01*
X143058297Y-82798228D01*
X142994147Y-82953100D01*
X142901015Y-83092481D01*
X142782481Y-83211015D01*
X142643100Y-83304147D01*
X142488228Y-83368297D01*
X142323816Y-83401000D01*
X142156184Y-83401000D01*
X141991772Y-83368297D01*
X141836900Y-83304147D01*
X141697519Y-83211015D01*
X141578985Y-83092481D01*
X141485853Y-82953100D01*
X141421703Y-82798228D01*
X141389000Y-82633816D01*
X141389000Y-82466184D01*
X141421703Y-82301772D01*
X141485853Y-82146900D01*
X141578985Y-82007519D01*
X141697519Y-81888985D01*
X141836900Y-81795853D01*
X141991772Y-81731703D01*
X142156184Y-81699000D01*
X142323816Y-81699000D01*
X142488228Y-81731703D01*
X142488228Y-81731703D01*
G37*
G36*
X138600997Y-79150341D02*
G01*
X138685666Y-79167183D01*
X138744862Y-79191703D01*
X138845177Y-79233255D01*
X138988736Y-79329178D01*
X139110822Y-79451264D01*
X139206745Y-79594823D01*
X139272817Y-79754335D01*
X139306500Y-79923671D01*
X139306500Y-80096329D01*
X139272817Y-80265665D01*
X139206745Y-80425177D01*
X139110822Y-80568736D01*
X138988736Y-80690822D01*
X138845177Y-80786745D01*
X138751738Y-80825449D01*
X138685666Y-80852817D01*
X138600997Y-80869659D01*
X138516329Y-80886500D01*
X138343671Y-80886500D01*
X138259003Y-80869659D01*
X138174334Y-80852817D01*
X138108262Y-80825449D01*
X138014823Y-80786745D01*
X137871264Y-80690822D01*
X137749178Y-80568736D01*
X137653255Y-80425177D01*
X137587183Y-80265665D01*
X137553500Y-80096329D01*
X137553500Y-79923671D01*
X137587183Y-79754335D01*
X137653255Y-79594823D01*
X137749178Y-79451264D01*
X137871264Y-79329178D01*
X138014823Y-79233255D01*
X138115138Y-79191703D01*
X138174334Y-79167183D01*
X138259003Y-79150341D01*
X138343671Y-79133500D01*
X138516329Y-79133500D01*
X138600997Y-79150341D01*
X138600997Y-79150341D01*
G37*
G36*
X174160997Y-79150341D02*
G01*
X174245666Y-79167183D01*
X174304862Y-79191703D01*
X174405177Y-79233255D01*
X174548736Y-79329178D01*
X174670822Y-79451264D01*
X174766745Y-79594823D01*
X174832817Y-79754335D01*
X174866500Y-79923671D01*
X174866500Y-80096329D01*
X174832817Y-80265665D01*
X174766745Y-80425177D01*
X174670822Y-80568736D01*
X174548736Y-80690822D01*
X174405177Y-80786745D01*
X174311738Y-80825449D01*
X174245666Y-80852817D01*
X174160997Y-80869659D01*
X174076329Y-80886500D01*
X173903671Y-80886500D01*
X173819003Y-80869659D01*
X173734334Y-80852817D01*
X173668262Y-80825449D01*
X173574823Y-80786745D01*
X173431264Y-80690822D01*
X173309178Y-80568736D01*
X173213255Y-80425177D01*
X173147183Y-80265665D01*
X173113500Y-80096329D01*
X173113500Y-79923671D01*
X173147183Y-79754335D01*
X173213255Y-79594823D01*
X173309178Y-79451264D01*
X173431264Y-79329178D01*
X173574823Y-79233255D01*
X173675138Y-79191703D01*
X173734334Y-79167183D01*
X173819003Y-79150341D01*
X173903671Y-79133500D01*
X174076329Y-79133500D01*
X174160997Y-79150341D01*
X174160997Y-79150341D01*
G37*
G36*
X142488228Y-79191703D02*
G01*
X142643100Y-79255853D01*
X142782481Y-79348985D01*
X142901015Y-79467519D01*
X142994147Y-79606900D01*
X143058297Y-79761772D01*
X143091000Y-79926184D01*
X143091000Y-80093816D01*
X143058297Y-80258228D01*
X142994147Y-80413100D01*
X142901015Y-80552481D01*
X142782481Y-80671015D01*
X142643100Y-80764147D01*
X142488228Y-80828297D01*
X142323816Y-80861000D01*
X142156184Y-80861000D01*
X141991772Y-80828297D01*
X141836900Y-80764147D01*
X141697519Y-80671015D01*
X141578985Y-80552481D01*
X141485853Y-80413100D01*
X141421703Y-80258228D01*
X141389000Y-80093816D01*
X141389000Y-79926184D01*
X141421703Y-79761772D01*
X141485853Y-79606900D01*
X141578985Y-79467519D01*
X141697519Y-79348985D01*
X141836900Y-79255853D01*
X141991772Y-79191703D01*
X142156184Y-79159000D01*
X142323816Y-79159000D01*
X142488228Y-79191703D01*
X142488228Y-79191703D01*
G37*
G36*
X157728228Y-79191703D02*
G01*
X157883100Y-79255853D01*
X158022481Y-79348985D01*
X158141015Y-79467519D01*
X158234147Y-79606900D01*
X158298297Y-79761772D01*
X158331000Y-79926184D01*
X158331000Y-80093816D01*
X158298297Y-80258228D01*
X158234147Y-80413100D01*
X158141015Y-80552481D01*
X158022481Y-80671015D01*
X157883100Y-80764147D01*
X157728228Y-80828297D01*
X157563816Y-80861000D01*
X157396184Y-80861000D01*
X157231772Y-80828297D01*
X157076900Y-80764147D01*
X156937519Y-80671015D01*
X156818985Y-80552481D01*
X156725853Y-80413100D01*
X156661703Y-80258228D01*
X156629000Y-80093816D01*
X156629000Y-79926184D01*
X156661703Y-79761772D01*
X156725853Y-79606900D01*
X156818985Y-79467519D01*
X156937519Y-79348985D01*
X157076900Y-79255853D01*
X157231772Y-79191703D01*
X157396184Y-79159000D01*
X157563816Y-79159000D01*
X157728228Y-79191703D01*
X157728228Y-79191703D01*
G37*
G36*
X142488228Y-76651703D02*
G01*
X142643100Y-76715853D01*
X142782481Y-76808985D01*
X142901015Y-76927519D01*
X142994147Y-77066900D01*
X143058297Y-77221772D01*
X143091000Y-77386184D01*
X143091000Y-77553816D01*
X143058297Y-77718228D01*
X142994147Y-77873100D01*
X142901015Y-78012481D01*
X142782481Y-78131015D01*
X142643100Y-78224147D01*
X142488228Y-78288297D01*
X142323816Y-78321000D01*
X142156184Y-78321000D01*
X141991772Y-78288297D01*
X141836900Y-78224147D01*
X141697519Y-78131015D01*
X141578985Y-78012481D01*
X141485853Y-77873100D01*
X141421703Y-77718228D01*
X141389000Y-77553816D01*
X141389000Y-77386184D01*
X141421703Y-77221772D01*
X141485853Y-77066900D01*
X141578985Y-76927519D01*
X141697519Y-76808985D01*
X141836900Y-76715853D01*
X141991772Y-76651703D01*
X142156184Y-76619000D01*
X142323816Y-76619000D01*
X142488228Y-76651703D01*
X142488228Y-76651703D01*
G37*
G36*
X157728228Y-76651703D02*
G01*
X157883100Y-76715853D01*
X158022481Y-76808985D01*
X158141015Y-76927519D01*
X158234147Y-77066900D01*
X158298297Y-77221772D01*
X158331000Y-77386184D01*
X158331000Y-77553816D01*
X158298297Y-77718228D01*
X158234147Y-77873100D01*
X158141015Y-78012481D01*
X158022481Y-78131015D01*
X157883100Y-78224147D01*
X157728228Y-78288297D01*
X157563816Y-78321000D01*
X157396184Y-78321000D01*
X157231772Y-78288297D01*
X157076900Y-78224147D01*
X156937519Y-78131015D01*
X156818985Y-78012481D01*
X156725853Y-77873100D01*
X156661703Y-77718228D01*
X156629000Y-77553816D01*
X156629000Y-77386184D01*
X156661703Y-77221772D01*
X156725853Y-77066900D01*
X156818985Y-76927519D01*
X156937519Y-76808985D01*
X157076900Y-76715853D01*
X157231772Y-76651703D01*
X157396184Y-76619000D01*
X157563816Y-76619000D01*
X157728228Y-76651703D01*
X157728228Y-76651703D01*
G37*
G36*
X164597564Y-75443389D02*
G01*
X164788833Y-75522615D01*
X164788835Y-75522616D01*
X164891201Y-75591015D01*
X164960973Y-75637635D01*
X165107365Y-75784027D01*
X165222385Y-75956167D01*
X165301611Y-76147436D01*
X165342000Y-76350484D01*
X165342000Y-76557516D01*
X165301611Y-76760564D01*
X165281554Y-76808985D01*
X165222384Y-76951835D01*
X165107365Y-77123973D01*
X164960973Y-77270365D01*
X164788835Y-77385384D01*
X164788834Y-77385385D01*
X164788833Y-77385385D01*
X164597564Y-77464611D01*
X164394516Y-77505000D01*
X164187484Y-77505000D01*
X163984436Y-77464611D01*
X163793167Y-77385385D01*
X163793166Y-77385385D01*
X163793165Y-77385384D01*
X163621027Y-77270365D01*
X163474635Y-77123973D01*
X163359616Y-76951835D01*
X163300446Y-76808985D01*
X163280389Y-76760564D01*
X163240000Y-76557516D01*
X163240000Y-76350484D01*
X163280389Y-76147436D01*
X163359615Y-75956167D01*
X163474635Y-75784027D01*
X163621027Y-75637635D01*
X163690799Y-75591015D01*
X163793165Y-75522616D01*
X163793167Y-75522615D01*
X163984436Y-75443389D01*
X164187484Y-75403000D01*
X164394516Y-75403000D01*
X164597564Y-75443389D01*
X164597564Y-75443389D01*
G37*
G36*
X167097564Y-75443389D02*
G01*
X167288833Y-75522615D01*
X167288835Y-75522616D01*
X167391201Y-75591015D01*
X167460973Y-75637635D01*
X167607365Y-75784027D01*
X167722385Y-75956167D01*
X167801611Y-76147436D01*
X167842000Y-76350484D01*
X167842000Y-76557516D01*
X167801611Y-76760564D01*
X167781554Y-76808985D01*
X167722384Y-76951835D01*
X167607365Y-77123973D01*
X167460973Y-77270365D01*
X167288835Y-77385384D01*
X167288834Y-77385385D01*
X167288833Y-77385385D01*
X167097564Y-77464611D01*
X166894516Y-77505000D01*
X166687484Y-77505000D01*
X166484436Y-77464611D01*
X166293167Y-77385385D01*
X166293166Y-77385385D01*
X166293165Y-77385384D01*
X166121027Y-77270365D01*
X165974635Y-77123973D01*
X165859616Y-76951835D01*
X165800446Y-76808985D01*
X165780389Y-76760564D01*
X165740000Y-76557516D01*
X165740000Y-76350484D01*
X165780389Y-76147436D01*
X165859615Y-75956167D01*
X165974635Y-75784027D01*
X166121027Y-75637635D01*
X166190799Y-75591015D01*
X166293165Y-75522616D01*
X166293167Y-75522615D01*
X166484436Y-75443389D01*
X166687484Y-75403000D01*
X166894516Y-75403000D01*
X167097564Y-75443389D01*
X167097564Y-75443389D01*
G37*
G36*
X169607724Y-75443389D02*
G01*
X169798993Y-75522615D01*
X169798995Y-75522616D01*
X169901361Y-75591015D01*
X169971133Y-75637635D01*
X170117525Y-75784027D01*
X170232545Y-75956167D01*
X170311771Y-76147436D01*
X170352160Y-76350484D01*
X170352160Y-76557516D01*
X170311771Y-76760564D01*
X170291714Y-76808985D01*
X170232544Y-76951835D01*
X170117525Y-77123973D01*
X169971133Y-77270365D01*
X169798995Y-77385384D01*
X169798994Y-77385385D01*
X169798993Y-77385385D01*
X169607724Y-77464611D01*
X169404676Y-77505000D01*
X169197644Y-77505000D01*
X168994596Y-77464611D01*
X168803327Y-77385385D01*
X168803326Y-77385385D01*
X168803325Y-77385384D01*
X168631187Y-77270365D01*
X168484795Y-77123973D01*
X168369776Y-76951835D01*
X168310606Y-76808985D01*
X168290549Y-76760564D01*
X168250160Y-76557516D01*
X168250160Y-76350484D01*
X168290549Y-76147436D01*
X168369775Y-75956167D01*
X168484795Y-75784027D01*
X168631187Y-75637635D01*
X168700959Y-75591015D01*
X168803325Y-75522616D01*
X168803327Y-75522615D01*
X168994596Y-75443389D01*
X169197644Y-75403000D01*
X169404676Y-75403000D01*
X169607724Y-75443389D01*
X169607724Y-75443389D01*
G37*
G36*
X133666724Y-75316389D02*
G01*
X133857993Y-75395615D01*
X133857995Y-75395616D01*
X134030133Y-75510635D01*
X134176525Y-75657027D01*
X134261384Y-75784027D01*
X134291545Y-75829167D01*
X134370771Y-76020436D01*
X134411160Y-76223484D01*
X134411160Y-76430516D01*
X134370771Y-76633564D01*
X134298109Y-76808985D01*
X134291544Y-76824835D01*
X134176525Y-76996973D01*
X134030133Y-77143365D01*
X133857995Y-77258384D01*
X133857994Y-77258385D01*
X133857993Y-77258385D01*
X133666724Y-77337611D01*
X133463676Y-77378000D01*
X133256644Y-77378000D01*
X133053596Y-77337611D01*
X132862327Y-77258385D01*
X132862326Y-77258385D01*
X132862325Y-77258384D01*
X132690187Y-77143365D01*
X132543795Y-76996973D01*
X132428776Y-76824835D01*
X132422211Y-76808985D01*
X132349549Y-76633564D01*
X132309160Y-76430516D01*
X132309160Y-76223484D01*
X132349549Y-76020436D01*
X132428775Y-75829167D01*
X132458937Y-75784027D01*
X132543795Y-75657027D01*
X132690187Y-75510635D01*
X132862325Y-75395616D01*
X132862327Y-75395615D01*
X133053596Y-75316389D01*
X133256644Y-75276000D01*
X133463676Y-75276000D01*
X133666724Y-75316389D01*
X133666724Y-75316389D01*
G37*
G36*
X131156564Y-75316389D02*
G01*
X131347833Y-75395615D01*
X131347835Y-75395616D01*
X131519973Y-75510635D01*
X131666365Y-75657027D01*
X131751224Y-75784027D01*
X131781385Y-75829167D01*
X131860611Y-76020436D01*
X131901000Y-76223484D01*
X131901000Y-76430516D01*
X131860611Y-76633564D01*
X131787949Y-76808985D01*
X131781384Y-76824835D01*
X131666365Y-76996973D01*
X131519973Y-77143365D01*
X131347835Y-77258384D01*
X131347834Y-77258385D01*
X131347833Y-77258385D01*
X131156564Y-77337611D01*
X130953516Y-77378000D01*
X130746484Y-77378000D01*
X130543436Y-77337611D01*
X130352167Y-77258385D01*
X130352166Y-77258385D01*
X130352165Y-77258384D01*
X130180027Y-77143365D01*
X130033635Y-76996973D01*
X129918616Y-76824835D01*
X129912051Y-76808985D01*
X129839389Y-76633564D01*
X129799000Y-76430516D01*
X129799000Y-76223484D01*
X129839389Y-76020436D01*
X129918615Y-75829167D01*
X129948777Y-75784027D01*
X130033635Y-75657027D01*
X130180027Y-75510635D01*
X130352165Y-75395616D01*
X130352167Y-75395615D01*
X130543436Y-75316389D01*
X130746484Y-75276000D01*
X130953516Y-75276000D01*
X131156564Y-75316389D01*
X131156564Y-75316389D01*
G37*
G36*
X128656564Y-75316389D02*
G01*
X128847833Y-75395615D01*
X128847835Y-75395616D01*
X129019973Y-75510635D01*
X129166365Y-75657027D01*
X129251224Y-75784027D01*
X129281385Y-75829167D01*
X129360611Y-76020436D01*
X129401000Y-76223484D01*
X129401000Y-76430516D01*
X129360611Y-76633564D01*
X129287949Y-76808985D01*
X129281384Y-76824835D01*
X129166365Y-76996973D01*
X129019973Y-77143365D01*
X128847835Y-77258384D01*
X128847834Y-77258385D01*
X128847833Y-77258385D01*
X128656564Y-77337611D01*
X128453516Y-77378000D01*
X128246484Y-77378000D01*
X128043436Y-77337611D01*
X127852167Y-77258385D01*
X127852166Y-77258385D01*
X127852165Y-77258384D01*
X127680027Y-77143365D01*
X127533635Y-76996973D01*
X127418616Y-76824835D01*
X127412051Y-76808985D01*
X127339389Y-76633564D01*
X127299000Y-76430516D01*
X127299000Y-76223484D01*
X127339389Y-76020436D01*
X127418615Y-75829167D01*
X127448777Y-75784027D01*
X127533635Y-75657027D01*
X127680027Y-75510635D01*
X127852165Y-75395616D01*
X127852167Y-75395615D01*
X128043436Y-75316389D01*
X128246484Y-75276000D01*
X128453516Y-75276000D01*
X128656564Y-75316389D01*
X128656564Y-75316389D01*
G37*
G36*
X142488228Y-74111703D02*
G01*
X142643100Y-74175853D01*
X142782481Y-74268985D01*
X142901015Y-74387519D01*
X142994147Y-74526900D01*
X143058297Y-74681772D01*
X143091000Y-74846184D01*
X143091000Y-75013816D01*
X143058297Y-75178228D01*
X142994147Y-75333100D01*
X142901015Y-75472481D01*
X142782481Y-75591015D01*
X142643100Y-75684147D01*
X142488228Y-75748297D01*
X142323816Y-75781000D01*
X142156184Y-75781000D01*
X141991772Y-75748297D01*
X141836900Y-75684147D01*
X141697519Y-75591015D01*
X141578985Y-75472481D01*
X141485853Y-75333100D01*
X141421703Y-75178228D01*
X141389000Y-75013816D01*
X141389000Y-74846184D01*
X141421703Y-74681772D01*
X141485853Y-74526900D01*
X141578985Y-74387519D01*
X141697519Y-74268985D01*
X141836900Y-74175853D01*
X141991772Y-74111703D01*
X142156184Y-74079000D01*
X142323816Y-74079000D01*
X142488228Y-74111703D01*
X142488228Y-74111703D01*
G37*
G36*
X157728228Y-74111703D02*
G01*
X157883100Y-74175853D01*
X158022481Y-74268985D01*
X158141015Y-74387519D01*
X158234147Y-74526900D01*
X158298297Y-74681772D01*
X158331000Y-74846184D01*
X158331000Y-75013816D01*
X158298297Y-75178228D01*
X158234147Y-75333100D01*
X158141015Y-75472481D01*
X158022481Y-75591015D01*
X157883100Y-75684147D01*
X157728228Y-75748297D01*
X157563816Y-75781000D01*
X157396184Y-75781000D01*
X157231772Y-75748297D01*
X157076900Y-75684147D01*
X156937519Y-75591015D01*
X156818985Y-75472481D01*
X156725853Y-75333100D01*
X156661703Y-75178228D01*
X156629000Y-75013816D01*
X156629000Y-74846184D01*
X156661703Y-74681772D01*
X156725853Y-74526900D01*
X156818985Y-74387519D01*
X156937519Y-74268985D01*
X157076900Y-74175853D01*
X157231772Y-74111703D01*
X157396184Y-74079000D01*
X157563816Y-74079000D01*
X157728228Y-74111703D01*
X157728228Y-74111703D01*
G37*
G36*
X142488228Y-71571703D02*
G01*
X142643100Y-71635853D01*
X142782481Y-71728985D01*
X142901015Y-71847519D01*
X142994147Y-71986900D01*
X143058297Y-72141772D01*
X143091000Y-72306184D01*
X143091000Y-72473816D01*
X143058297Y-72638228D01*
X142994147Y-72793100D01*
X142901015Y-72932481D01*
X142782481Y-73051015D01*
X142643100Y-73144147D01*
X142488228Y-73208297D01*
X142323816Y-73241000D01*
X142156184Y-73241000D01*
X141991772Y-73208297D01*
X141836900Y-73144147D01*
X141697519Y-73051015D01*
X141578985Y-72932481D01*
X141485853Y-72793100D01*
X141421703Y-72638228D01*
X141389000Y-72473816D01*
X141389000Y-72306184D01*
X141421703Y-72141772D01*
X141485853Y-71986900D01*
X141578985Y-71847519D01*
X141697519Y-71728985D01*
X141836900Y-71635853D01*
X141991772Y-71571703D01*
X142156184Y-71539000D01*
X142323816Y-71539000D01*
X142488228Y-71571703D01*
X142488228Y-71571703D01*
G37*
G36*
X157728228Y-71571703D02*
G01*
X157883100Y-71635853D01*
X158022481Y-71728985D01*
X158141015Y-71847519D01*
X158234147Y-71986900D01*
X158298297Y-72141772D01*
X158331000Y-72306184D01*
X158331000Y-72473816D01*
X158298297Y-72638228D01*
X158234147Y-72793100D01*
X158141015Y-72932481D01*
X158022481Y-73051015D01*
X157883100Y-73144147D01*
X157728228Y-73208297D01*
X157563816Y-73241000D01*
X157396184Y-73241000D01*
X157231772Y-73208297D01*
X157076900Y-73144147D01*
X156937519Y-73051015D01*
X156818985Y-72932481D01*
X156725853Y-72793100D01*
X156661703Y-72638228D01*
X156629000Y-72473816D01*
X156629000Y-72306184D01*
X156661703Y-72141772D01*
X156725853Y-71986900D01*
X156818985Y-71847519D01*
X156937519Y-71728985D01*
X157076900Y-71635853D01*
X157231772Y-71571703D01*
X157396184Y-71539000D01*
X157563816Y-71539000D01*
X157728228Y-71571703D01*
X157728228Y-71571703D01*
G37*
G36*
X138794249Y-70461016D02*
G01*
X138905434Y-70483132D01*
X139114903Y-70569897D01*
X139303420Y-70695860D01*
X139463740Y-70856180D01*
X139589703Y-71044697D01*
X139676468Y-71254166D01*
X139720700Y-71476536D01*
X139720700Y-71703264D01*
X139676468Y-71925634D01*
X139589703Y-72135103D01*
X139463740Y-72323620D01*
X139303420Y-72483940D01*
X139114903Y-72609903D01*
X138905434Y-72696668D01*
X138794249Y-72718784D01*
X138683065Y-72740900D01*
X138456335Y-72740900D01*
X138345151Y-72718784D01*
X138233966Y-72696668D01*
X138024497Y-72609903D01*
X137835980Y-72483940D01*
X137675660Y-72323620D01*
X137549697Y-72135103D01*
X137462932Y-71925634D01*
X137418700Y-71703264D01*
X137418700Y-71476536D01*
X137462932Y-71254166D01*
X137549697Y-71044697D01*
X137675660Y-70856180D01*
X137835980Y-70695860D01*
X138024497Y-70569897D01*
X138233966Y-70483132D01*
X138345151Y-70461016D01*
X138456335Y-70438900D01*
X138683065Y-70438900D01*
X138794249Y-70461016D01*
X138794249Y-70461016D01*
G37*
G36*
X161565349Y-70461016D02*
G01*
X161676534Y-70483132D01*
X161886003Y-70569897D01*
X162074520Y-70695860D01*
X162234840Y-70856180D01*
X162360803Y-71044697D01*
X162447568Y-71254166D01*
X162491800Y-71476536D01*
X162491800Y-71703264D01*
X162447568Y-71925634D01*
X162360803Y-72135103D01*
X162234840Y-72323620D01*
X162074520Y-72483940D01*
X161886003Y-72609903D01*
X161676534Y-72696668D01*
X161565349Y-72718784D01*
X161454165Y-72740900D01*
X161227435Y-72740900D01*
X161116251Y-72718784D01*
X161005066Y-72696668D01*
X160795597Y-72609903D01*
X160607080Y-72483940D01*
X160446760Y-72323620D01*
X160320797Y-72135103D01*
X160234032Y-71925634D01*
X160189800Y-71703264D01*
X160189800Y-71476536D01*
X160234032Y-71254166D01*
X160320797Y-71044697D01*
X160446760Y-70856180D01*
X160607080Y-70695860D01*
X160795597Y-70569897D01*
X161005066Y-70483132D01*
X161116251Y-70461016D01*
X161227435Y-70438900D01*
X161454165Y-70438900D01*
X161565349Y-70461016D01*
X161565349Y-70461016D01*
G37*
G36*
X143091000Y-70701000D02*
G01*
X141389000Y-70701000D01*
X141389000Y-68999000D01*
X143091000Y-68999000D01*
X143091000Y-70701000D01*
X143091000Y-70701000D01*
G37*
G36*
X157728228Y-69031703D02*
G01*
X157883100Y-69095853D01*
X158022481Y-69188985D01*
X158141015Y-69307519D01*
X158234147Y-69446900D01*
X158298297Y-69601772D01*
X158331000Y-69766184D01*
X158331000Y-69933816D01*
X158298297Y-70098228D01*
X158234147Y-70253100D01*
X158141015Y-70392481D01*
X158022481Y-70511015D01*
X157883100Y-70604147D01*
X157728228Y-70668297D01*
X157563816Y-70701000D01*
X157396184Y-70701000D01*
X157231772Y-70668297D01*
X157076900Y-70604147D01*
X156937519Y-70511015D01*
X156818985Y-70392481D01*
X156725853Y-70253100D01*
X156661703Y-70098228D01*
X156629000Y-69933816D01*
X156629000Y-69766184D01*
X156661703Y-69601772D01*
X156725853Y-69446900D01*
X156818985Y-69307519D01*
X156937519Y-69188985D01*
X157076900Y-69095853D01*
X157231772Y-69031703D01*
X157396184Y-68999000D01*
X157563816Y-68999000D01*
X157728228Y-69031703D01*
X157728228Y-69031703D01*
G37*
M02*
