G04 #@! TF.GenerationSoftware,KiCad,Pcbnew,(5.1.4)-1*
G04 #@! TF.CreationDate,2019-09-22T21:20:08-07:00*
G04 #@! TF.ProjectId,macropad,6d616372-6f70-4616-942e-6b696361645f,rev?*
G04 #@! TF.SameCoordinates,Original*
G04 #@! TF.FileFunction,Other,ECO2*
%FSLAX46Y46*%
G04 Gerber Fmt 4.6, Leading zero omitted, Abs format (unit mm)*
G04 Created by KiCad (PCBNEW (5.1.4)-1) date 2019-09-22 21:20:08*
%MOMM*%
%LPD*%
G04 APERTURE LIST*
%ADD10C,0.010000*%
G04 APERTURE END LIST*
D10*
G36*
X151280114Y-78994537D02*
G01*
X152131250Y-78724185D01*
X152940610Y-78306498D01*
X153690301Y-77741477D01*
X153921605Y-77522639D01*
X154535256Y-76796570D01*
X155001574Y-76004927D01*
X155320557Y-75165602D01*
X155492207Y-74296487D01*
X155516522Y-73415473D01*
X155393504Y-72540452D01*
X155123151Y-71689316D01*
X154705464Y-70879957D01*
X154140444Y-70130266D01*
X153921605Y-69898962D01*
X153187507Y-69280196D01*
X152376739Y-68807789D01*
X151505557Y-68486540D01*
X150590220Y-68321252D01*
X149646985Y-68316726D01*
X148924433Y-68423124D01*
X148142722Y-68668334D01*
X147374066Y-69057890D01*
X146658955Y-69569040D01*
X146297928Y-69898962D01*
X145684277Y-70625031D01*
X145217959Y-71416674D01*
X144898976Y-72255998D01*
X144727326Y-73125114D01*
X144711162Y-73710800D01*
X144863373Y-73710800D01*
X144945324Y-72831639D01*
X145181542Y-71976655D01*
X145557578Y-71169155D01*
X146058981Y-70432448D01*
X146671301Y-69789844D01*
X147380088Y-69264650D01*
X147744016Y-69064215D01*
X148619858Y-68707290D01*
X149480910Y-68513361D01*
X150347010Y-68479673D01*
X151168100Y-68588412D01*
X152031784Y-68853129D01*
X152832151Y-69263448D01*
X153551817Y-69801987D01*
X154173402Y-70451365D01*
X154679524Y-71194200D01*
X155052801Y-72013110D01*
X155232155Y-72652467D01*
X155337818Y-73552806D01*
X155285183Y-74443817D01*
X155083765Y-75305812D01*
X154743077Y-76119106D01*
X154272634Y-76864010D01*
X153681947Y-77520838D01*
X152980532Y-78069902D01*
X152475517Y-78356838D01*
X151576139Y-78719542D01*
X150687165Y-78913739D01*
X149802299Y-78939427D01*
X148915244Y-78796607D01*
X148019706Y-78485279D01*
X147744016Y-78356838D01*
X146995379Y-77896092D01*
X146336130Y-77306815D01*
X145780730Y-76612331D01*
X145343640Y-75835962D01*
X145039321Y-75001031D01*
X144882234Y-74130863D01*
X144863373Y-73710800D01*
X144711162Y-73710800D01*
X144703011Y-74006127D01*
X144826029Y-74881148D01*
X145096382Y-75732284D01*
X145514069Y-76541643D01*
X146079089Y-77291335D01*
X146297928Y-77522639D01*
X147023997Y-78136290D01*
X147815640Y-78602608D01*
X148654965Y-78921591D01*
X149524080Y-79093240D01*
X150405094Y-79117556D01*
X151280114Y-78994537D01*
X151280114Y-78994537D01*
G37*
X151280114Y-78994537D02*
X152131250Y-78724185D01*
X152940610Y-78306498D01*
X153690301Y-77741477D01*
X153921605Y-77522639D01*
X154535256Y-76796570D01*
X155001574Y-76004927D01*
X155320557Y-75165602D01*
X155492207Y-74296487D01*
X155516522Y-73415473D01*
X155393504Y-72540452D01*
X155123151Y-71689316D01*
X154705464Y-70879957D01*
X154140444Y-70130266D01*
X153921605Y-69898962D01*
X153187507Y-69280196D01*
X152376739Y-68807789D01*
X151505557Y-68486540D01*
X150590220Y-68321252D01*
X149646985Y-68316726D01*
X148924433Y-68423124D01*
X148142722Y-68668334D01*
X147374066Y-69057890D01*
X146658955Y-69569040D01*
X146297928Y-69898962D01*
X145684277Y-70625031D01*
X145217959Y-71416674D01*
X144898976Y-72255998D01*
X144727326Y-73125114D01*
X144711162Y-73710800D01*
X144863373Y-73710800D01*
X144945324Y-72831639D01*
X145181542Y-71976655D01*
X145557578Y-71169155D01*
X146058981Y-70432448D01*
X146671301Y-69789844D01*
X147380088Y-69264650D01*
X147744016Y-69064215D01*
X148619858Y-68707290D01*
X149480910Y-68513361D01*
X150347010Y-68479673D01*
X151168100Y-68588412D01*
X152031784Y-68853129D01*
X152832151Y-69263448D01*
X153551817Y-69801987D01*
X154173402Y-70451365D01*
X154679524Y-71194200D01*
X155052801Y-72013110D01*
X155232155Y-72652467D01*
X155337818Y-73552806D01*
X155285183Y-74443817D01*
X155083765Y-75305812D01*
X154743077Y-76119106D01*
X154272634Y-76864010D01*
X153681947Y-77520838D01*
X152980532Y-78069902D01*
X152475517Y-78356838D01*
X151576139Y-78719542D01*
X150687165Y-78913739D01*
X149802299Y-78939427D01*
X148915244Y-78796607D01*
X148019706Y-78485279D01*
X147744016Y-78356838D01*
X146995379Y-77896092D01*
X146336130Y-77306815D01*
X145780730Y-76612331D01*
X145343640Y-75835962D01*
X145039321Y-75001031D01*
X144882234Y-74130863D01*
X144863373Y-73710800D01*
X144711162Y-73710800D01*
X144703011Y-74006127D01*
X144826029Y-74881148D01*
X145096382Y-75732284D01*
X145514069Y-76541643D01*
X146079089Y-77291335D01*
X146297928Y-77522639D01*
X147023997Y-78136290D01*
X147815640Y-78602608D01*
X148654965Y-78921591D01*
X149524080Y-79093240D01*
X150405094Y-79117556D01*
X151280114Y-78994537D01*
G36*
X130792369Y-88189766D02*
G01*
X131663971Y-87956956D01*
X132475030Y-87586306D01*
X133211337Y-87092025D01*
X133858682Y-86488322D01*
X134402857Y-85789406D01*
X134829652Y-85009486D01*
X135124859Y-84162771D01*
X135274269Y-83263471D01*
X135290160Y-82854800D01*
X135209507Y-81935411D01*
X134976983Y-81063272D01*
X134606741Y-80252413D01*
X134112934Y-79516864D01*
X133509715Y-78870654D01*
X132811237Y-78327812D01*
X132031652Y-77902369D01*
X131185115Y-77608354D01*
X130285777Y-77459796D01*
X129832100Y-77444335D01*
X129419369Y-77466446D01*
X128972768Y-77518042D01*
X128689100Y-77567793D01*
X127831886Y-77835650D01*
X127040190Y-78247147D01*
X126328192Y-78784563D01*
X125710073Y-79430174D01*
X125200015Y-80166258D01*
X124812197Y-80975091D01*
X124560802Y-81838951D01*
X124460010Y-82740114D01*
X124458707Y-82854800D01*
X124463428Y-82908463D01*
X128724271Y-82908463D01*
X128729118Y-82161649D01*
X128745895Y-81445821D01*
X128774608Y-80794159D01*
X128815266Y-80239841D01*
X128867878Y-79816048D01*
X128877219Y-79763558D01*
X129034195Y-79030210D01*
X129202372Y-78433109D01*
X129378601Y-77979785D01*
X129559733Y-77677763D01*
X129742621Y-77534571D01*
X129814231Y-77523414D01*
X129944414Y-77535066D01*
X130191202Y-77563300D01*
X130503362Y-77602227D01*
X130531946Y-77605928D01*
X131403436Y-77801912D01*
X132223743Y-78147333D01*
X132975141Y-78625631D01*
X133639907Y-79220247D01*
X134200314Y-79914625D01*
X134638640Y-80692203D01*
X134937159Y-81536425D01*
X134991101Y-81771731D01*
X135093467Y-82416138D01*
X135114145Y-82996826D01*
X135053135Y-83598401D01*
X134991101Y-83937870D01*
X134763736Y-84742351D01*
X134417602Y-85463294D01*
X133933419Y-86135743D01*
X133560135Y-86539001D01*
X132916155Y-87114215D01*
X132269653Y-87544231D01*
X131580991Y-87849068D01*
X130810528Y-88048742D01*
X130458439Y-88105319D01*
X130116098Y-88149304D01*
X129896872Y-88163400D01*
X129756408Y-88142796D01*
X129650356Y-88082683D01*
X129566509Y-88008578D01*
X129402479Y-87773764D01*
X129238040Y-87383423D01*
X129077773Y-86851288D01*
X128926257Y-86191090D01*
X128878693Y-85946042D01*
X128824014Y-85541990D01*
X128781224Y-85003026D01*
X128750332Y-84362331D01*
X128731345Y-83653083D01*
X128724271Y-82908463D01*
X124463428Y-82908463D01*
X124539468Y-83772736D01*
X124772278Y-84644338D01*
X125142927Y-85455397D01*
X125637208Y-86191704D01*
X126240911Y-86839049D01*
X126939827Y-87383224D01*
X127719747Y-87810019D01*
X128566462Y-88105226D01*
X129465763Y-88254636D01*
X129874433Y-88270527D01*
X130792369Y-88189766D01*
X130792369Y-88189766D01*
G37*
X130792369Y-88189766D02*
X131663971Y-87956956D01*
X132475030Y-87586306D01*
X133211337Y-87092025D01*
X133858682Y-86488322D01*
X134402857Y-85789406D01*
X134829652Y-85009486D01*
X135124859Y-84162771D01*
X135274269Y-83263471D01*
X135290160Y-82854800D01*
X135209507Y-81935411D01*
X134976983Y-81063272D01*
X134606741Y-80252413D01*
X134112934Y-79516864D01*
X133509715Y-78870654D01*
X132811237Y-78327812D01*
X132031652Y-77902369D01*
X131185115Y-77608354D01*
X130285777Y-77459796D01*
X129832100Y-77444335D01*
X129419369Y-77466446D01*
X128972768Y-77518042D01*
X128689100Y-77567793D01*
X127831886Y-77835650D01*
X127040190Y-78247147D01*
X126328192Y-78784563D01*
X125710073Y-79430174D01*
X125200015Y-80166258D01*
X124812197Y-80975091D01*
X124560802Y-81838951D01*
X124460010Y-82740114D01*
X124458707Y-82854800D01*
X124463428Y-82908463D01*
X128724271Y-82908463D01*
X128729118Y-82161649D01*
X128745895Y-81445821D01*
X128774608Y-80794159D01*
X128815266Y-80239841D01*
X128867878Y-79816048D01*
X128877219Y-79763558D01*
X129034195Y-79030210D01*
X129202372Y-78433109D01*
X129378601Y-77979785D01*
X129559733Y-77677763D01*
X129742621Y-77534571D01*
X129814231Y-77523414D01*
X129944414Y-77535066D01*
X130191202Y-77563300D01*
X130503362Y-77602227D01*
X130531946Y-77605928D01*
X131403436Y-77801912D01*
X132223743Y-78147333D01*
X132975141Y-78625631D01*
X133639907Y-79220247D01*
X134200314Y-79914625D01*
X134638640Y-80692203D01*
X134937159Y-81536425D01*
X134991101Y-81771731D01*
X135093467Y-82416138D01*
X135114145Y-82996826D01*
X135053135Y-83598401D01*
X134991101Y-83937870D01*
X134763736Y-84742351D01*
X134417602Y-85463294D01*
X133933419Y-86135743D01*
X133560135Y-86539001D01*
X132916155Y-87114215D01*
X132269653Y-87544231D01*
X131580991Y-87849068D01*
X130810528Y-88048742D01*
X130458439Y-88105319D01*
X130116098Y-88149304D01*
X129896872Y-88163400D01*
X129756408Y-88142796D01*
X129650356Y-88082683D01*
X129566509Y-88008578D01*
X129402479Y-87773764D01*
X129238040Y-87383423D01*
X129077773Y-86851288D01*
X128926257Y-86191090D01*
X128878693Y-85946042D01*
X128824014Y-85541990D01*
X128781224Y-85003026D01*
X128750332Y-84362331D01*
X128731345Y-83653083D01*
X128724271Y-82908463D01*
X124463428Y-82908463D01*
X124539468Y-83772736D01*
X124772278Y-84644338D01*
X125142927Y-85455397D01*
X125637208Y-86191704D01*
X126240911Y-86839049D01*
X126939827Y-87383224D01*
X127719747Y-87810019D01*
X128566462Y-88105226D01*
X129465763Y-88254636D01*
X129874433Y-88270527D01*
X130792369Y-88189766D01*
G36*
X170922781Y-88223204D02*
G01*
X171773917Y-87952851D01*
X172583276Y-87535165D01*
X173332968Y-86970144D01*
X173564272Y-86751305D01*
X174178621Y-86024643D01*
X174645279Y-85232832D01*
X174964253Y-84393541D01*
X175135549Y-83524443D01*
X175159174Y-82643206D01*
X175035135Y-81767502D01*
X174763437Y-80915002D01*
X174344088Y-80103375D01*
X173777095Y-79350293D01*
X173561406Y-79121470D01*
X172835256Y-78507637D01*
X172029655Y-78037936D01*
X171161725Y-77717405D01*
X170248592Y-77551085D01*
X169307379Y-77544015D01*
X168567100Y-77651791D01*
X167785389Y-77897001D01*
X167016733Y-78286557D01*
X166301622Y-78797707D01*
X165940595Y-79127628D01*
X165326943Y-79853697D01*
X164860626Y-80645340D01*
X164541642Y-81484665D01*
X164369993Y-82353780D01*
X164353829Y-82939467D01*
X164503100Y-82939467D01*
X164551604Y-82335269D01*
X164685158Y-81671190D01*
X164885825Y-81021765D01*
X165067861Y-80592648D01*
X165505970Y-79873813D01*
X166071238Y-79221724D01*
X166735640Y-78656931D01*
X167471145Y-78199986D01*
X168249725Y-77871442D01*
X169019997Y-77694819D01*
X169415403Y-77646286D01*
X169680705Y-77626260D01*
X169853269Y-77638178D01*
X169970459Y-77685475D01*
X170069638Y-77771587D01*
X170090089Y-77793220D01*
X170236129Y-78025050D01*
X170388414Y-78404438D01*
X170540118Y-78910113D01*
X170684413Y-79520805D01*
X170749647Y-79848225D01*
X170804135Y-80248524D01*
X170846668Y-80784554D01*
X170877256Y-81423136D01*
X170895905Y-82131090D01*
X170902623Y-82875236D01*
X170897420Y-83622395D01*
X170880302Y-84339388D01*
X170851277Y-84993036D01*
X170810354Y-85550158D01*
X170757540Y-85977576D01*
X170748173Y-86030709D01*
X170600573Y-86730372D01*
X170442703Y-87306531D01*
X170279141Y-87745453D01*
X170114467Y-88033405D01*
X170060357Y-88093245D01*
X169950972Y-88186225D01*
X169840515Y-88236079D01*
X169684634Y-88247618D01*
X169438977Y-88225652D01*
X169168427Y-88189986D01*
X168352518Y-88027973D01*
X167634813Y-87769082D01*
X166975672Y-87393295D01*
X166335457Y-86880594D01*
X166066732Y-86623668D01*
X165672588Y-86206048D01*
X165379363Y-85831833D01*
X165147990Y-85449149D01*
X165077564Y-85310133D01*
X164831148Y-84701114D01*
X164642331Y-84028909D01*
X164528627Y-83365798D01*
X164503100Y-82939467D01*
X164353829Y-82939467D01*
X164345678Y-83234794D01*
X164468696Y-84109815D01*
X164739049Y-84960951D01*
X165156735Y-85770310D01*
X165721756Y-86520001D01*
X165940595Y-86751305D01*
X166666664Y-87364957D01*
X167458307Y-87831274D01*
X168297631Y-88150258D01*
X169166747Y-88321907D01*
X170047760Y-88346222D01*
X170922781Y-88223204D01*
X170922781Y-88223204D01*
G37*
X170922781Y-88223204D02*
X171773917Y-87952851D01*
X172583276Y-87535165D01*
X173332968Y-86970144D01*
X173564272Y-86751305D01*
X174178621Y-86024643D01*
X174645279Y-85232832D01*
X174964253Y-84393541D01*
X175135549Y-83524443D01*
X175159174Y-82643206D01*
X175035135Y-81767502D01*
X174763437Y-80915002D01*
X174344088Y-80103375D01*
X173777095Y-79350293D01*
X173561406Y-79121470D01*
X172835256Y-78507637D01*
X172029655Y-78037936D01*
X171161725Y-77717405D01*
X170248592Y-77551085D01*
X169307379Y-77544015D01*
X168567100Y-77651791D01*
X167785389Y-77897001D01*
X167016733Y-78286557D01*
X166301622Y-78797707D01*
X165940595Y-79127628D01*
X165326943Y-79853697D01*
X164860626Y-80645340D01*
X164541642Y-81484665D01*
X164369993Y-82353780D01*
X164353829Y-82939467D01*
X164503100Y-82939467D01*
X164551604Y-82335269D01*
X164685158Y-81671190D01*
X164885825Y-81021765D01*
X165067861Y-80592648D01*
X165505970Y-79873813D01*
X166071238Y-79221724D01*
X166735640Y-78656931D01*
X167471145Y-78199986D01*
X168249725Y-77871442D01*
X169019997Y-77694819D01*
X169415403Y-77646286D01*
X169680705Y-77626260D01*
X169853269Y-77638178D01*
X169970459Y-77685475D01*
X170069638Y-77771587D01*
X170090089Y-77793220D01*
X170236129Y-78025050D01*
X170388414Y-78404438D01*
X170540118Y-78910113D01*
X170684413Y-79520805D01*
X170749647Y-79848225D01*
X170804135Y-80248524D01*
X170846668Y-80784554D01*
X170877256Y-81423136D01*
X170895905Y-82131090D01*
X170902623Y-82875236D01*
X170897420Y-83622395D01*
X170880302Y-84339388D01*
X170851277Y-84993036D01*
X170810354Y-85550158D01*
X170757540Y-85977576D01*
X170748173Y-86030709D01*
X170600573Y-86730372D01*
X170442703Y-87306531D01*
X170279141Y-87745453D01*
X170114467Y-88033405D01*
X170060357Y-88093245D01*
X169950972Y-88186225D01*
X169840515Y-88236079D01*
X169684634Y-88247618D01*
X169438977Y-88225652D01*
X169168427Y-88189986D01*
X168352518Y-88027973D01*
X167634813Y-87769082D01*
X166975672Y-87393295D01*
X166335457Y-86880594D01*
X166066732Y-86623668D01*
X165672588Y-86206048D01*
X165379363Y-85831833D01*
X165147990Y-85449149D01*
X165077564Y-85310133D01*
X164831148Y-84701114D01*
X164642331Y-84028909D01*
X164528627Y-83365798D01*
X164503100Y-82939467D01*
X164353829Y-82939467D01*
X164345678Y-83234794D01*
X164468696Y-84109815D01*
X164739049Y-84960951D01*
X165156735Y-85770310D01*
X165721756Y-86520001D01*
X165940595Y-86751305D01*
X166666664Y-87364957D01*
X167458307Y-87831274D01*
X168297631Y-88150258D01*
X169166747Y-88321907D01*
X170047760Y-88346222D01*
X170922781Y-88223204D01*
G36*
X180320781Y-107865871D02*
G01*
X181171917Y-107595518D01*
X181981276Y-107177831D01*
X182730968Y-106612811D01*
X182962272Y-106393972D01*
X183576621Y-105667310D01*
X184043279Y-104875499D01*
X184362253Y-104036208D01*
X184533549Y-103167109D01*
X184557174Y-102285873D01*
X184433135Y-101410169D01*
X184161437Y-100557668D01*
X183742088Y-99746042D01*
X183175095Y-98992960D01*
X182959406Y-98764136D01*
X182233256Y-98150303D01*
X181427655Y-97680602D01*
X180559725Y-97360072D01*
X179646592Y-97193752D01*
X178705379Y-97186681D01*
X177965100Y-97294458D01*
X177183389Y-97539668D01*
X176414733Y-97929223D01*
X175699622Y-98440373D01*
X175338595Y-98770295D01*
X174724943Y-99496364D01*
X174258626Y-100288007D01*
X173939642Y-101127332D01*
X173767993Y-101996447D01*
X173743678Y-102877461D01*
X173746040Y-102894266D01*
X173911478Y-102894266D01*
X173931536Y-102021859D01*
X174099848Y-101161906D01*
X174416453Y-100333061D01*
X174881392Y-99553976D01*
X175297886Y-99045234D01*
X175910451Y-98456517D01*
X176539234Y-98006659D01*
X177225401Y-97667030D01*
X177348721Y-97618947D01*
X177731071Y-97495637D01*
X178157593Y-97390288D01*
X178571713Y-97314055D01*
X178916856Y-97278095D01*
X179065767Y-97280340D01*
X179091891Y-97298679D01*
X179114234Y-97356157D01*
X179133085Y-97464731D01*
X179148727Y-97636356D01*
X179161449Y-97882988D01*
X179171536Y-98216583D01*
X179179275Y-98649098D01*
X179184951Y-99192487D01*
X179188852Y-99858708D01*
X179191263Y-100659717D01*
X179192471Y-101607468D01*
X179192767Y-102583293D01*
X179192767Y-107873800D01*
X178684767Y-107845909D01*
X178171268Y-107771303D01*
X177590972Y-107612745D01*
X177008860Y-107392623D01*
X176489916Y-107133321D01*
X176332319Y-107035520D01*
X176043813Y-106817864D01*
X175707876Y-106525455D01*
X175386347Y-106212901D01*
X175312990Y-106135347D01*
X174740430Y-105399666D01*
X174315965Y-104601823D01*
X174039635Y-103760472D01*
X173911478Y-102894266D01*
X173746040Y-102894266D01*
X173866696Y-103752481D01*
X174137049Y-104603617D01*
X174554735Y-105412977D01*
X175119756Y-106162668D01*
X175338595Y-106393972D01*
X176064664Y-107007623D01*
X176856307Y-107473941D01*
X177695631Y-107792924D01*
X178564747Y-107964574D01*
X179445760Y-107988889D01*
X180320781Y-107865871D01*
X180320781Y-107865871D01*
G37*
X180320781Y-107865871D02*
X181171917Y-107595518D01*
X181981276Y-107177831D01*
X182730968Y-106612811D01*
X182962272Y-106393972D01*
X183576621Y-105667310D01*
X184043279Y-104875499D01*
X184362253Y-104036208D01*
X184533549Y-103167109D01*
X184557174Y-102285873D01*
X184433135Y-101410169D01*
X184161437Y-100557668D01*
X183742088Y-99746042D01*
X183175095Y-98992960D01*
X182959406Y-98764136D01*
X182233256Y-98150303D01*
X181427655Y-97680602D01*
X180559725Y-97360072D01*
X179646592Y-97193752D01*
X178705379Y-97186681D01*
X177965100Y-97294458D01*
X177183389Y-97539668D01*
X176414733Y-97929223D01*
X175699622Y-98440373D01*
X175338595Y-98770295D01*
X174724943Y-99496364D01*
X174258626Y-100288007D01*
X173939642Y-101127332D01*
X173767993Y-101996447D01*
X173743678Y-102877461D01*
X173746040Y-102894266D01*
X173911478Y-102894266D01*
X173931536Y-102021859D01*
X174099848Y-101161906D01*
X174416453Y-100333061D01*
X174881392Y-99553976D01*
X175297886Y-99045234D01*
X175910451Y-98456517D01*
X176539234Y-98006659D01*
X177225401Y-97667030D01*
X177348721Y-97618947D01*
X177731071Y-97495637D01*
X178157593Y-97390288D01*
X178571713Y-97314055D01*
X178916856Y-97278095D01*
X179065767Y-97280340D01*
X179091891Y-97298679D01*
X179114234Y-97356157D01*
X179133085Y-97464731D01*
X179148727Y-97636356D01*
X179161449Y-97882988D01*
X179171536Y-98216583D01*
X179179275Y-98649098D01*
X179184951Y-99192487D01*
X179188852Y-99858708D01*
X179191263Y-100659717D01*
X179192471Y-101607468D01*
X179192767Y-102583293D01*
X179192767Y-107873800D01*
X178684767Y-107845909D01*
X178171268Y-107771303D01*
X177590972Y-107612745D01*
X177008860Y-107392623D01*
X176489916Y-107133321D01*
X176332319Y-107035520D01*
X176043813Y-106817864D01*
X175707876Y-106525455D01*
X175386347Y-106212901D01*
X175312990Y-106135347D01*
X174740430Y-105399666D01*
X174315965Y-104601823D01*
X174039635Y-103760472D01*
X173911478Y-102894266D01*
X173746040Y-102894266D01*
X173866696Y-103752481D01*
X174137049Y-104603617D01*
X174554735Y-105412977D01*
X175119756Y-106162668D01*
X175338595Y-106393972D01*
X176064664Y-107007623D01*
X176856307Y-107473941D01*
X177695631Y-107792924D01*
X178564747Y-107964574D01*
X179445760Y-107988889D01*
X180320781Y-107865871D01*
G36*
X121055703Y-108340432D02*
G01*
X121927305Y-108107622D01*
X122738363Y-107736973D01*
X123474670Y-107242692D01*
X124122015Y-106638989D01*
X124666190Y-105940073D01*
X125092985Y-105160153D01*
X125388193Y-104313438D01*
X125537602Y-103414137D01*
X125553493Y-103005467D01*
X125474051Y-102080932D01*
X125245252Y-101211357D01*
X124881385Y-100408190D01*
X124396741Y-99682876D01*
X123805607Y-99046863D01*
X123122275Y-98511596D01*
X122361034Y-98088522D01*
X121536173Y-97789087D01*
X120661982Y-97624738D01*
X119752751Y-97606922D01*
X119229238Y-97679445D01*
X120307100Y-97679445D01*
X120751600Y-97725250D01*
X121107328Y-97777473D01*
X121498761Y-97857230D01*
X121661767Y-97898104D01*
X122414661Y-98186974D01*
X123130340Y-98621411D01*
X123785219Y-99178198D01*
X124355718Y-99834117D01*
X124818254Y-100565952D01*
X125140227Y-101322657D01*
X125232099Y-101631287D01*
X125292270Y-101920731D01*
X125326923Y-102241852D01*
X125342239Y-102645516D01*
X125344767Y-103005467D01*
X125316155Y-103755184D01*
X125221366Y-104392690D01*
X125046965Y-104966679D01*
X124779521Y-105525848D01*
X124541902Y-105915972D01*
X123958165Y-106666359D01*
X123276914Y-107286420D01*
X122511241Y-107767968D01*
X121674238Y-108102818D01*
X120778998Y-108282786D01*
X120751600Y-108285684D01*
X120307100Y-108331489D01*
X120307100Y-97679445D01*
X119229238Y-97679445D01*
X118952433Y-97717791D01*
X118122441Y-97978848D01*
X117339516Y-98386812D01*
X116623734Y-98921424D01*
X115995172Y-99562421D01*
X115473907Y-100289543D01*
X115080017Y-101082530D01*
X114845378Y-101862467D01*
X114733181Y-102789309D01*
X114777498Y-103692935D01*
X114966775Y-104559026D01*
X115289459Y-105373264D01*
X115733997Y-106121333D01*
X116288836Y-106788914D01*
X116942423Y-107361690D01*
X117683204Y-107825344D01*
X118499626Y-108165558D01*
X119380137Y-108368015D01*
X120137767Y-108421193D01*
X121055703Y-108340432D01*
X121055703Y-108340432D01*
G37*
X121055703Y-108340432D02*
X121927305Y-108107622D01*
X122738363Y-107736973D01*
X123474670Y-107242692D01*
X124122015Y-106638989D01*
X124666190Y-105940073D01*
X125092985Y-105160153D01*
X125388193Y-104313438D01*
X125537602Y-103414137D01*
X125553493Y-103005467D01*
X125474051Y-102080932D01*
X125245252Y-101211357D01*
X124881385Y-100408190D01*
X124396741Y-99682876D01*
X123805607Y-99046863D01*
X123122275Y-98511596D01*
X122361034Y-98088522D01*
X121536173Y-97789087D01*
X120661982Y-97624738D01*
X119752751Y-97606922D01*
X119229238Y-97679445D01*
X120307100Y-97679445D01*
X120751600Y-97725250D01*
X121107328Y-97777473D01*
X121498761Y-97857230D01*
X121661767Y-97898104D01*
X122414661Y-98186974D01*
X123130340Y-98621411D01*
X123785219Y-99178198D01*
X124355718Y-99834117D01*
X124818254Y-100565952D01*
X125140227Y-101322657D01*
X125232099Y-101631287D01*
X125292270Y-101920731D01*
X125326923Y-102241852D01*
X125342239Y-102645516D01*
X125344767Y-103005467D01*
X125316155Y-103755184D01*
X125221366Y-104392690D01*
X125046965Y-104966679D01*
X124779521Y-105525848D01*
X124541902Y-105915972D01*
X123958165Y-106666359D01*
X123276914Y-107286420D01*
X122511241Y-107767968D01*
X121674238Y-108102818D01*
X120778998Y-108282786D01*
X120751600Y-108285684D01*
X120307100Y-108331489D01*
X120307100Y-97679445D01*
X119229238Y-97679445D01*
X118952433Y-97717791D01*
X118122441Y-97978848D01*
X117339516Y-98386812D01*
X116623734Y-98921424D01*
X115995172Y-99562421D01*
X115473907Y-100289543D01*
X115080017Y-101082530D01*
X114845378Y-101862467D01*
X114733181Y-102789309D01*
X114777498Y-103692935D01*
X114966775Y-104559026D01*
X115289459Y-105373264D01*
X115733997Y-106121333D01*
X116288836Y-106788914D01*
X116942423Y-107361690D01*
X117683204Y-107825344D01*
X118499626Y-108165558D01*
X119380137Y-108368015D01*
X120137767Y-108421193D01*
X121055703Y-108340432D01*
G36*
X172277448Y-127508537D02*
G01*
X173128584Y-127238185D01*
X173937943Y-126820498D01*
X174687634Y-126255477D01*
X174918938Y-126036639D01*
X175532590Y-125310570D01*
X175998907Y-124518927D01*
X176317891Y-123679602D01*
X176489540Y-122810487D01*
X176513855Y-121929473D01*
X176390837Y-121054452D01*
X176120484Y-120203316D01*
X175702798Y-119393957D01*
X175137777Y-118644266D01*
X174918938Y-118412962D01*
X174184840Y-117794196D01*
X173374072Y-117321789D01*
X172502891Y-117000540D01*
X171587554Y-116835252D01*
X170644319Y-116830726D01*
X169921767Y-116937124D01*
X169140055Y-117182334D01*
X168371400Y-117571890D01*
X167656289Y-118083040D01*
X167295261Y-118412962D01*
X166681610Y-119139031D01*
X166215292Y-119930674D01*
X165896309Y-120769998D01*
X165724660Y-121639114D01*
X165712206Y-122090347D01*
X165864346Y-122090347D01*
X165959475Y-121196627D01*
X166200935Y-120334208D01*
X166587467Y-119528487D01*
X166737623Y-119292619D01*
X167062292Y-118879766D01*
X167479733Y-118442787D01*
X167933265Y-118037158D01*
X168305736Y-117757839D01*
X168651920Y-117558732D01*
X169074638Y-117363370D01*
X169523672Y-117190336D01*
X169948809Y-117058212D01*
X170299830Y-116985581D01*
X170415113Y-116977270D01*
X170696792Y-116975467D01*
X170435681Y-117236578D01*
X170024368Y-117757655D01*
X169682401Y-118423670D01*
X169412755Y-119223772D01*
X169218407Y-120147116D01*
X169102331Y-121182852D01*
X169067231Y-122224800D01*
X169108383Y-123353775D01*
X169229925Y-124378478D01*
X169428981Y-125288486D01*
X169702678Y-126073375D01*
X170048142Y-126722722D01*
X170440410Y-127204779D01*
X170715912Y-127474133D01*
X170450210Y-127474134D01*
X170130013Y-127433409D01*
X169716062Y-127323544D01*
X169259518Y-127163004D01*
X168811538Y-126970253D01*
X168423282Y-126763753D01*
X168344698Y-126714217D01*
X167870290Y-126353058D01*
X167390197Y-125900938D01*
X166949605Y-125406263D01*
X166593698Y-124917439D01*
X166469521Y-124705354D01*
X166118111Y-123870107D01*
X165916805Y-122989973D01*
X165864346Y-122090347D01*
X165712206Y-122090347D01*
X165700344Y-122520127D01*
X165823363Y-123395148D01*
X166093715Y-124246284D01*
X166511402Y-125055643D01*
X167076423Y-125805335D01*
X167295261Y-126036639D01*
X168021330Y-126650290D01*
X168812973Y-127116608D01*
X169652298Y-127435591D01*
X170521413Y-127607240D01*
X171402427Y-127631556D01*
X172277448Y-127508537D01*
X172277448Y-127508537D01*
G37*
X172277448Y-127508537D02*
X173128584Y-127238185D01*
X173937943Y-126820498D01*
X174687634Y-126255477D01*
X174918938Y-126036639D01*
X175532590Y-125310570D01*
X175998907Y-124518927D01*
X176317891Y-123679602D01*
X176489540Y-122810487D01*
X176513855Y-121929473D01*
X176390837Y-121054452D01*
X176120484Y-120203316D01*
X175702798Y-119393957D01*
X175137777Y-118644266D01*
X174918938Y-118412962D01*
X174184840Y-117794196D01*
X173374072Y-117321789D01*
X172502891Y-117000540D01*
X171587554Y-116835252D01*
X170644319Y-116830726D01*
X169921767Y-116937124D01*
X169140055Y-117182334D01*
X168371400Y-117571890D01*
X167656289Y-118083040D01*
X167295261Y-118412962D01*
X166681610Y-119139031D01*
X166215292Y-119930674D01*
X165896309Y-120769998D01*
X165724660Y-121639114D01*
X165712206Y-122090347D01*
X165864346Y-122090347D01*
X165959475Y-121196627D01*
X166200935Y-120334208D01*
X166587467Y-119528487D01*
X166737623Y-119292619D01*
X167062292Y-118879766D01*
X167479733Y-118442787D01*
X167933265Y-118037158D01*
X168305736Y-117757839D01*
X168651920Y-117558732D01*
X169074638Y-117363370D01*
X169523672Y-117190336D01*
X169948809Y-117058212D01*
X170299830Y-116985581D01*
X170415113Y-116977270D01*
X170696792Y-116975467D01*
X170435681Y-117236578D01*
X170024368Y-117757655D01*
X169682401Y-118423670D01*
X169412755Y-119223772D01*
X169218407Y-120147116D01*
X169102331Y-121182852D01*
X169067231Y-122224800D01*
X169108383Y-123353775D01*
X169229925Y-124378478D01*
X169428981Y-125288486D01*
X169702678Y-126073375D01*
X170048142Y-126722722D01*
X170440410Y-127204779D01*
X170715912Y-127474133D01*
X170450210Y-127474134D01*
X170130013Y-127433409D01*
X169716062Y-127323544D01*
X169259518Y-127163004D01*
X168811538Y-126970253D01*
X168423282Y-126763753D01*
X168344698Y-126714217D01*
X167870290Y-126353058D01*
X167390197Y-125900938D01*
X166949605Y-125406263D01*
X166593698Y-124917439D01*
X166469521Y-124705354D01*
X166118111Y-123870107D01*
X165916805Y-122989973D01*
X165864346Y-122090347D01*
X165712206Y-122090347D01*
X165700344Y-122520127D01*
X165823363Y-123395148D01*
X166093715Y-124246284D01*
X166511402Y-125055643D01*
X167076423Y-125805335D01*
X167295261Y-126036639D01*
X168021330Y-126650290D01*
X168812973Y-127116608D01*
X169652298Y-127435591D01*
X170521413Y-127607240D01*
X171402427Y-127631556D01*
X172277448Y-127508537D01*
G36*
X129605448Y-128524537D02*
G01*
X130456584Y-128254185D01*
X131265943Y-127836498D01*
X132015634Y-127271477D01*
X132246938Y-127052639D01*
X132860590Y-126326570D01*
X133326907Y-125534927D01*
X133645891Y-124695602D01*
X133817540Y-123826487D01*
X133841855Y-122945473D01*
X133718837Y-122070452D01*
X133448484Y-121219316D01*
X133030798Y-120409957D01*
X132465777Y-119660266D01*
X132246938Y-119428962D01*
X131512840Y-118810196D01*
X130702072Y-118337789D01*
X129830891Y-118016540D01*
X128915554Y-117851252D01*
X127972319Y-117846726D01*
X127249767Y-117953124D01*
X126468055Y-118198334D01*
X125699400Y-118587890D01*
X124984289Y-119099040D01*
X124623261Y-119428962D01*
X124009610Y-120155031D01*
X123543292Y-120946674D01*
X123224309Y-121785998D01*
X123052660Y-122655114D01*
X123028344Y-123536127D01*
X123151363Y-124411148D01*
X123421715Y-125262284D01*
X123839402Y-126071643D01*
X124404423Y-126821335D01*
X124623261Y-127052639D01*
X125349330Y-127666290D01*
X126140973Y-128132608D01*
X126980298Y-128451591D01*
X127175448Y-128490133D01*
X128826287Y-128490133D01*
X129101790Y-128220779D01*
X129512803Y-127709928D01*
X129854781Y-127053627D01*
X130124851Y-126262299D01*
X130320138Y-125346368D01*
X130437768Y-124316259D01*
X130474969Y-123240800D01*
X130433472Y-122111316D01*
X130310967Y-121084252D01*
X130110428Y-120170456D01*
X129834833Y-119380776D01*
X129487157Y-118726062D01*
X129106519Y-118252578D01*
X128845408Y-117991467D01*
X129101550Y-117991467D01*
X129304084Y-118016967D01*
X129607393Y-118084451D01*
X129952275Y-118180392D01*
X130018229Y-118200916D01*
X130810076Y-118535069D01*
X131545025Y-119006431D01*
X132202562Y-119592164D01*
X132762171Y-120269434D01*
X133203339Y-121015404D01*
X133505549Y-121807240D01*
X133591942Y-122178900D01*
X133679129Y-123071404D01*
X133622457Y-123977705D01*
X133428027Y-124856195D01*
X133101936Y-125665267D01*
X133072679Y-125721354D01*
X132771635Y-126190930D01*
X132364863Y-126688902D01*
X131897545Y-127166864D01*
X131414868Y-127576409D01*
X131197502Y-127730217D01*
X130831183Y-127937268D01*
X130392868Y-128135001D01*
X129933714Y-128304953D01*
X129504880Y-128428659D01*
X129157525Y-128487655D01*
X129091990Y-128490133D01*
X128826287Y-128490133D01*
X127175448Y-128490133D01*
X127849413Y-128623240D01*
X128730427Y-128647556D01*
X129605448Y-128524537D01*
X129605448Y-128524537D01*
G37*
X129605448Y-128524537D02*
X130456584Y-128254185D01*
X131265943Y-127836498D01*
X132015634Y-127271477D01*
X132246938Y-127052639D01*
X132860590Y-126326570D01*
X133326907Y-125534927D01*
X133645891Y-124695602D01*
X133817540Y-123826487D01*
X133841855Y-122945473D01*
X133718837Y-122070452D01*
X133448484Y-121219316D01*
X133030798Y-120409957D01*
X132465777Y-119660266D01*
X132246938Y-119428962D01*
X131512840Y-118810196D01*
X130702072Y-118337789D01*
X129830891Y-118016540D01*
X128915554Y-117851252D01*
X127972319Y-117846726D01*
X127249767Y-117953124D01*
X126468055Y-118198334D01*
X125699400Y-118587890D01*
X124984289Y-119099040D01*
X124623261Y-119428962D01*
X124009610Y-120155031D01*
X123543292Y-120946674D01*
X123224309Y-121785998D01*
X123052660Y-122655114D01*
X123028344Y-123536127D01*
X123151363Y-124411148D01*
X123421715Y-125262284D01*
X123839402Y-126071643D01*
X124404423Y-126821335D01*
X124623261Y-127052639D01*
X125349330Y-127666290D01*
X126140973Y-128132608D01*
X126980298Y-128451591D01*
X127175448Y-128490133D01*
X128826287Y-128490133D01*
X129101790Y-128220779D01*
X129512803Y-127709928D01*
X129854781Y-127053627D01*
X130124851Y-126262299D01*
X130320138Y-125346368D01*
X130437768Y-124316259D01*
X130474969Y-123240800D01*
X130433472Y-122111316D01*
X130310967Y-121084252D01*
X130110428Y-120170456D01*
X129834833Y-119380776D01*
X129487157Y-118726062D01*
X129106519Y-118252578D01*
X128845408Y-117991467D01*
X129101550Y-117991467D01*
X129304084Y-118016967D01*
X129607393Y-118084451D01*
X129952275Y-118180392D01*
X130018229Y-118200916D01*
X130810076Y-118535069D01*
X131545025Y-119006431D01*
X132202562Y-119592164D01*
X132762171Y-120269434D01*
X133203339Y-121015404D01*
X133505549Y-121807240D01*
X133591942Y-122178900D01*
X133679129Y-123071404D01*
X133622457Y-123977705D01*
X133428027Y-124856195D01*
X133101936Y-125665267D01*
X133072679Y-125721354D01*
X132771635Y-126190930D01*
X132364863Y-126688902D01*
X131897545Y-127166864D01*
X131414868Y-127576409D01*
X131197502Y-127730217D01*
X130831183Y-127937268D01*
X130392868Y-128135001D01*
X129933714Y-128304953D01*
X129504880Y-128428659D01*
X129157525Y-128487655D01*
X129091990Y-128490133D01*
X128826287Y-128490133D01*
X127175448Y-128490133D01*
X127849413Y-128623240D01*
X128730427Y-128647556D01*
X129605448Y-128524537D01*
G36*
X150772114Y-137414537D02*
G01*
X151623250Y-137144185D01*
X152432610Y-136726498D01*
X153182301Y-136161477D01*
X153413605Y-135942639D01*
X154027954Y-135215977D01*
X154494613Y-134424165D01*
X154813586Y-133584875D01*
X154984882Y-132715776D01*
X155008507Y-131834539D01*
X154884468Y-130958835D01*
X154612770Y-130106335D01*
X154193422Y-129294709D01*
X153626429Y-128541627D01*
X153410739Y-128312803D01*
X152684738Y-127699142D01*
X151879191Y-127229453D01*
X151011449Y-126908840D01*
X150098864Y-126742407D01*
X149158789Y-126735258D01*
X148416433Y-126843793D01*
X147595592Y-127102043D01*
X146803768Y-127509910D01*
X146075983Y-128047785D01*
X145792794Y-128312803D01*
X145177897Y-129043093D01*
X144710643Y-129837660D01*
X144391038Y-130678835D01*
X144219089Y-131548947D01*
X144194802Y-132430325D01*
X144318184Y-133305299D01*
X144589241Y-134156198D01*
X145007981Y-134965351D01*
X145574410Y-135715088D01*
X145789928Y-135942639D01*
X146515997Y-136556290D01*
X147307640Y-137022608D01*
X148146965Y-137341591D01*
X149016080Y-137513240D01*
X149897094Y-137537556D01*
X150772114Y-137414537D01*
X150772114Y-137414537D01*
G37*
X150772114Y-137414537D02*
X151623250Y-137144185D01*
X152432610Y-136726498D01*
X153182301Y-136161477D01*
X153413605Y-135942639D01*
X154027954Y-135215977D01*
X154494613Y-134424165D01*
X154813586Y-133584875D01*
X154984882Y-132715776D01*
X155008507Y-131834539D01*
X154884468Y-130958835D01*
X154612770Y-130106335D01*
X154193422Y-129294709D01*
X153626429Y-128541627D01*
X153410739Y-128312803D01*
X152684738Y-127699142D01*
X151879191Y-127229453D01*
X151011449Y-126908840D01*
X150098864Y-126742407D01*
X149158789Y-126735258D01*
X148416433Y-126843793D01*
X147595592Y-127102043D01*
X146803768Y-127509910D01*
X146075983Y-128047785D01*
X145792794Y-128312803D01*
X145177897Y-129043093D01*
X144710643Y-129837660D01*
X144391038Y-130678835D01*
X144219089Y-131548947D01*
X144194802Y-132430325D01*
X144318184Y-133305299D01*
X144589241Y-134156198D01*
X145007981Y-134965351D01*
X145574410Y-135715088D01*
X145789928Y-135942639D01*
X146515997Y-136556290D01*
X147307640Y-137022608D01*
X148146965Y-137341591D01*
X149016080Y-137513240D01*
X149897094Y-137537556D01*
X150772114Y-137414537D01*
G36*
X170372562Y-74336572D02*
G01*
X170351162Y-74419566D01*
X170281013Y-74654141D01*
X170165163Y-75030661D01*
X170006658Y-75539491D01*
X169808547Y-76170996D01*
X169573878Y-76915539D01*
X169305697Y-77763485D01*
X169007054Y-78705198D01*
X168680995Y-79731043D01*
X168330569Y-80831384D01*
X167958823Y-81996585D01*
X167568805Y-83217012D01*
X167163562Y-84483027D01*
X167137765Y-84563552D01*
X166724441Y-85853677D01*
X166321103Y-87112672D01*
X165931246Y-88329620D01*
X165558369Y-89493605D01*
X165205967Y-90593709D01*
X164877537Y-91619015D01*
X164576577Y-92558607D01*
X164306583Y-93401567D01*
X164071051Y-94136979D01*
X163873480Y-94753926D01*
X163717365Y-95241491D01*
X163606203Y-95588757D01*
X163546647Y-95774933D01*
X163379869Y-96296416D01*
X163191338Y-96885393D01*
X163008675Y-97455602D01*
X162905824Y-97776396D01*
X162787221Y-98166230D01*
X162696692Y-98503162D01*
X162642982Y-98751627D01*
X162634835Y-98876059D01*
X162635207Y-98877063D01*
X162708245Y-98938443D01*
X162911834Y-99092384D01*
X163238424Y-99333457D01*
X163680466Y-99656232D01*
X164230411Y-100055279D01*
X164880709Y-100525170D01*
X165623811Y-101060474D01*
X166452167Y-101655763D01*
X167358228Y-102305606D01*
X168334445Y-103004575D01*
X169373269Y-103747240D01*
X170467149Y-104528170D01*
X171608537Y-105341938D01*
X172789883Y-106183112D01*
X173155077Y-106442933D01*
X183629466Y-113893600D01*
X178011750Y-113991607D01*
X176841842Y-114012059D01*
X175557911Y-114034579D01*
X174198114Y-114058493D01*
X172800609Y-114083128D01*
X171403553Y-114107809D01*
X170045106Y-114131863D01*
X168763424Y-114154617D01*
X167596667Y-114175396D01*
X167144700Y-114183468D01*
X166139171Y-114200769D01*
X165122878Y-114216989D01*
X164119124Y-114231839D01*
X163151207Y-114245024D01*
X162242428Y-114256253D01*
X161416089Y-114265234D01*
X160695488Y-114271674D01*
X160103928Y-114275283D01*
X159767805Y-114275961D01*
X157640243Y-114274600D01*
X157550147Y-114507433D01*
X157499358Y-114652845D01*
X157406044Y-114933706D01*
X157278670Y-115323990D01*
X157125700Y-115797672D01*
X156955600Y-116328726D01*
X156854812Y-116645266D01*
X156659260Y-117259972D01*
X156458244Y-117890442D01*
X156264934Y-118495469D01*
X156092501Y-119033846D01*
X155954115Y-119464365D01*
X155921227Y-119566266D01*
X155680189Y-120313373D01*
X155411220Y-121149311D01*
X155118004Y-122062497D01*
X154804223Y-123041348D01*
X154473563Y-124074279D01*
X154129707Y-125149709D01*
X153776339Y-126256053D01*
X153417142Y-127381728D01*
X153055800Y-128515150D01*
X152695996Y-129644736D01*
X152341416Y-130758903D01*
X151995742Y-131846067D01*
X151662658Y-132894644D01*
X151345848Y-133893052D01*
X151048996Y-134829706D01*
X150775785Y-135693024D01*
X150529899Y-136471422D01*
X150315023Y-137153317D01*
X150134839Y-137727125D01*
X149993031Y-138181262D01*
X149893284Y-138504145D01*
X149839281Y-138684192D01*
X149830367Y-138718753D01*
X149794778Y-138822302D01*
X149718928Y-138800211D01*
X149649192Y-138672333D01*
X149640401Y-138637433D01*
X149608799Y-138532126D01*
X149526218Y-138271787D01*
X149394565Y-137862250D01*
X149215743Y-137309345D01*
X148991660Y-136618905D01*
X148724220Y-135796763D01*
X148415329Y-134848750D01*
X148066891Y-133780699D01*
X147680813Y-132598442D01*
X147259000Y-131307811D01*
X146803358Y-129914638D01*
X146315791Y-128424756D01*
X145798205Y-126843996D01*
X145252506Y-125178191D01*
X144680598Y-123433173D01*
X144084389Y-121614774D01*
X143465781Y-119728826D01*
X142826683Y-117781162D01*
X142787333Y-117661266D01*
X142593899Y-117070708D01*
X142410245Y-116507794D01*
X142245461Y-116000553D01*
X142108634Y-115577014D01*
X142008853Y-115265205D01*
X141963715Y-115121266D01*
X141820905Y-114655600D01*
X139454469Y-114673285D01*
X139028741Y-114676832D01*
X138553343Y-114681519D01*
X138020648Y-114687463D01*
X137423026Y-114694782D01*
X136752849Y-114703592D01*
X136002489Y-114714009D01*
X135164316Y-114726152D01*
X134230702Y-114740137D01*
X133194019Y-114756080D01*
X132046637Y-114774099D01*
X130780929Y-114794310D01*
X129389265Y-114816830D01*
X127864018Y-114841777D01*
X126197558Y-114869266D01*
X124382257Y-114899416D01*
X122410486Y-114932342D01*
X120970338Y-114956480D01*
X120041147Y-114971640D01*
X119163195Y-114985123D01*
X118350929Y-114996762D01*
X117618800Y-115006390D01*
X116981257Y-115013840D01*
X116452748Y-115018947D01*
X116047724Y-115021542D01*
X115780633Y-115021459D01*
X115665925Y-115018532D01*
X115662612Y-115017734D01*
X115725895Y-114964874D01*
X115917248Y-114817017D01*
X116228765Y-114580082D01*
X116247400Y-114566006D01*
X145531405Y-114566006D01*
X145553968Y-114647420D01*
X145625550Y-114874922D01*
X145741341Y-115234053D01*
X145896533Y-115710351D01*
X146086315Y-116289354D01*
X146305879Y-116956601D01*
X146550414Y-117697632D01*
X146815113Y-118497985D01*
X147095166Y-119343200D01*
X147385763Y-120218814D01*
X147682095Y-121110367D01*
X147979353Y-122003398D01*
X148272727Y-122883446D01*
X148557409Y-123736049D01*
X148828589Y-124546746D01*
X149081458Y-125301077D01*
X149311207Y-125984580D01*
X149513025Y-126582794D01*
X149682105Y-127081258D01*
X149813636Y-127465510D01*
X149902810Y-127721090D01*
X149939647Y-127821266D01*
X149959690Y-127861494D01*
X149983126Y-127876659D01*
X150013726Y-127856003D01*
X150055257Y-127788766D01*
X150111490Y-127664191D01*
X150186194Y-127471518D01*
X150283138Y-127199988D01*
X150406091Y-126838843D01*
X150558823Y-126377324D01*
X150745103Y-125804673D01*
X150968700Y-125110129D01*
X151233384Y-124282936D01*
X151542923Y-123312333D01*
X151778721Y-122571933D01*
X152256162Y-121071282D01*
X152684881Y-119721552D01*
X153064519Y-118523882D01*
X153394721Y-117479409D01*
X153675126Y-116589273D01*
X153905378Y-115854611D01*
X154085120Y-115276562D01*
X154213992Y-114856265D01*
X154291638Y-114594857D01*
X154317700Y-114493478D01*
X154317700Y-114493418D01*
X154236243Y-114482860D01*
X154004664Y-114474897D01*
X153642154Y-114469371D01*
X153167903Y-114466124D01*
X152601099Y-114464996D01*
X151960933Y-114465830D01*
X151266594Y-114468467D01*
X150537272Y-114472747D01*
X149792157Y-114478514D01*
X149050438Y-114485607D01*
X148331306Y-114493869D01*
X147653949Y-114503141D01*
X147037558Y-114513265D01*
X146501322Y-114524081D01*
X146064431Y-114535432D01*
X145746075Y-114547159D01*
X145565444Y-114559103D01*
X145531405Y-114566006D01*
X116247400Y-114566006D01*
X116652541Y-114259989D01*
X117180668Y-113862655D01*
X117805241Y-113394002D01*
X118518354Y-112859948D01*
X119312101Y-112266413D01*
X120178575Y-111619316D01*
X120211271Y-111594925D01*
X125450548Y-111594925D01*
X125529264Y-111615400D01*
X125750384Y-111628066D01*
X126087142Y-111632530D01*
X126512771Y-111628397D01*
X126949200Y-111617016D01*
X127289541Y-111607867D01*
X127781091Y-111597759D01*
X128405731Y-111586936D01*
X129145341Y-111575641D01*
X129981800Y-111564117D01*
X130896989Y-111552606D01*
X131872788Y-111541352D01*
X132891078Y-111530597D01*
X133933739Y-111520584D01*
X134548033Y-111515165D01*
X135548867Y-111506206D01*
X136499963Y-111496857D01*
X137387806Y-111487304D01*
X138198884Y-111477731D01*
X138919682Y-111468323D01*
X139536687Y-111459266D01*
X140036386Y-111450743D01*
X140405264Y-111442940D01*
X140629808Y-111436042D01*
X140697091Y-111431031D01*
X140680929Y-111347808D01*
X140616950Y-111121716D01*
X140510935Y-110770508D01*
X140368668Y-110311942D01*
X140195932Y-109763774D01*
X139998509Y-109143758D01*
X139782183Y-108469651D01*
X139552736Y-107759208D01*
X139315952Y-107030186D01*
X139077612Y-106300339D01*
X138843500Y-105587425D01*
X138619399Y-104909198D01*
X138411091Y-104283414D01*
X138224360Y-103727830D01*
X138064988Y-103260201D01*
X137938759Y-102898282D01*
X137851454Y-102659830D01*
X137808858Y-102562601D01*
X137808672Y-102562396D01*
X137733805Y-102601944D01*
X137534636Y-102733712D01*
X137222918Y-102949107D01*
X136810404Y-103239540D01*
X136308848Y-103596419D01*
X135730004Y-104011155D01*
X135085625Y-104475156D01*
X134387465Y-104979832D01*
X133647277Y-105516592D01*
X132876815Y-106076846D01*
X132087833Y-106652003D01*
X131292083Y-107233473D01*
X130501319Y-107812664D01*
X129727296Y-108380986D01*
X128981766Y-108929848D01*
X128276483Y-109450660D01*
X127623200Y-109934832D01*
X127033672Y-110373772D01*
X126519651Y-110758889D01*
X126092892Y-111081594D01*
X125765147Y-111333296D01*
X125548170Y-111505404D01*
X125453716Y-111589326D01*
X125450548Y-111594925D01*
X120211271Y-111594925D01*
X121109871Y-110924576D01*
X122098082Y-110188112D01*
X123135302Y-109415844D01*
X124213625Y-108613692D01*
X124573710Y-108345985D01*
X125698836Y-107509619D01*
X126808173Y-106684980D01*
X127891758Y-105879473D01*
X128939628Y-105100505D01*
X129941818Y-104355485D01*
X130888365Y-103651819D01*
X131769306Y-102996913D01*
X132574678Y-102398176D01*
X133294516Y-101863013D01*
X133918857Y-101398832D01*
X134437739Y-101013040D01*
X134841197Y-100713044D01*
X135119268Y-100506251D01*
X135130769Y-100497697D01*
X135492790Y-100225581D01*
X140821435Y-100225581D01*
X140833597Y-100317499D01*
X140896833Y-100559312D01*
X141007856Y-100940545D01*
X141163377Y-101450722D01*
X141360111Y-102079368D01*
X141594768Y-102816007D01*
X141864062Y-103650164D01*
X142164705Y-104571364D01*
X142493410Y-105569131D01*
X142588758Y-105856969D01*
X144432678Y-111417010D01*
X149862022Y-111355895D01*
X150805477Y-111344445D01*
X151698556Y-111331997D01*
X152526916Y-111318854D01*
X153276219Y-111305323D01*
X153932121Y-111291706D01*
X154480282Y-111278308D01*
X154906361Y-111265434D01*
X155196016Y-111253389D01*
X155334906Y-111242475D01*
X155344978Y-111239523D01*
X155369325Y-111178239D01*
X158635700Y-111178239D01*
X158717788Y-111187938D01*
X158953773Y-111195270D01*
X159328237Y-111200363D01*
X159825762Y-111203343D01*
X160430931Y-111204340D01*
X161128326Y-111203482D01*
X161902528Y-111200895D01*
X162738120Y-111196709D01*
X163619685Y-111191051D01*
X164531803Y-111184049D01*
X165459058Y-111175831D01*
X166386031Y-111166525D01*
X167297305Y-111156259D01*
X168177462Y-111145160D01*
X169011083Y-111133358D01*
X169782752Y-111120979D01*
X170477049Y-111108152D01*
X171078558Y-111095005D01*
X171571860Y-111081666D01*
X171941538Y-111068262D01*
X171953783Y-111067715D01*
X173124592Y-111014933D01*
X167474471Y-106908600D01*
X166601706Y-106274493D01*
X165764821Y-105666828D01*
X164974444Y-105093299D01*
X164241202Y-104561602D01*
X163575725Y-104079430D01*
X162988641Y-103654481D01*
X162490576Y-103294447D01*
X162092161Y-103007025D01*
X161804022Y-102799910D01*
X161636789Y-102680796D01*
X161601532Y-102656448D01*
X161378714Y-102510629D01*
X160007207Y-106810039D01*
X159746527Y-107628474D01*
X159502062Y-108398432D01*
X159278553Y-109104811D01*
X159080741Y-109732510D01*
X158913368Y-110266426D01*
X158781176Y-110691460D01*
X158688905Y-110992508D01*
X158641298Y-111154471D01*
X158635700Y-111178239D01*
X155369325Y-111178239D01*
X155380581Y-111149910D01*
X155461557Y-110914859D01*
X155582660Y-110550520D01*
X155738642Y-110073045D01*
X155924255Y-109498585D01*
X156134254Y-108843292D01*
X156363391Y-108123318D01*
X156586935Y-107416600D01*
X156849561Y-106584132D01*
X157114295Y-105745342D01*
X157373071Y-104925756D01*
X157617825Y-104150903D01*
X157840492Y-103446313D01*
X158033008Y-102837512D01*
X158187307Y-102350031D01*
X158255478Y-102134939D01*
X158422640Y-101605194D01*
X158542533Y-101213027D01*
X158619772Y-100934826D01*
X158658974Y-100746979D01*
X158664753Y-100625876D01*
X158641724Y-100547905D01*
X158594503Y-100489455D01*
X158579854Y-100475494D01*
X158491539Y-100406847D01*
X158280141Y-100248987D01*
X157959654Y-100012118D01*
X157544072Y-99706444D01*
X157047390Y-99342170D01*
X156483600Y-98929499D01*
X155866697Y-98478637D01*
X155210674Y-97999787D01*
X154529525Y-97503154D01*
X153837244Y-96998942D01*
X153147825Y-96497355D01*
X152475261Y-96008598D01*
X151833547Y-95542875D01*
X151236675Y-95110391D01*
X150698640Y-94721349D01*
X150233437Y-94385955D01*
X149934893Y-94171559D01*
X149691407Y-94001658D01*
X149537807Y-93919333D01*
X149427290Y-93912210D01*
X149313054Y-93967914D01*
X149269966Y-93995744D01*
X149163549Y-94070957D01*
X148937696Y-94234608D01*
X148606852Y-94476046D01*
X148185462Y-94784620D01*
X147687972Y-95149676D01*
X147128827Y-95560564D01*
X146522473Y-96006631D01*
X145883354Y-96477226D01*
X145225916Y-96961696D01*
X144564605Y-97449391D01*
X143913865Y-97929658D01*
X143288143Y-98391846D01*
X142701884Y-98825301D01*
X142169532Y-99219374D01*
X141705534Y-99563412D01*
X141324334Y-99846762D01*
X141040378Y-100058774D01*
X140868112Y-100188796D01*
X140821435Y-100225581D01*
X135492790Y-100225581D01*
X135684692Y-100081337D01*
X136109083Y-99751878D01*
X136414167Y-99500613D01*
X136610171Y-99318833D01*
X136707322Y-99197832D01*
X136721726Y-99143030D01*
X136685129Y-99006527D01*
X136606081Y-98747108D01*
X136496302Y-98402292D01*
X136370503Y-98018600D01*
X136266941Y-97706232D01*
X136136801Y-97312352D01*
X135978424Y-96831895D01*
X135790148Y-96259797D01*
X135570312Y-95590993D01*
X135317257Y-94820417D01*
X135029322Y-93943006D01*
X134704847Y-92953693D01*
X134342170Y-91847415D01*
X133939631Y-90619106D01*
X133495570Y-89263702D01*
X133008327Y-87776137D01*
X132476240Y-86151348D01*
X131897649Y-84384268D01*
X131626548Y-83556186D01*
X135223891Y-83556186D01*
X135244506Y-83639973D01*
X135314689Y-83872271D01*
X135430501Y-84240934D01*
X135588004Y-84733815D01*
X135783257Y-85338770D01*
X136012322Y-86043650D01*
X136271258Y-86836311D01*
X136556128Y-87704606D01*
X136862991Y-88636390D01*
X137187907Y-89619515D01*
X137307023Y-89979099D01*
X137717484Y-91217150D01*
X138078100Y-92304094D01*
X138392160Y-93249609D01*
X138662953Y-94063367D01*
X138893765Y-94755046D01*
X139087885Y-95334321D01*
X139248602Y-95810867D01*
X139379202Y-96194359D01*
X139482975Y-96494473D01*
X139563208Y-96720885D01*
X139623189Y-96883270D01*
X139666207Y-96991304D01*
X139695549Y-97054661D01*
X139714504Y-97083017D01*
X139722619Y-97087266D01*
X139795348Y-97038616D01*
X139985757Y-96901375D01*
X140276099Y-96688611D01*
X140648629Y-96413389D01*
X141085602Y-96088775D01*
X141569273Y-95727837D01*
X141594949Y-95708633D01*
X142204089Y-95253320D01*
X142880323Y-94748406D01*
X143577884Y-94228027D01*
X144251008Y-93726316D01*
X144853928Y-93277411D01*
X145078829Y-93110138D01*
X146719625Y-91890275D01*
X146475829Y-91693147D01*
X146403648Y-91637552D01*
X152460141Y-91637552D01*
X152489775Y-91706329D01*
X152587141Y-91792039D01*
X152717312Y-91885873D01*
X152962198Y-92061513D01*
X153306313Y-92307900D01*
X153734172Y-92613977D01*
X154230288Y-92968686D01*
X154779176Y-93360969D01*
X155365350Y-93779769D01*
X155973326Y-94214027D01*
X156587616Y-94652687D01*
X157192736Y-95084689D01*
X157773199Y-95498977D01*
X158313521Y-95884493D01*
X158798215Y-96230178D01*
X159211796Y-96524976D01*
X159538777Y-96757828D01*
X159763675Y-96917677D01*
X159871002Y-96993464D01*
X159877967Y-96998158D01*
X159910099Y-96930133D01*
X159969655Y-96757642D01*
X159979271Y-96727433D01*
X160017718Y-96605769D01*
X160103306Y-96335166D01*
X160232080Y-95928124D01*
X160400084Y-95397144D01*
X160603362Y-94754728D01*
X160837958Y-94013375D01*
X161099917Y-93185587D01*
X161385283Y-92283864D01*
X161690100Y-91320707D01*
X162010413Y-90308616D01*
X162192413Y-89733565D01*
X162516783Y-88706835D01*
X162825191Y-87727024D01*
X163113951Y-86806057D01*
X163379377Y-85955861D01*
X163617783Y-85188361D01*
X163825480Y-84515484D01*
X163998784Y-83949156D01*
X164134008Y-83501303D01*
X164227464Y-83183851D01*
X164275468Y-83008727D01*
X164280941Y-82976952D01*
X164211080Y-83022013D01*
X164016890Y-83158733D01*
X163710365Y-83378326D01*
X163303498Y-83672003D01*
X162808285Y-84030977D01*
X162236719Y-84446459D01*
X161600796Y-84909664D01*
X160912508Y-85411802D01*
X160183850Y-85944086D01*
X159426816Y-86497729D01*
X158653401Y-87063942D01*
X157875599Y-87633939D01*
X157105404Y-88198931D01*
X156354810Y-88750131D01*
X155635811Y-89278752D01*
X154960402Y-89776005D01*
X154340577Y-90233103D01*
X153788330Y-90641258D01*
X153315655Y-90991683D01*
X152934546Y-91275590D01*
X152656998Y-91484192D01*
X152495005Y-91608700D01*
X152460141Y-91637552D01*
X146403648Y-91637552D01*
X146327584Y-91578967D01*
X146062374Y-91380882D01*
X145692565Y-91107833D01*
X145230519Y-90768763D01*
X144688603Y-90372613D01*
X144079181Y-89928325D01*
X143414617Y-89444840D01*
X142707277Y-88931101D01*
X141969524Y-88396048D01*
X141213725Y-87848623D01*
X140452243Y-87297769D01*
X139697442Y-86752426D01*
X138961689Y-86221537D01*
X138257347Y-85714042D01*
X137596781Y-85238885D01*
X136992357Y-84805006D01*
X136456437Y-84421347D01*
X136001388Y-84096849D01*
X135639574Y-83840455D01*
X135383360Y-83661107D01*
X135245110Y-83567744D01*
X135223891Y-83556186D01*
X131626548Y-83556186D01*
X131270893Y-82469834D01*
X130594313Y-80402981D01*
X130101864Y-78898504D01*
X129847916Y-78120112D01*
X129611910Y-77391811D01*
X129398783Y-76729177D01*
X129213469Y-76147790D01*
X129060902Y-75663228D01*
X128946018Y-75291070D01*
X128873751Y-75046895D01*
X128849036Y-74946280D01*
X128849418Y-74944659D01*
X128920879Y-74988992D01*
X129122025Y-75125987D01*
X129444735Y-75349903D01*
X129880886Y-75655001D01*
X130422356Y-76035540D01*
X131061023Y-76485780D01*
X131788765Y-76999980D01*
X132597461Y-77572401D01*
X133478987Y-78197303D01*
X134425223Y-78868945D01*
X135428046Y-79581586D01*
X136479334Y-80329488D01*
X137570965Y-81106909D01*
X137852767Y-81307729D01*
X138983469Y-82113570D01*
X140095056Y-82905722D01*
X141177647Y-83677147D01*
X142221360Y-84420807D01*
X143216315Y-85129662D01*
X144152631Y-85796676D01*
X145020428Y-86414810D01*
X145809823Y-86977026D01*
X146510937Y-87476286D01*
X147113889Y-87905551D01*
X147608797Y-88257783D01*
X147985781Y-88525945D01*
X148234961Y-88702997D01*
X148238633Y-88705604D01*
X149652567Y-89708994D01*
X152302633Y-87742921D01*
X153729741Y-86684023D01*
X155139505Y-85637737D01*
X156525364Y-84608941D01*
X157880756Y-83602517D01*
X159199122Y-82623345D01*
X160473899Y-81676304D01*
X161698526Y-80766277D01*
X162866443Y-79898141D01*
X163971089Y-79076779D01*
X165005902Y-78307070D01*
X165964322Y-77593894D01*
X166839787Y-76942133D01*
X167625736Y-76356665D01*
X168315608Y-75842372D01*
X168902842Y-75404134D01*
X169380878Y-75046830D01*
X169743153Y-74775342D01*
X169983107Y-74594550D01*
X170094180Y-74509333D01*
X170097498Y-74506628D01*
X170262064Y-74384040D01*
X170363317Y-74334153D01*
X170372562Y-74336572D01*
X170372562Y-74336572D01*
G37*
X170372562Y-74336572D02*
X170351162Y-74419566D01*
X170281013Y-74654141D01*
X170165163Y-75030661D01*
X170006658Y-75539491D01*
X169808547Y-76170996D01*
X169573878Y-76915539D01*
X169305697Y-77763485D01*
X169007054Y-78705198D01*
X168680995Y-79731043D01*
X168330569Y-80831384D01*
X167958823Y-81996585D01*
X167568805Y-83217012D01*
X167163562Y-84483027D01*
X167137765Y-84563552D01*
X166724441Y-85853677D01*
X166321103Y-87112672D01*
X165931246Y-88329620D01*
X165558369Y-89493605D01*
X165205967Y-90593709D01*
X164877537Y-91619015D01*
X164576577Y-92558607D01*
X164306583Y-93401567D01*
X164071051Y-94136979D01*
X163873480Y-94753926D01*
X163717365Y-95241491D01*
X163606203Y-95588757D01*
X163546647Y-95774933D01*
X163379869Y-96296416D01*
X163191338Y-96885393D01*
X163008675Y-97455602D01*
X162905824Y-97776396D01*
X162787221Y-98166230D01*
X162696692Y-98503162D01*
X162642982Y-98751627D01*
X162634835Y-98876059D01*
X162635207Y-98877063D01*
X162708245Y-98938443D01*
X162911834Y-99092384D01*
X163238424Y-99333457D01*
X163680466Y-99656232D01*
X164230411Y-100055279D01*
X164880709Y-100525170D01*
X165623811Y-101060474D01*
X166452167Y-101655763D01*
X167358228Y-102305606D01*
X168334445Y-103004575D01*
X169373269Y-103747240D01*
X170467149Y-104528170D01*
X171608537Y-105341938D01*
X172789883Y-106183112D01*
X173155077Y-106442933D01*
X183629466Y-113893600D01*
X178011750Y-113991607D01*
X176841842Y-114012059D01*
X175557911Y-114034579D01*
X174198114Y-114058493D01*
X172800609Y-114083128D01*
X171403553Y-114107809D01*
X170045106Y-114131863D01*
X168763424Y-114154617D01*
X167596667Y-114175396D01*
X167144700Y-114183468D01*
X166139171Y-114200769D01*
X165122878Y-114216989D01*
X164119124Y-114231839D01*
X163151207Y-114245024D01*
X162242428Y-114256253D01*
X161416089Y-114265234D01*
X160695488Y-114271674D01*
X160103928Y-114275283D01*
X159767805Y-114275961D01*
X157640243Y-114274600D01*
X157550147Y-114507433D01*
X157499358Y-114652845D01*
X157406044Y-114933706D01*
X157278670Y-115323990D01*
X157125700Y-115797672D01*
X156955600Y-116328726D01*
X156854812Y-116645266D01*
X156659260Y-117259972D01*
X156458244Y-117890442D01*
X156264934Y-118495469D01*
X156092501Y-119033846D01*
X155954115Y-119464365D01*
X155921227Y-119566266D01*
X155680189Y-120313373D01*
X155411220Y-121149311D01*
X155118004Y-122062497D01*
X154804223Y-123041348D01*
X154473563Y-124074279D01*
X154129707Y-125149709D01*
X153776339Y-126256053D01*
X153417142Y-127381728D01*
X153055800Y-128515150D01*
X152695996Y-129644736D01*
X152341416Y-130758903D01*
X151995742Y-131846067D01*
X151662658Y-132894644D01*
X151345848Y-133893052D01*
X151048996Y-134829706D01*
X150775785Y-135693024D01*
X150529899Y-136471422D01*
X150315023Y-137153317D01*
X150134839Y-137727125D01*
X149993031Y-138181262D01*
X149893284Y-138504145D01*
X149839281Y-138684192D01*
X149830367Y-138718753D01*
X149794778Y-138822302D01*
X149718928Y-138800211D01*
X149649192Y-138672333D01*
X149640401Y-138637433D01*
X149608799Y-138532126D01*
X149526218Y-138271787D01*
X149394565Y-137862250D01*
X149215743Y-137309345D01*
X148991660Y-136618905D01*
X148724220Y-135796763D01*
X148415329Y-134848750D01*
X148066891Y-133780699D01*
X147680813Y-132598442D01*
X147259000Y-131307811D01*
X146803358Y-129914638D01*
X146315791Y-128424756D01*
X145798205Y-126843996D01*
X145252506Y-125178191D01*
X144680598Y-123433173D01*
X144084389Y-121614774D01*
X143465781Y-119728826D01*
X142826683Y-117781162D01*
X142787333Y-117661266D01*
X142593899Y-117070708D01*
X142410245Y-116507794D01*
X142245461Y-116000553D01*
X142108634Y-115577014D01*
X142008853Y-115265205D01*
X141963715Y-115121266D01*
X141820905Y-114655600D01*
X139454469Y-114673285D01*
X139028741Y-114676832D01*
X138553343Y-114681519D01*
X138020648Y-114687463D01*
X137423026Y-114694782D01*
X136752849Y-114703592D01*
X136002489Y-114714009D01*
X135164316Y-114726152D01*
X134230702Y-114740137D01*
X133194019Y-114756080D01*
X132046637Y-114774099D01*
X130780929Y-114794310D01*
X129389265Y-114816830D01*
X127864018Y-114841777D01*
X126197558Y-114869266D01*
X124382257Y-114899416D01*
X122410486Y-114932342D01*
X120970338Y-114956480D01*
X120041147Y-114971640D01*
X119163195Y-114985123D01*
X118350929Y-114996762D01*
X117618800Y-115006390D01*
X116981257Y-115013840D01*
X116452748Y-115018947D01*
X116047724Y-115021542D01*
X115780633Y-115021459D01*
X115665925Y-115018532D01*
X115662612Y-115017734D01*
X115725895Y-114964874D01*
X115917248Y-114817017D01*
X116228765Y-114580082D01*
X116247400Y-114566006D01*
X145531405Y-114566006D01*
X145553968Y-114647420D01*
X145625550Y-114874922D01*
X145741341Y-115234053D01*
X145896533Y-115710351D01*
X146086315Y-116289354D01*
X146305879Y-116956601D01*
X146550414Y-117697632D01*
X146815113Y-118497985D01*
X147095166Y-119343200D01*
X147385763Y-120218814D01*
X147682095Y-121110367D01*
X147979353Y-122003398D01*
X148272727Y-122883446D01*
X148557409Y-123736049D01*
X148828589Y-124546746D01*
X149081458Y-125301077D01*
X149311207Y-125984580D01*
X149513025Y-126582794D01*
X149682105Y-127081258D01*
X149813636Y-127465510D01*
X149902810Y-127721090D01*
X149939647Y-127821266D01*
X149959690Y-127861494D01*
X149983126Y-127876659D01*
X150013726Y-127856003D01*
X150055257Y-127788766D01*
X150111490Y-127664191D01*
X150186194Y-127471518D01*
X150283138Y-127199988D01*
X150406091Y-126838843D01*
X150558823Y-126377324D01*
X150745103Y-125804673D01*
X150968700Y-125110129D01*
X151233384Y-124282936D01*
X151542923Y-123312333D01*
X151778721Y-122571933D01*
X152256162Y-121071282D01*
X152684881Y-119721552D01*
X153064519Y-118523882D01*
X153394721Y-117479409D01*
X153675126Y-116589273D01*
X153905378Y-115854611D01*
X154085120Y-115276562D01*
X154213992Y-114856265D01*
X154291638Y-114594857D01*
X154317700Y-114493478D01*
X154317700Y-114493418D01*
X154236243Y-114482860D01*
X154004664Y-114474897D01*
X153642154Y-114469371D01*
X153167903Y-114466124D01*
X152601099Y-114464996D01*
X151960933Y-114465830D01*
X151266594Y-114468467D01*
X150537272Y-114472747D01*
X149792157Y-114478514D01*
X149050438Y-114485607D01*
X148331306Y-114493869D01*
X147653949Y-114503141D01*
X147037558Y-114513265D01*
X146501322Y-114524081D01*
X146064431Y-114535432D01*
X145746075Y-114547159D01*
X145565444Y-114559103D01*
X145531405Y-114566006D01*
X116247400Y-114566006D01*
X116652541Y-114259989D01*
X117180668Y-113862655D01*
X117805241Y-113394002D01*
X118518354Y-112859948D01*
X119312101Y-112266413D01*
X120178575Y-111619316D01*
X120211271Y-111594925D01*
X125450548Y-111594925D01*
X125529264Y-111615400D01*
X125750384Y-111628066D01*
X126087142Y-111632530D01*
X126512771Y-111628397D01*
X126949200Y-111617016D01*
X127289541Y-111607867D01*
X127781091Y-111597759D01*
X128405731Y-111586936D01*
X129145341Y-111575641D01*
X129981800Y-111564117D01*
X130896989Y-111552606D01*
X131872788Y-111541352D01*
X132891078Y-111530597D01*
X133933739Y-111520584D01*
X134548033Y-111515165D01*
X135548867Y-111506206D01*
X136499963Y-111496857D01*
X137387806Y-111487304D01*
X138198884Y-111477731D01*
X138919682Y-111468323D01*
X139536687Y-111459266D01*
X140036386Y-111450743D01*
X140405264Y-111442940D01*
X140629808Y-111436042D01*
X140697091Y-111431031D01*
X140680929Y-111347808D01*
X140616950Y-111121716D01*
X140510935Y-110770508D01*
X140368668Y-110311942D01*
X140195932Y-109763774D01*
X139998509Y-109143758D01*
X139782183Y-108469651D01*
X139552736Y-107759208D01*
X139315952Y-107030186D01*
X139077612Y-106300339D01*
X138843500Y-105587425D01*
X138619399Y-104909198D01*
X138411091Y-104283414D01*
X138224360Y-103727830D01*
X138064988Y-103260201D01*
X137938759Y-102898282D01*
X137851454Y-102659830D01*
X137808858Y-102562601D01*
X137808672Y-102562396D01*
X137733805Y-102601944D01*
X137534636Y-102733712D01*
X137222918Y-102949107D01*
X136810404Y-103239540D01*
X136308848Y-103596419D01*
X135730004Y-104011155D01*
X135085625Y-104475156D01*
X134387465Y-104979832D01*
X133647277Y-105516592D01*
X132876815Y-106076846D01*
X132087833Y-106652003D01*
X131292083Y-107233473D01*
X130501319Y-107812664D01*
X129727296Y-108380986D01*
X128981766Y-108929848D01*
X128276483Y-109450660D01*
X127623200Y-109934832D01*
X127033672Y-110373772D01*
X126519651Y-110758889D01*
X126092892Y-111081594D01*
X125765147Y-111333296D01*
X125548170Y-111505404D01*
X125453716Y-111589326D01*
X125450548Y-111594925D01*
X120211271Y-111594925D01*
X121109871Y-110924576D01*
X122098082Y-110188112D01*
X123135302Y-109415844D01*
X124213625Y-108613692D01*
X124573710Y-108345985D01*
X125698836Y-107509619D01*
X126808173Y-106684980D01*
X127891758Y-105879473D01*
X128939628Y-105100505D01*
X129941818Y-104355485D01*
X130888365Y-103651819D01*
X131769306Y-102996913D01*
X132574678Y-102398176D01*
X133294516Y-101863013D01*
X133918857Y-101398832D01*
X134437739Y-101013040D01*
X134841197Y-100713044D01*
X135119268Y-100506251D01*
X135130769Y-100497697D01*
X135492790Y-100225581D01*
X140821435Y-100225581D01*
X140833597Y-100317499D01*
X140896833Y-100559312D01*
X141007856Y-100940545D01*
X141163377Y-101450722D01*
X141360111Y-102079368D01*
X141594768Y-102816007D01*
X141864062Y-103650164D01*
X142164705Y-104571364D01*
X142493410Y-105569131D01*
X142588758Y-105856969D01*
X144432678Y-111417010D01*
X149862022Y-111355895D01*
X150805477Y-111344445D01*
X151698556Y-111331997D01*
X152526916Y-111318854D01*
X153276219Y-111305323D01*
X153932121Y-111291706D01*
X154480282Y-111278308D01*
X154906361Y-111265434D01*
X155196016Y-111253389D01*
X155334906Y-111242475D01*
X155344978Y-111239523D01*
X155369325Y-111178239D01*
X158635700Y-111178239D01*
X158717788Y-111187938D01*
X158953773Y-111195270D01*
X159328237Y-111200363D01*
X159825762Y-111203343D01*
X160430931Y-111204340D01*
X161128326Y-111203482D01*
X161902528Y-111200895D01*
X162738120Y-111196709D01*
X163619685Y-111191051D01*
X164531803Y-111184049D01*
X165459058Y-111175831D01*
X166386031Y-111166525D01*
X167297305Y-111156259D01*
X168177462Y-111145160D01*
X169011083Y-111133358D01*
X169782752Y-111120979D01*
X170477049Y-111108152D01*
X171078558Y-111095005D01*
X171571860Y-111081666D01*
X171941538Y-111068262D01*
X171953783Y-111067715D01*
X173124592Y-111014933D01*
X167474471Y-106908600D01*
X166601706Y-106274493D01*
X165764821Y-105666828D01*
X164974444Y-105093299D01*
X164241202Y-104561602D01*
X163575725Y-104079430D01*
X162988641Y-103654481D01*
X162490576Y-103294447D01*
X162092161Y-103007025D01*
X161804022Y-102799910D01*
X161636789Y-102680796D01*
X161601532Y-102656448D01*
X161378714Y-102510629D01*
X160007207Y-106810039D01*
X159746527Y-107628474D01*
X159502062Y-108398432D01*
X159278553Y-109104811D01*
X159080741Y-109732510D01*
X158913368Y-110266426D01*
X158781176Y-110691460D01*
X158688905Y-110992508D01*
X158641298Y-111154471D01*
X158635700Y-111178239D01*
X155369325Y-111178239D01*
X155380581Y-111149910D01*
X155461557Y-110914859D01*
X155582660Y-110550520D01*
X155738642Y-110073045D01*
X155924255Y-109498585D01*
X156134254Y-108843292D01*
X156363391Y-108123318D01*
X156586935Y-107416600D01*
X156849561Y-106584132D01*
X157114295Y-105745342D01*
X157373071Y-104925756D01*
X157617825Y-104150903D01*
X157840492Y-103446313D01*
X158033008Y-102837512D01*
X158187307Y-102350031D01*
X158255478Y-102134939D01*
X158422640Y-101605194D01*
X158542533Y-101213027D01*
X158619772Y-100934826D01*
X158658974Y-100746979D01*
X158664753Y-100625876D01*
X158641724Y-100547905D01*
X158594503Y-100489455D01*
X158579854Y-100475494D01*
X158491539Y-100406847D01*
X158280141Y-100248987D01*
X157959654Y-100012118D01*
X157544072Y-99706444D01*
X157047390Y-99342170D01*
X156483600Y-98929499D01*
X155866697Y-98478637D01*
X155210674Y-97999787D01*
X154529525Y-97503154D01*
X153837244Y-96998942D01*
X153147825Y-96497355D01*
X152475261Y-96008598D01*
X151833547Y-95542875D01*
X151236675Y-95110391D01*
X150698640Y-94721349D01*
X150233437Y-94385955D01*
X149934893Y-94171559D01*
X149691407Y-94001658D01*
X149537807Y-93919333D01*
X149427290Y-93912210D01*
X149313054Y-93967914D01*
X149269966Y-93995744D01*
X149163549Y-94070957D01*
X148937696Y-94234608D01*
X148606852Y-94476046D01*
X148185462Y-94784620D01*
X147687972Y-95149676D01*
X147128827Y-95560564D01*
X146522473Y-96006631D01*
X145883354Y-96477226D01*
X145225916Y-96961696D01*
X144564605Y-97449391D01*
X143913865Y-97929658D01*
X143288143Y-98391846D01*
X142701884Y-98825301D01*
X142169532Y-99219374D01*
X141705534Y-99563412D01*
X141324334Y-99846762D01*
X141040378Y-100058774D01*
X140868112Y-100188796D01*
X140821435Y-100225581D01*
X135492790Y-100225581D01*
X135684692Y-100081337D01*
X136109083Y-99751878D01*
X136414167Y-99500613D01*
X136610171Y-99318833D01*
X136707322Y-99197832D01*
X136721726Y-99143030D01*
X136685129Y-99006527D01*
X136606081Y-98747108D01*
X136496302Y-98402292D01*
X136370503Y-98018600D01*
X136266941Y-97706232D01*
X136136801Y-97312352D01*
X135978424Y-96831895D01*
X135790148Y-96259797D01*
X135570312Y-95590993D01*
X135317257Y-94820417D01*
X135029322Y-93943006D01*
X134704847Y-92953693D01*
X134342170Y-91847415D01*
X133939631Y-90619106D01*
X133495570Y-89263702D01*
X133008327Y-87776137D01*
X132476240Y-86151348D01*
X131897649Y-84384268D01*
X131626548Y-83556186D01*
X135223891Y-83556186D01*
X135244506Y-83639973D01*
X135314689Y-83872271D01*
X135430501Y-84240934D01*
X135588004Y-84733815D01*
X135783257Y-85338770D01*
X136012322Y-86043650D01*
X136271258Y-86836311D01*
X136556128Y-87704606D01*
X136862991Y-88636390D01*
X137187907Y-89619515D01*
X137307023Y-89979099D01*
X137717484Y-91217150D01*
X138078100Y-92304094D01*
X138392160Y-93249609D01*
X138662953Y-94063367D01*
X138893765Y-94755046D01*
X139087885Y-95334321D01*
X139248602Y-95810867D01*
X139379202Y-96194359D01*
X139482975Y-96494473D01*
X139563208Y-96720885D01*
X139623189Y-96883270D01*
X139666207Y-96991304D01*
X139695549Y-97054661D01*
X139714504Y-97083017D01*
X139722619Y-97087266D01*
X139795348Y-97038616D01*
X139985757Y-96901375D01*
X140276099Y-96688611D01*
X140648629Y-96413389D01*
X141085602Y-96088775D01*
X141569273Y-95727837D01*
X141594949Y-95708633D01*
X142204089Y-95253320D01*
X142880323Y-94748406D01*
X143577884Y-94228027D01*
X144251008Y-93726316D01*
X144853928Y-93277411D01*
X145078829Y-93110138D01*
X146719625Y-91890275D01*
X146475829Y-91693147D01*
X146403648Y-91637552D01*
X152460141Y-91637552D01*
X152489775Y-91706329D01*
X152587141Y-91792039D01*
X152717312Y-91885873D01*
X152962198Y-92061513D01*
X153306313Y-92307900D01*
X153734172Y-92613977D01*
X154230288Y-92968686D01*
X154779176Y-93360969D01*
X155365350Y-93779769D01*
X155973326Y-94214027D01*
X156587616Y-94652687D01*
X157192736Y-95084689D01*
X157773199Y-95498977D01*
X158313521Y-95884493D01*
X158798215Y-96230178D01*
X159211796Y-96524976D01*
X159538777Y-96757828D01*
X159763675Y-96917677D01*
X159871002Y-96993464D01*
X159877967Y-96998158D01*
X159910099Y-96930133D01*
X159969655Y-96757642D01*
X159979271Y-96727433D01*
X160017718Y-96605769D01*
X160103306Y-96335166D01*
X160232080Y-95928124D01*
X160400084Y-95397144D01*
X160603362Y-94754728D01*
X160837958Y-94013375D01*
X161099917Y-93185587D01*
X161385283Y-92283864D01*
X161690100Y-91320707D01*
X162010413Y-90308616D01*
X162192413Y-89733565D01*
X162516783Y-88706835D01*
X162825191Y-87727024D01*
X163113951Y-86806057D01*
X163379377Y-85955861D01*
X163617783Y-85188361D01*
X163825480Y-84515484D01*
X163998784Y-83949156D01*
X164134008Y-83501303D01*
X164227464Y-83183851D01*
X164275468Y-83008727D01*
X164280941Y-82976952D01*
X164211080Y-83022013D01*
X164016890Y-83158733D01*
X163710365Y-83378326D01*
X163303498Y-83672003D01*
X162808285Y-84030977D01*
X162236719Y-84446459D01*
X161600796Y-84909664D01*
X160912508Y-85411802D01*
X160183850Y-85944086D01*
X159426816Y-86497729D01*
X158653401Y-87063942D01*
X157875599Y-87633939D01*
X157105404Y-88198931D01*
X156354810Y-88750131D01*
X155635811Y-89278752D01*
X154960402Y-89776005D01*
X154340577Y-90233103D01*
X153788330Y-90641258D01*
X153315655Y-90991683D01*
X152934546Y-91275590D01*
X152656998Y-91484192D01*
X152495005Y-91608700D01*
X152460141Y-91637552D01*
X146403648Y-91637552D01*
X146327584Y-91578967D01*
X146062374Y-91380882D01*
X145692565Y-91107833D01*
X145230519Y-90768763D01*
X144688603Y-90372613D01*
X144079181Y-89928325D01*
X143414617Y-89444840D01*
X142707277Y-88931101D01*
X141969524Y-88396048D01*
X141213725Y-87848623D01*
X140452243Y-87297769D01*
X139697442Y-86752426D01*
X138961689Y-86221537D01*
X138257347Y-85714042D01*
X137596781Y-85238885D01*
X136992357Y-84805006D01*
X136456437Y-84421347D01*
X136001388Y-84096849D01*
X135639574Y-83840455D01*
X135383360Y-83661107D01*
X135245110Y-83567744D01*
X135223891Y-83556186D01*
X131626548Y-83556186D01*
X131270893Y-82469834D01*
X130594313Y-80402981D01*
X130101864Y-78898504D01*
X129847916Y-78120112D01*
X129611910Y-77391811D01*
X129398783Y-76729177D01*
X129213469Y-76147790D01*
X129060902Y-75663228D01*
X128946018Y-75291070D01*
X128873751Y-75046895D01*
X128849036Y-74946280D01*
X128849418Y-74944659D01*
X128920879Y-74988992D01*
X129122025Y-75125987D01*
X129444735Y-75349903D01*
X129880886Y-75655001D01*
X130422356Y-76035540D01*
X131061023Y-76485780D01*
X131788765Y-76999980D01*
X132597461Y-77572401D01*
X133478987Y-78197303D01*
X134425223Y-78868945D01*
X135428046Y-79581586D01*
X136479334Y-80329488D01*
X137570965Y-81106909D01*
X137852767Y-81307729D01*
X138983469Y-82113570D01*
X140095056Y-82905722D01*
X141177647Y-83677147D01*
X142221360Y-84420807D01*
X143216315Y-85129662D01*
X144152631Y-85796676D01*
X145020428Y-86414810D01*
X145809823Y-86977026D01*
X146510937Y-87476286D01*
X147113889Y-87905551D01*
X147608797Y-88257783D01*
X147985781Y-88525945D01*
X148234961Y-88702997D01*
X148238633Y-88705604D01*
X149652567Y-89708994D01*
X152302633Y-87742921D01*
X153729741Y-86684023D01*
X155139505Y-85637737D01*
X156525364Y-84608941D01*
X157880756Y-83602517D01*
X159199122Y-82623345D01*
X160473899Y-81676304D01*
X161698526Y-80766277D01*
X162866443Y-79898141D01*
X163971089Y-79076779D01*
X165005902Y-78307070D01*
X165964322Y-77593894D01*
X166839787Y-76942133D01*
X167625736Y-76356665D01*
X168315608Y-75842372D01*
X168902842Y-75404134D01*
X169380878Y-75046830D01*
X169743153Y-74775342D01*
X169983107Y-74594550D01*
X170094180Y-74509333D01*
X170097498Y-74506628D01*
X170262064Y-74384040D01*
X170363317Y-74334153D01*
X170372562Y-74336572D01*
M02*
