G04 #@! TF.GenerationSoftware,KiCad,Pcbnew,(5.1.4)-1*
G04 #@! TF.CreationDate,2019-09-20T01:01:40-07:00*
G04 #@! TF.ProjectId,macropad,6d616372-6f70-4616-942e-6b696361645f,rev?*
G04 #@! TF.SameCoordinates,Original*
G04 #@! TF.FileFunction,Copper,L2,Bot*
G04 #@! TF.FilePolarity,Positive*
%FSLAX46Y46*%
G04 Gerber Fmt 4.6, Leading zero omitted, Abs format (unit mm)*
G04 Created by KiCad (PCBNEW (5.1.4)-1) date 2019-09-20 01:01:40*
%MOMM*%
%LPD*%
G04 APERTURE LIST*
%ADD10C,2.000000*%
%ADD11C,2.800000*%
%ADD12C,1.950000*%
%ADD13R,1.651000X1.651000*%
%ADD14C,1.651000*%
%ADD15C,1.600000*%
%ADD16R,1.600000X1.600000*%
%ADD17C,0.250000*%
G04 APERTURE END LIST*
D10*
X177683160Y-104140000D03*
D11*
X172552360Y-118623080D03*
D12*
X170012360Y-113543080D03*
X180172360Y-113543080D03*
D11*
X178902360Y-116083080D03*
D10*
X175173000Y-104140000D03*
X172673000Y-104140000D03*
X177673000Y-118640000D03*
X152791160Y-121666000D03*
D11*
X147660360Y-136149080D03*
D12*
X145120360Y-131069080D03*
X155280360Y-131069080D03*
D11*
X154010360Y-133609080D03*
D10*
X150281000Y-121666000D03*
X147781000Y-121666000D03*
X152781000Y-136166000D03*
X152410160Y-97282000D03*
D11*
X147279360Y-111765080D03*
D12*
X144739360Y-106685080D03*
X154899360Y-106685080D03*
D11*
X153629360Y-109225080D03*
D10*
X149900000Y-97282000D03*
X147400000Y-97282000D03*
X152400000Y-111782000D03*
X126883160Y-103886000D03*
D11*
X121752360Y-118369080D03*
D12*
X119212360Y-113289080D03*
X129372360Y-113289080D03*
D11*
X128102360Y-115829080D03*
D10*
X124373000Y-103886000D03*
X121873000Y-103886000D03*
X126873000Y-118386000D03*
X169301160Y-76454000D03*
D11*
X164170360Y-90937080D03*
D12*
X161630360Y-85857080D03*
X171790360Y-85857080D03*
D11*
X170520360Y-88397080D03*
D10*
X166791000Y-76454000D03*
X164291000Y-76454000D03*
X169291000Y-90954000D03*
X133360160Y-76327000D03*
D11*
X128229360Y-90810080D03*
D12*
X125689360Y-85730080D03*
X135849360Y-85730080D03*
D11*
X134579360Y-88270080D03*
D10*
X130850000Y-76327000D03*
X128350000Y-76327000D03*
X133350000Y-90827000D03*
D13*
X166878000Y-115570000D03*
D14*
X166878000Y-107950000D03*
D13*
X173990000Y-87630000D03*
D14*
X173990000Y-80010000D03*
D13*
X158369000Y-133350000D03*
D14*
X158369000Y-125730000D03*
D15*
X157480000Y-69850000D03*
X157480000Y-72390000D03*
X157480000Y-74930000D03*
X157480000Y-77470000D03*
X157480000Y-80010000D03*
X157480000Y-82550000D03*
X157480000Y-85090000D03*
X157480000Y-87630000D03*
X157480000Y-90170000D03*
X157480000Y-92710000D03*
X157480000Y-95250000D03*
X157480000Y-97790000D03*
X142240000Y-97790000D03*
X142240000Y-95250000D03*
X142240000Y-92710000D03*
X142240000Y-90170000D03*
X142240000Y-87630000D03*
X142240000Y-85090000D03*
X142240000Y-82550000D03*
X142240000Y-80010000D03*
X142240000Y-77470000D03*
X142240000Y-74930000D03*
X142240000Y-72390000D03*
D16*
X142240000Y-69850000D03*
D13*
X157480000Y-107950000D03*
D14*
X157480000Y-100330000D03*
D13*
X138430000Y-87630000D03*
D14*
X138430000Y-80010000D03*
D13*
X132842000Y-115697000D03*
D14*
X132842000Y-108077000D03*
D17*
X132842000Y-116772500D02*
X132842000Y-115697000D01*
X130854500Y-118760000D02*
X132842000Y-116772500D01*
X126960000Y-118760000D02*
X130854500Y-118760000D01*
X141440001Y-88429999D02*
X142240000Y-87630000D01*
X133667499Y-96202501D02*
X141440001Y-88429999D01*
X133667499Y-107251501D02*
X133667499Y-96202501D01*
X132842000Y-108077000D02*
X133667499Y-107251501D01*
X158369000Y-134425500D02*
X158369000Y-133350000D01*
X156254500Y-136540000D02*
X158369000Y-134425500D01*
X152360000Y-136540000D02*
X156254500Y-136540000D01*
X166052501Y-108775499D02*
X166878000Y-107950000D01*
X159194499Y-115633501D02*
X166052501Y-108775499D01*
X159194499Y-124904501D02*
X159194499Y-115633501D01*
X158369000Y-125730000D02*
X159194499Y-124904501D01*
X138430000Y-88705500D02*
X138430000Y-87630000D01*
X136315500Y-90820000D02*
X138430000Y-88705500D01*
X133310000Y-90820000D02*
X136315500Y-90820000D01*
X138430000Y-81280000D02*
X142240000Y-85090000D01*
X138430000Y-80010000D02*
X138430000Y-81280000D01*
X173990000Y-80010000D02*
X173990000Y-78842567D01*
X173990000Y-78292838D02*
X169484162Y-73787000D01*
X173990000Y-80010000D02*
X173990000Y-78292838D01*
X153543000Y-73787000D02*
X142240000Y-85090000D01*
X169484162Y-73787000D02*
X153543000Y-73787000D01*
X157480000Y-109025500D02*
X157480000Y-107950000D01*
X154723500Y-111782000D02*
X157480000Y-109025500D01*
X152400000Y-111782000D02*
X154723500Y-111782000D01*
X176673001Y-117767001D02*
X175171001Y-117767001D01*
X177673000Y-118767000D02*
X176673001Y-117767001D01*
X172974000Y-115570000D02*
X166878000Y-115570000D01*
X175171001Y-117767001D02*
X172974000Y-115570000D01*
X119380000Y-99750000D02*
X127381000Y-91749000D01*
X119380000Y-106680000D02*
X119380000Y-99750000D01*
X127381000Y-91749000D02*
X128310000Y-90820000D01*
X121752360Y-117151182D02*
X121158000Y-116556822D01*
X121752360Y-119131080D02*
X121752360Y-117151182D01*
X121158000Y-108458000D02*
X119380000Y-106680000D01*
X121158000Y-116556822D02*
X121158000Y-108458000D01*
X146260361Y-134749081D02*
X147660360Y-136149080D01*
X143509379Y-131998099D02*
X146260361Y-134749081D01*
X137737399Y-131998099D02*
X143509379Y-131998099D01*
X137699748Y-132035750D02*
X137737399Y-131998099D01*
X135235750Y-132035750D02*
X137699748Y-132035750D01*
X121960000Y-118760000D02*
X135235750Y-132035750D01*
X141108630Y-74930000D02*
X142240000Y-74930000D01*
X132114998Y-74930000D02*
X141108630Y-74930000D01*
X131809999Y-75234999D02*
X132114998Y-74930000D01*
X131809999Y-75320001D02*
X131809999Y-75234999D01*
X130810000Y-76320000D02*
X131809999Y-75320001D01*
X130810000Y-77734213D02*
X130810000Y-76320000D01*
X149860000Y-96640000D02*
X149860000Y-82062320D01*
X150787319Y-81135001D02*
X161554999Y-81135001D01*
X149860000Y-82062320D02*
X150787319Y-81135001D01*
X163738779Y-78884999D02*
X163771890Y-78918110D01*
X150350001Y-78884999D02*
X163738779Y-78884999D01*
X142730001Y-86504999D02*
X150350001Y-78884999D01*
X140190001Y-86504999D02*
X142730001Y-86504999D01*
X139580501Y-88715501D02*
X139580501Y-87114499D01*
X161554999Y-81135001D02*
X163771890Y-78918110D01*
X139580501Y-87114499D02*
X140190001Y-86504999D01*
X128143000Y-79796000D02*
X130850000Y-77089000D01*
X128143000Y-87630000D02*
X128143000Y-79796000D01*
X130810000Y-90281002D02*
X130794002Y-90281002D01*
X130794002Y-90281002D02*
X128143000Y-87630000D01*
X133689001Y-94607001D02*
X133769501Y-94526501D01*
X133769501Y-94526501D02*
X139580501Y-88715501D01*
X130794002Y-97393002D02*
X130848501Y-97447501D01*
X130794002Y-90281002D02*
X130794002Y-97393002D01*
X125499999Y-102796003D02*
X130848501Y-97447501D01*
X130848501Y-97447501D02*
X133769501Y-94526501D01*
X150859999Y-121040001D02*
X149860000Y-122040000D01*
X174124000Y-102743000D02*
X169157000Y-102743000D01*
X166370000Y-94989000D02*
X174124000Y-102743000D01*
X166370000Y-76320000D02*
X166370000Y-81788000D01*
X163771890Y-78918110D02*
X166370000Y-76320000D01*
X169157000Y-102743000D02*
X150859999Y-121040001D01*
X174173001Y-102792001D02*
X174124000Y-102743000D01*
X174173001Y-103140001D02*
X174173001Y-102792001D01*
X175173000Y-104140000D02*
X174173001Y-103140001D01*
X166370000Y-81788000D02*
X169672000Y-85090000D01*
X166370000Y-89638442D02*
X166370000Y-94989000D01*
X169672000Y-86336442D02*
X166370000Y-89638442D01*
X169672000Y-85090000D02*
X169672000Y-86336442D01*
X125462997Y-102796003D02*
X124373000Y-103886000D01*
X125499999Y-102796003D02*
X125462997Y-102796003D01*
X158279999Y-83349999D02*
X157480000Y-82550000D01*
X158630501Y-83700501D02*
X158279999Y-83349999D01*
X158630501Y-100882241D02*
X158630501Y-83700501D01*
X158032241Y-101480501D02*
X158630501Y-100882241D01*
X154934497Y-101480501D02*
X158032241Y-101480501D01*
X147360000Y-122040000D02*
X149987000Y-119413000D01*
X149987000Y-109958442D02*
X153035000Y-106910442D01*
X149987000Y-119413000D02*
X149987000Y-109958442D01*
X153035000Y-103379998D02*
X154934497Y-101480501D01*
X153035000Y-106910442D02*
X153035000Y-103379998D01*
X150749000Y-80010000D02*
X157480000Y-80010000D01*
X145034000Y-85725000D02*
X150749000Y-80010000D01*
X145034000Y-97686998D02*
X145034000Y-85725000D01*
X152781000Y-122916000D02*
X151364000Y-124333000D01*
X152781000Y-121666000D02*
X152781000Y-122916000D01*
X151364000Y-124333000D02*
X148486998Y-124333000D01*
X148486998Y-124333000D02*
X141732000Y-117578002D01*
X141732000Y-117578002D02*
X141732000Y-100988998D01*
X141732000Y-100988998D02*
X145034000Y-97686998D01*
X143039999Y-73189999D02*
X142240000Y-72390000D01*
X143365001Y-73515001D02*
X143039999Y-73189999D01*
X143365001Y-75470001D02*
X143365001Y-73515001D01*
X142515002Y-76320000D02*
X143365001Y-75470001D01*
X133310000Y-76320000D02*
X142515002Y-76320000D01*
X127941700Y-76845800D02*
X130949700Y-73837800D01*
X139318802Y-73837800D02*
X140652500Y-72504102D01*
X130949700Y-73837800D02*
X139318802Y-73837800D01*
X141190000Y-69850000D02*
X142240000Y-69850000D01*
X140652500Y-70387500D02*
X141190000Y-69850000D01*
X140652500Y-72504102D02*
X140652500Y-70387500D01*
X156348630Y-97790000D02*
X154951630Y-99187000D01*
X157480000Y-97790000D02*
X156348630Y-97790000D01*
X149907000Y-99187000D02*
X147360000Y-96640000D01*
X154951630Y-99187000D02*
X149907000Y-99187000D01*
X156090000Y-96640000D02*
X157480000Y-95250000D01*
X152360000Y-96640000D02*
X156090000Y-96640000D01*
M02*
